<?xml version="1.0" encoding="UTF-8"?>
<svg xmlns="http://www.w3.org/2000/svg" xmlns:xlink="http://www.w3.org/1999/xlink" width="20pt" height="20pt" viewBox="0 0 20 20" version="1.1">
<g id="surface1">
<path style=" stroke:none;fill-rule:evenodd;fill:rgb(98.039216%,61.568627%,14.117647%);fill-opacity:1;" d="M 19.9375 8.890625 C 19.90625 8.609375 19.578125 8.398438 19.292969 8.398438 C 18.378906 8.398438 17.566406 7.859375 17.222656 7.027344 C 16.875 6.175781 17.101562 5.179688 17.78125 4.554688 C 17.996094 4.359375 18.023438 4.027344 17.84375 3.800781 C 17.375 3.203125 16.839844 2.667969 16.257812 2.199219 C 16.03125 2.015625 15.695312 2.042969 15.5 2.261719 C 14.902344 2.921875 13.832031 3.167969 13.003906 2.820312 C 12.144531 2.460938 11.601562 1.585938 11.65625 0.652344 C 11.671875 0.355469 11.457031 0.101562 11.164062 0.0664062 C 10.417969 -0.0195312 9.664062 -0.0234375 8.914062 0.0625 C 8.625 0.09375 8.410156 0.34375 8.417969 0.632812 C 8.453125 1.558594 7.902344 2.417969 7.050781 2.765625 C 6.230469 3.101562 5.167969 2.855469 4.574219 2.203125 C 4.378906 1.988281 4.046875 1.960938 3.820312 2.140625 C 3.21875 2.609375 2.675781 3.148438 2.203125 3.738281 C 2.015625 3.96875 2.042969 4.300781 2.261719 4.5 C 2.957031 5.128906 3.183594 6.132812 2.820312 6.992188 C 2.476562 7.816406 1.621094 8.34375 0.644531 8.34375 C 0.328125 8.335938 0.101562 8.546875 0.0664062 8.835938 C -0.0195312 9.585938 -0.0234375 10.351562 0.0625 11.109375 C 0.09375 11.394531 0.433594 11.601562 0.71875 11.601562 C 1.589844 11.582031 2.425781 12.121094 2.777344 12.972656 C 3.125 13.824219 2.902344 14.820312 2.21875 15.445312 C 2.003906 15.640625 1.976562 15.96875 2.15625 16.199219 C 2.621094 16.789062 3.152344 17.328125 3.738281 17.800781 C 3.96875 17.984375 4.300781 17.957031 4.5 17.738281 C 5.097656 17.078125 6.167969 16.832031 6.992188 17.179688 C 7.855469 17.539062 8.398438 18.410156 8.34375 19.347656 C 8.328125 19.644531 8.542969 19.898438 8.835938 19.933594 C 9.21875 19.976562 9.601562 20 9.988281 20 C 10.355469 20 10.71875 19.980469 11.085938 19.9375 C 11.375 19.90625 11.589844 19.65625 11.582031 19.367188 C 11.546875 18.441406 12.097656 17.582031 12.949219 17.234375 C 13.773438 16.898438 14.832031 17.144531 15.425781 17.796875 C 15.625 18.011719 15.949219 18.039062 16.179688 17.859375 C 16.777344 17.390625 17.324219 16.851562 17.796875 16.261719 C 17.984375 16.03125 17.957031 15.699219 17.738281 15.5 C 17.042969 14.871094 16.816406 13.867188 17.179688 13.007812 C 17.519531 12.195312 18.339844 11.652344 19.222656 11.652344 L 19.347656 11.652344 C 19.632812 11.675781 19.898438 11.457031 19.933594 11.164062 C 20.019531 10.410156 20.023438 9.648438 19.9375 8.890625 Z M 10.015625 13.355469 C 8.175781 13.355469 6.679688 11.859375 6.679688 10.019531 C 6.679688 8.183594 8.175781 6.6875 10.015625 6.6875 C 11.855469 6.6875 13.351562 8.183594 13.351562 10.019531 C 13.351562 11.859375 11.855469 13.355469 10.015625 13.355469 Z M 10.015625 13.355469 "/>
</g>
</svg>
