<?xml version="1.0" standalone="no"?>
<!DOCTYPE svg PUBLIC "-//W3C//DTD SVG 1.1//EN" "http://www.w3.org/Graphics/SVG/1.1/DTD/svg11.dtd" >
<svg xmlns="http://www.w3.org/2000/svg" xmlns:xlink="http://www.w3.org/1999/xlink" version="1.1">
<metadata>
Created by FontForge 20161003 at Mon Oct 29 13:45:33 2018
 By www-data
Copyright (c) 2012 by TypeTogether. All rights reserved.
</metadata>
<defs>
<font id="BreeSerif-Italic" horiz-adv-x="535" >
  <font-face 
    font-family="Bree Serif"
    font-weight="400"
    font-style="italic"
    font-stretch="normal"
    units-per-em="1000"
    panose-1="2 0 5 3 4 0 0 2 0 4"
    ascent="750"
    descent="-250"
    x-height="504"
    cap-height="665"
    bbox="-172 -286 1057 1116"
    underline-thickness="50"
    underline-position="-100"
    slope="-10"
    stemh="64"
    stemv="118"
    unicode-range="U+000D-FB04"
  />
<missing-glyph horiz-adv-x="500" 
 />
    <glyph glyph-name="ff" unicode="ff" horiz-adv-x="690" 
d="M337 -118c39 0 60 17 71 76l83 462h-211l-86 -475c-16 -87 -35 -174 -175 -174c-43 0 -90 12 -118 31l39 85c21 -11 41 -17 65 -17c39 0 60 16 71 76l85 474h-67l15 84h67l5 31c13 88 52 178 191 178c35 0 80 -9 120 -32l-32 -74c-20 11 -49 18 -76 18
c-51 0 -76 -31 -84 -88l-6 -33h212l6 37c16 87 55 169 167 180c13 3 29 2 45 2c43 -3 86 -13 115 -32l-39 -78c-25 15 -56 22 -83 22c-49 0 -74 -30 -85 -86l-8 -45h138l-14 -84h-138l-83 -463c-16 -86 -35 -174 -174 -174c-43 0 -89 12 -116 31l38 84c21 -9 39 -16 62 -16z
" />
    <glyph glyph-name="fi" unicode="fi" horiz-adv-x="599" 
d="M5 -130c39 0 60 16 71 76l85 474h-67l15 84h67l7 41c21 128 94 178 219 178c72 0 150 -29 181 -52l-40 -75c-27 15 -81 39 -137 39c-64 0 -93 -30 -104 -86l-8 -45h307l-72 -409c-3 -19 1 -23 20 -22l38 1l-13 -75c-21 -7 -59 -11 -83 -11c-76 0 -93 41 -80 109l53 294
c4 19 -3 29 -22 29h-162l-86 -475c-16 -87 -35 -174 -175 -174c-43 0 -90 12 -118 31l39 85c21 -11 41 -17 65 -17z" />
    <glyph glyph-name="fl" unicode="fl" horiz-adv-x="602" 
d="M604 713h37l-109 -618c-3 -19 2 -23 19 -22l39 1l-13 -75c-23 -7 -59 -11 -83 -11c-76 0 -93 41 -81 109l88 495c0 3 1 6 1 9c-24 15 -58 34 -115 34c-49 0 -74 -30 -85 -86l-8 -45h125l-14 -84h-125l-86 -475c-16 -87 -35 -174 -175 -174c-43 0 -90 12 -118 31l39 85
c21 -11 41 -17 65 -17c39 0 60 16 71 76l85 474h-67l15 84h67l7 41c13 88 55 165 166 176c13 3 29 2 45 2c57 -3 107 -21 140 -40z" />
    <glyph glyph-name="ffi" unicode="ffi" horiz-adv-x="916" 
d="M322 -130c39 0 60 16 71 76l85 474h-198l-86 -475c-16 -87 -35 -174 -175 -174c-43 0 -90 12 -118 31l39 85c21 -11 41 -17 65 -17c39 0 60 16 71 76l85 474h-67l15 84h67l5 31c13 88 52 178 191 178c35 0 80 -9 120 -32l-32 -74c-20 11 -49 18 -76 18
c-51 0 -76 -31 -84 -88l-6 -33h199l7 41c21 128 94 178 219 178c72 0 150 -29 181 -52l-40 -75c-27 15 -81 39 -137 39c-64 0 -93 -30 -104 -86l-8 -45h307l-72 -409c-3 -19 1 -23 20 -22l38 1l-13 -75c-21 -7 -59 -11 -83 -11c-76 0 -93 41 -80 109l53 294
c4 19 -3 29 -22 29h-162l-86 -475c-16 -87 -35 -174 -175 -174c-43 0 -90 12 -118 31l39 85c21 -11 41 -17 65 -17z" />
    <glyph glyph-name="ffl" unicode="ffl" horiz-adv-x="919" 
d="M921 713h37l-109 -618c-3 -19 2 -23 19 -22l39 1l-13 -75c-23 -7 -59 -11 -83 -11c-76 0 -93 41 -81 109l88 495c0 3 1 6 1 9c-24 15 -58 34 -115 34c-49 0 -74 -30 -85 -86l-8 -45h125l-14 -84h-125l-86 -475c-16 -87 -35 -174 -175 -174c-43 0 -90 12 -118 31l39 85
c21 -11 41 -17 65 -17c39 0 60 16 71 76l85 474h-198l-86 -475c-16 -87 -35 -174 -175 -174c-43 0 -90 12 -118 31l39 85c21 -11 41 -17 65 -17c39 0 60 16 71 76l85 474h-67l15 84h67l5 31c13 88 52 178 191 178c35 0 80 -9 120 -32l-32 -74c-20 11 -49 18 -76 18
c-51 0 -76 -31 -84 -88l-6 -33h199l7 41c13 88 55 165 166 176c13 3 29 2 45 2c57 -3 107 -21 140 -40z" />
    <glyph glyph-name="t_t" unicode="tt" horiz-adv-x="705" 
d="M92 417l25 78c70 11 99 54 134 123h65l-21 -114h182c47 19 72 57 100 114h65l-21 -114h131l-22 -87h-124l-45 -261c-12 -63 4 -77 44 -77c31 0 59 12 78 21l14 -81c-32 -19 -77 -33 -132 -33c-147 0 -139 95 -126 164l48 267h-207l-45 -261c-12 -63 4 -77 44 -77
c31 0 56 12 75 21l15 -81c-32 -19 -75 -33 -130 -33c-147 0 -139 95 -126 164l48 267h-69z" />
    <glyph glyph-name=".notdef" horiz-adv-x="500" 
 />
    <glyph glyph-name=".null" horiz-adv-x="0" 
 />
    <glyph glyph-name=".null" horiz-adv-x="0" 
 />
    <glyph glyph-name="CR" unicode="&#xd;" horiz-adv-x="220" 
 />
    <glyph glyph-name="space" unicode=" " horiz-adv-x="203" 
 />
    <glyph glyph-name="thinspace" unicode="&#x2009;" horiz-adv-x="125" 
 />
    <glyph glyph-name="quotesingle" unicode="'" horiz-adv-x="206" 
d="M173 665h93l-49 -230h-74z" />
    <glyph glyph-name="quotedbl" unicode="&#x22;" horiz-adv-x="349" 
d="M173 665h93l-49 -230h-74zM316 665h94l-50 -230h-74z" />
    <glyph glyph-name="numbersign" unicode="#" horiz-adv-x="534" 
d="M291 0l41 157h-110l-41 -157h-73l41 157h-101l12 67h106l42 155h-102l11 66h108l42 160h73l-43 -160h110l43 160h73l-43 -160h101l-11 -66h-107l-41 -155h101l-12 -67h-106l-41 -157h-73zM281 379l-42 -155h111l41 155h-110z" />
    <glyph glyph-name="ampersand" unicode="&#x26;" horiz-adv-x="729" 
d="M454 339l-36 -80c-48 15 -89 33 -124 65c-52 -31 -88 -66 -88 -130c0 -72 51 -117 147 -117c93 0 180 51 180 153c0 28 -9 58 -28 89l26 63c59 -3 154 11 221 35l13 -91c-21 -12 -72 -19 -116 -19c-11 0 -20 0 -29 1c15 -27 23 -57 23 -88c0 -122 -98 -234 -301 -234
c-165 0 -252 78 -252 195c0 106 65 170 152 215c-8 19 -16 43 -16 70c0 115 67 211 246 211c88 0 140 -17 184 -42l-24 -138l-98 -9l9 55c3 16 3 22 -8 29c-13 8 -38 12 -66 12c-77 0 -131 -39 -131 -119c0 -61 33 -97 116 -126z" />
    <glyph glyph-name="asterisk" unicode="*" horiz-adv-x="423" 
d="M134 578l11 42c12 44 47 48 76 27l78 -59l-7 153l37 10c47 12 64 -17 49 -56l-46 -108l145 79l15 -29c19 -37 5 -65 -34 -69l-122 -9l107 -97l-27 -30c-27 -29 -59 -30 -74 10l-37 99l-84 -131l-39 17c-31 15 -32 44 3 68l97 67z" />
    <glyph glyph-name="comma" unicode="," horiz-adv-x="242" 
d="M199 -16l-86 -142l-61 25l46 121c8 23 -2 27 -27 27h-24l26 92c129 40 176 -41 126 -123z" />
    <glyph glyph-name="hyphen" unicode="-" horiz-adv-x="319" 
d="M69 242l17 92h262l-17 -92h-262z" />
    <glyph glyph-name="period" unicode="." horiz-adv-x="231" 
d="M53 44c0 47 35 81 84 81c40 0 62 -22 62 -55c0 -45 -33 -83 -84 -83c-41 0 -62 22 -62 57z" />
    <glyph glyph-name="colon" unicode=":" horiz-adv-x="247" 
d="M131 421c0 47 35 81 84 81c40 0 62 -22 62 -55c0 -45 -33 -83 -84 -83c-41 0 -62 22 -62 57zM60 44c0 47 35 81 84 81c40 0 62 -22 62 -55c0 -45 -33 -83 -84 -83c-41 0 -62 22 -62 57z" />
    <glyph glyph-name="semicolon" unicode=";" horiz-adv-x="250" 
d="M206 -16l-86 -142l-61 25l46 121c8 23 -2 27 -27 27h-24l26 92c129 40 176 -41 126 -123zM130 421c0 47 35 81 84 81c40 0 62 -22 62 -55c0 -45 -33 -83 -84 -83c-41 0 -62 22 -62 57z" />
    <glyph glyph-name="question" unicode="?" horiz-adv-x="428" 
d="M372 530c0 39 -25 55 -64 55c-17 0 -36 -1 -51 -5c-12 -3 -14 -11 -17 -26l-9 -48l-98 -7l25 141c43 20 109 37 173 37c115 0 158 -61 158 -129c0 -72 -28 -126 -137 -195c-66 -42 -80 -56 -91 -123l-9 -51h-92l8 75c8 79 30 109 107 157c58 37 97 55 97 119zM118 42
c0 41 36 76 80 76c39 0 59 -23 59 -55c0 -39 -33 -77 -80 -77c-39 0 -59 24 -59 56z" />
    <glyph glyph-name="exclam" unicode="!" horiz-adv-x="277" 
d="M173 512l21 118c4 27 22 47 63 47c44 0 53 -21 48 -48l-21 -117l-79 -336h-71zM76 41c0 41 36 76 80 76c39 0 60 -23 60 -54c0 -40 -33 -78 -81 -78c-39 0 -59 25 -59 56z" />
    <glyph glyph-name="exclamdown" unicode="&#xa1;" horiz-adv-x="275" 
d="M194 -11l-21 -118c-4 -27 -22 -47 -63 -47c-44 0 -53 21 -48 48l21 117l79 336h71zM291 460c0 -41 -36 -76 -80 -76c-39 0 -60 23 -60 54c0 40 33 78 81 78c39 0 59 -25 59 -56z" />
    <glyph glyph-name="questiondown" unicode="&#xbf;" horiz-adv-x="428" 
d="M154 -29c0 -39 25 -55 64 -55c17 0 36 1 51 5c12 3 14 11 17 26l9 48l98 7l-25 -141c-43 -20 -109 -37 -173 -37c-115 0 -158 61 -158 129c0 72 28 126 137 195c66 42 80 56 91 123l9 51h92l-8 -75c-8 -79 -30 -109 -107 -157c-58 -37 -97 -55 -97 -119zM408 459
c0 -41 -36 -76 -80 -76c-39 0 -59 23 -59 55c0 39 33 77 80 77c39 0 59 -24 59 -56z" />
    <glyph glyph-name="at" unicode="@" horiz-adv-x="952" 
d="M854 341c0 135 -78 229 -254 229c-261 0 -411 -195 -411 -419c0 -164 79 -269 252 -269c53 0 110 9 163 32l14 -73c-55 -23 -122 -34 -194 -34c-236 0 -328 152 -328 331c0 283 184 510 511 510c209 0 336 -109 336 -307c0 -219 -123 -341 -307 -341h-57l2 54
c-1 0 -1 1 -4 1c-25 -31 -56 -58 -121 -58c-99 0 -140 69 -140 157c0 142 62 286 252 286c48 0 107 -9 159 -32l-59 -336c100 8 186 80 186 269zM584 158l35 199c-11 7 -33 11 -57 11c-106 0 -146 -110 -146 -204c0 -52 16 -94 69 -94c67 0 91 51 99 88z" />
    <glyph glyph-name="A" unicode="A" horiz-adv-x="669" 
d="M494 81l-19 108h-226l-55 -107l51 -3l-14 -79h-221l13 75l29 4c19 3 24 7 35 27l245 474l-52 6l14 79h221l103 -571c3 -17 6 -22 26 -21l38 1l-13 -74c-20 -7 -52 -11 -76 -11c-71 0 -91 32 -99 92zM426 556l-142 -283h186l-42 283h-2z" />
    <glyph glyph-name="B" unicode="B" horiz-adv-x="618" 
d="M166 665h278c96 0 193 -30 193 -142c0 -87 -58 -141 -134 -164c69 -13 113 -65 113 -141c0 -137 -102 -218 -294 -218h-275l13 75l31 3c19 3 25 7 30 30l83 474l-52 4zM277 306l-38 -218h93c121 0 154 64 154 129c0 59 -40 89 -112 89h-97zM326 581l-34 -192h74
c101 0 143 51 143 118c0 59 -40 74 -103 74h-80z" />
    <glyph glyph-name="C" unicode="C" horiz-adv-x="617" 
d="M540 571c-17 5 -43 8 -66 8c-157 0 -249 -111 -249 -310c0 -108 44 -184 160 -184c21 0 57 4 76 11c17 5 20 10 23 29l12 59l97 5l-28 -162c-55 -27 -129 -39 -193 -39c-179 0 -275 99 -275 279c0 299 197 410 381 410c64 0 138 -12 189 -39l-28 -160l-98 -7l12 73
c3 19 2 22 -13 27z" />
    <glyph glyph-name="D" unicode="D" horiz-adv-x="684" 
d="M47 0l13 75l31 3c19 3 26 7 30 30l83 474l-52 4l14 79h252c180 0 284 -89 284 -256c0 -300 -185 -409 -379 -409h-276zM325 576l-86 -486h85c160 0 252 122 252 305c0 114 -42 181 -168 181h-83z" />
    <glyph glyph-name="E" unicode="E" horiz-adv-x="559" 
d="M47 0l13 75l31 3c21 3 27 11 31 35l82 469l-52 4l14 79h454l-27 -154l-98 -5l8 46c3 19 -1 24 -21 24h-157l-34 -190h240l-16 -92h-240l-36 -205h166c19 0 23 4 28 24l10 46l98 3l-29 -162h-465z" />
    <glyph glyph-name="F" unicode="F" horiz-adv-x="551" 
d="M47 0l13 75l30 3c21 3 27 8 31 31l83 473l-52 4l14 79h463l-27 -160l-98 -6l7 49c4 19 0 28 -21 28h-165l-37 -207h234l-16 -93h-234l-34 -193l97 -4l-14 -79h-274z" />
    <glyph glyph-name="G" unicode="G" horiz-adv-x="661" 
d="M372 84c39 0 81 10 108 23l29 160l-65 4l13 78h234l-13 -75l-32 -4c-19 -3 -23 -8 -26 -28l-35 -198c-61 -39 -151 -56 -226 -56c-169 0 -263 95 -263 270c0 301 187 419 390 419c79 0 159 -17 200 -40l-28 -159l-98 -7l13 71c3 17 2 23 -13 28c-19 5 -53 9 -81 9
c-176 0 -255 -131 -255 -322c0 -108 48 -173 148 -173z" />
    <glyph glyph-name="H" unicode="H" horiz-adv-x="726" 
d="M121 109l83 473l-52 4l14 79h230l-13 -76l-30 -3c-19 -3 -28 -7 -32 -30l-29 -167h281l34 193l-50 4l14 79h227l-13 -76l-30 -3c-19 -3 -27 -7 -31 -31l-83 -473l51 -3l-14 -79h-229l13 76l31 3c20 3 27 8 31 31l32 185h-281l-37 -213l51 -3l-14 -79h-228l13 75l31 3
c19 3 26 7 30 31z" />
    <glyph glyph-name="I" unicode="I" horiz-adv-x="321" 
d="M121 111l82 471l-52 4l14 79h230l-13 -76l-31 -3c-19 -3 -26 -6 -30 -29l-84 -475l53 -3l-14 -79h-231l13 75l30 3c23 3 29 8 33 33z" />
    <glyph glyph-name="J" unicode="J" horiz-adv-x="498" 
d="M508 559l-57 -320c-5 -31 -14 -78 -23 -111c-27 -94 -78 -140 -200 -140c-75 0 -151 21 -180 40l28 159l98 8l-13 -78c-3 -17 -2 -23 11 -27c12 -4 34 -8 53 -8c65 0 84 35 94 93l71 407l-72 5l14 78h250l-14 -76l-30 -3c-19 -3 -26 -7 -30 -27z" />
    <glyph glyph-name="K" unicode="K" horiz-adv-x="652" 
d="M274 0h-227l13 75l34 4c19 3 24 13 27 30l83 473l-53 4l13 79h226l-13 -76l-29 -3c-16 -1 -25 -10 -28 -27l-40 -217l261 239v3l-48 3l14 78h217l-13 -75l-27 -3c-19 -3 -29 -12 -46 -28l-175 -169l117 -287c7 -19 12 -26 31 -26h21c5 0 11 0 18 1l-12 -78
c-19 -7 -52 -11 -80 -11c-61 0 -78 26 -97 77l-96 244l-106 -94l-23 -134l52 -3z" />
    <glyph glyph-name="L" unicode="L" horiz-adv-x="549" 
d="M122 107l83 475l-53 4l14 79h234l-13 -75l-33 -4c-20 -3 -27 -5 -32 -32l-82 -465h160c23 0 28 7 32 27l13 59l97 4l-31 -179h-464l13 75l31 3c19 3 27 6 31 29z" />
    <glyph glyph-name="M" unicode="M" horiz-adv-x="864" 
d="M189 665h197l82 -451h2l248 451h203l-13 -76l-32 -3c-20 -1 -27 -11 -30 -32l-55 -472l53 -3l-14 -79h-220l13 75l32 3c20 3 26 10 29 37l48 375h-2l-237 -415h-94l-84 411h-2l-94 -404l50 -3l-14 -79h-218l13 75l30 3c19 3 26 10 33 35l114 469l-52 4z" />
    <glyph glyph-name="N" unicode="N" horiz-adv-x="723" 
d="M729 556l-99 -556h-116l-209 483h-2l-70 -401l54 -3l-14 -79h-226l13 75l32 3c19 3 26 7 30 28l83 476l-52 4l14 79h176l204 -479h2l70 396l-55 4l14 79h225l-13 -76l-31 -3c-19 -3 -25 -3 -30 -30z" />
    <glyph glyph-name="O" unicode="O" horiz-adv-x="670" 
d="M691 417c0 -230 -114 -429 -351 -429c-156 0 -245 86 -245 261c0 257 149 428 357 428c133 0 239 -73 239 -260zM439 575c-167 0 -218 -193 -218 -329c0 -88 38 -156 136 -156c107 0 208 102 208 329c0 76 -31 156 -126 156z" />
    <glyph glyph-name="P" unicode="P" horiz-adv-x="602" 
d="M47 0l13 75l32 4c19 3 25 7 29 30l83 473l-52 4l14 79h258c145 0 226 -61 226 -184c0 -159 -116 -248 -300 -248h-85l-27 -150l95 -4l-14 -79h-272zM280 322h67c103 0 175 42 175 158c0 82 -56 96 -136 96h-61z" />
    <glyph glyph-name="Q" unicode="Q" horiz-adv-x="659" 
d="M164 -14l24 99c200 16 359 144 359 341c0 99 -37 149 -137 149c-120 0 -183 -91 -183 -204c0 -84 43 -133 135 -144l-29 -78c-131 3 -224 81 -224 212c0 149 96 316 317 316c145 0 246 -76 246 -240c0 -203 -148 -364 -358 -399v-5c35 -15 90 -28 150 -28
c56 -1 114 7 174 24l-17 -106c-47 -16 -99 -20 -140 -20c-140 0 -261 48 -317 83z" />
    <glyph glyph-name="R" unicode="R" horiz-adv-x="652" 
d="M47 0l13 75l32 4c19 3 25 7 29 31l82 472l-52 4l14 79h261c125 0 218 -44 218 -161c0 -118 -77 -176 -173 -197c35 -11 49 -34 64 -73l54 -133c7 -17 13 -24 30 -24h22c5 0 11 0 18 1l-12 -78c-20 -7 -51 -11 -79 -11c-59 0 -76 26 -95 77l-52 138c-17 45 -34 58 -79 58
h-73l-32 -180l53 -3l-14 -79h-229zM284 347h84c89 0 149 51 149 146c0 68 -49 83 -125 83h-67z" />
    <glyph glyph-name="S" unicode="S" horiz-adv-x="545" 
d="M268 85c66 0 139 20 139 108c0 57 -54 72 -115 99c-71 29 -153 63 -153 175c0 133 107 210 263 210c72 0 144 -16 189 -39l-27 -156l-98 -8l11 66c3 17 2 25 -13 30c-13 4 -41 10 -74 10c-51 0 -120 -15 -120 -91c0 -54 38 -70 110 -99c84 -35 160 -68 160 -179
c0 -139 -97 -223 -281 -223c-68 0 -147 13 -198 36l28 160l100 8l-11 -68c-3 -17 -3 -25 12 -30c17 -5 45 -9 78 -9z" />
    <glyph glyph-name="T" unicode="T" horiz-adv-x="599" 
d="M257 110l82 466h-86c-21 0 -26 -9 -29 -26l-11 -54l-99 -5l30 174h547l-29 -167l-98 -6l10 57c3 17 1 27 -20 27h-94l-86 -494l71 -3l-14 -79h-267l13 75l46 4c23 3 29 8 34 31z" />
    <glyph glyph-name="U" unicode="U" horiz-adv-x="692" 
d="M693 557l-63 -362c-24 -138 -113 -207 -268 -207c-162 0 -260 66 -228 237l63 357l-52 4l14 79h230l-13 -76l-32 -3c-19 -3 -26 -6 -30 -30l-61 -345c-16 -100 31 -131 114 -131s135 41 150 126l66 377l-49 3l14 79h219l-13 -76l-29 -3c-19 -3 -28 -6 -32 -29z" />
    <glyph glyph-name="V" unicode="V" horiz-adv-x="633" 
d="M288 547l57 -419h2l221 455l-50 3l14 79h213l-13 -76l-22 -2c-19 -1 -28 -9 -39 -32l-280 -555h-139l-92 582l-50 4l14 79h237l-14 -76l-29 -3c-25 -3 -33 -12 -30 -39z" />
    <glyph glyph-name="W" unicode="W" horiz-adv-x="883" 
d="M914 554l-223 -554h-136l-30 451h-3l-188 -451h-139l-31 582l-49 4l14 79h228l-13 -76l-29 -2c-20 -3 -33 -13 -32 -37l13 -398h2l190 460h129l28 -454h2l165 424l-51 4l14 79h214l-13 -76l-22 -2c-19 -1 -29 -8 -40 -33z" />
    <glyph glyph-name="X" unicode="X" horiz-adv-x="631" 
d="M441 104l-82 165h-2l-156 -188l47 -4l-13 -77h-223l13 75l21 2c15 3 26 7 41 26l217 249l-121 230l-45 5l14 78h232l-13 -75l-27 -2c-23 -3 -22 -12 -15 -28l67 -135l2 1l129 157l-42 4l14 78h210l-13 -76l-20 -2c-20 -3 -25 -7 -44 -28l-180 -211l139 -266l44 -3
l-14 -79h-241l13 76l37 3c12 1 19 10 11 25z" />
    <glyph glyph-name="Y" unicode="Y" horiz-adv-x="567" 
d="M243 109l25 142l-121 332l-44 3l14 79h232l-13 -76l-31 -2c-19 -1 -25 -11 -18 -30l64 -202h2l156 228l-46 4l14 78h204l-13 -76l-22 -2c-19 -3 -28 -11 -43 -32l-213 -302l-30 -171l64 -3l-14 -79h-254l13 75l41 3c20 3 29 7 33 31z" />
    <glyph glyph-name="Z" unicode="Z" horiz-adv-x="554" 
d="M45 0l16 86l396 492h-190c-24 0 -30 -10 -34 -31l-11 -55l-96 -5l31 178h456l-16 -86l-395 -492h204c23 0 29 6 33 29l12 58l96 4l-31 -178h-471z" />
    <glyph glyph-name="a" unicode="a" horiz-adv-x="565" 
d="M564 481l-67 -389c-3 -16 0 -21 19 -21c3 0 13 0 21 1c5 0 10 0 16 1l-13 -74c-19 -7 -53 -11 -74 -11c-59 0 -78 33 -73 72h-3c-27 -43 -79 -74 -147 -74c-117 0 -163 76 -163 180c0 202 99 351 310 351c43 0 107 -8 174 -36zM278 73c53 0 103 36 118 117l39 226
c-19 8 -39 13 -66 13c-127 0 -166 -141 -166 -256c0 -52 13 -100 75 -100z" />
    <glyph glyph-name="b" unicode="b" horiz-adv-x="561" 
d="M323 713l-44 -254h1c33 41 84 58 135 58c99 0 152 -65 152 -192c0 -207 -96 -339 -292 -339c-66 0 -154 20 -190 43l102 577c4 21 -3 28 -20 29l-32 3l14 75h174zM258 338l-44 -245c19 -11 43 -18 76 -18c117 0 153 137 153 239c0 72 -20 115 -81 115
c-52 0 -93 -27 -104 -91z" />
    <glyph glyph-name="c" unicode="c" horiz-adv-x="482" 
d="M359 423c-92 0 -155 -77 -155 -224c0 -67 27 -116 98 -116c37 0 78 14 123 43l33 -83c-43 -31 -108 -57 -184 -57c-127 0 -194 74 -194 199c0 248 149 332 291 332c60 0 112 -14 147 -39l-23 -136l-94 -6l9 53c3 17 1 24 -12 29c-11 4 -26 5 -39 5z" />
    <glyph glyph-name="d" unicode="d" horiz-adv-x="567" 
d="M606 713l-109 -622c-3 -16 1 -21 20 -21l36 2l-13 -74c-19 -7 -54 -11 -75 -11c-59 0 -77 32 -72 73h-3c-31 -43 -80 -74 -152 -74c-112 0 -158 76 -158 180c0 202 101 351 295 351c21 0 54 -2 78 -9l17 98c4 21 -3 26 -20 29l-34 3l14 75h176zM277 75
c56 0 106 41 122 129l37 212c-19 9 -42 13 -67 13c-124 0 -166 -149 -166 -258c0 -50 13 -96 74 -96z" />
    <glyph glyph-name="e" unicode="e" horiz-adv-x="495" 
d="M379 517c88 0 142 -39 142 -128c0 -149 -127 -196 -322 -188c-5 -64 14 -122 99 -122c63 0 107 24 134 41l25 -83c-19 -13 -90 -51 -186 -51c-135 0 -191 83 -191 195c0 184 110 336 299 336zM414 378c0 37 -21 52 -56 52c-77 0 -133 -71 -146 -144c119 -3 202 16 202 92
z" />
    <glyph glyph-name="f" unicode="f" horiz-adv-x="360" 
d="M5 -130c39 0 60 16 71 76l85 474h-67l15 84h67l7 41c16 103 63 178 202 178c49 0 95 -13 124 -32l-39 -78c-25 15 -56 22 -83 22c-49 0 -74 -22 -85 -86l-8 -45h138l-14 -84h-138l-86 -475c-16 -87 -37 -174 -175 -174c-43 0 -90 12 -118 31l39 85c21 -11 41 -17 65 -17z
" />
    <glyph glyph-name="g" unicode="g" horiz-adv-x="544" 
d="M222 -229c-100 0 -150 50 -150 122c0 91 72 133 152 165c-73 8 -140 55 -140 167c0 175 122 292 290 292c60 0 133 -12 185 -36l-65 -371l-20 -105c-33 -156 -109 -234 -252 -234zM396 224l33 193c-21 8 -45 11 -68 11c-116 0 -159 -108 -159 -203c0 -59 17 -105 85 -105
c53 0 97 33 109 104zM182 -87c0 -36 21 -54 60 -54c77 0 103 75 119 160l10 57c-23 -24 -41 -38 -85 -59c-57 -27 -104 -50 -104 -104z" />
    <glyph glyph-name="h" unicode="h" horiz-adv-x="581" 
d="M375 421c-66 0 -107 -46 -123 -139l-50 -282h-118l106 605c4 23 0 26 -19 29l-33 4l14 75h172l-48 -276h1c32 47 78 80 150 80c100 0 150 -55 129 -174l-45 -248c-3 -19 2 -22 19 -22h19c4 0 9 0 14 1l-13 -74c-20 -7 -53 -11 -77 -11c-76 0 -93 40 -82 103l42 226
c11 53 6 103 -58 103z" />
    <glyph glyph-name="i" unicode="i" horiz-adv-x="288" 
d="M174 636c0 44 38 79 86 79c39 0 62 -23 62 -56c0 -47 -39 -81 -87 -81c-39 0 -61 23 -61 58zM119 504h171l-72 -409c-3 -19 0 -22 19 -22h22c5 0 11 0 17 1l-14 -75c-21 -7 -59 -11 -82 -11c-76 0 -94 41 -81 109l54 299c4 23 0 27 -19 30l-29 2z" />
    <glyph glyph-name="j" unicode="j" horiz-adv-x="284" 
d="M293 504l-99 -556c-16 -88 -34 -177 -175 -177c-43 0 -90 12 -118 31l39 85c21 -11 41 -17 65 -17c41 0 60 21 71 81l79 445c4 21 0 27 -19 30l-32 2l13 76h176zM174 636c0 44 38 79 86 79c39 0 62 -23 62 -56c0 -47 -39 -81 -87 -81c-39 0 -61 23 -61 58z" />
    <glyph glyph-name="k" unicode="k" horiz-adv-x="557" 
d="M84 0l106 606c4 23 0 25 -19 28l-32 4l14 75h174l-57 -319h3c41 83 106 123 179 123c84 0 121 -38 121 -113c0 -80 -47 -149 -143 -192l40 -110c7 -17 12 -25 29 -25h24c5 0 11 0 16 1l-13 -78c-19 -7 -50 -11 -81 -11c-56 0 -73 25 -89 78l-39 116
c-19 -5 -53 -9 -84 -10l-31 -173h-118zM450 382c0 28 -13 46 -46 46c-55 0 -118 -53 -161 -180c125 11 207 58 207 134z" />
    <glyph glyph-name="l" unicode="l" horiz-adv-x="290" 
d="M159 713h170l-109 -618c-3 -19 2 -22 19 -22h23c5 0 11 0 16 1l-13 -75c-23 -7 -59 -11 -83 -11c-76 0 -93 41 -81 109l92 509c4 23 -1 25 -20 28l-28 4z" />
    <glyph glyph-name="m" unicode="m" horiz-adv-x="851" 
d="M665 91l41 228c11 59 3 101 -56 101c-63 0 -98 -47 -109 -111l-56 -309h-117l56 318c11 60 4 102 -59 102c-61 0 -96 -52 -108 -120l-54 -300h-117l70 396c4 23 -1 27 -20 30l-31 2l13 76h162l-10 -68h1c36 56 96 81 156 81c64 0 104 -30 117 -86c36 55 89 86 161 86
c101 0 143 -60 123 -173l-44 -251c-3 -13 -1 -21 19 -21h19c5 0 10 0 16 1l-13 -74c-20 -7 -54 -11 -78 -11c-76 0 -93 40 -82 103z" />
    <glyph glyph-name="n" unicode="n" horiz-adv-x="583" 
d="M378 420c-88 0 -113 -67 -124 -138l-51 -282h-117l70 396c4 21 0 26 -19 29l-29 3l14 76h161l-11 -67h1c37 52 83 80 155 80c100 0 151 -55 130 -174l-45 -249c-3 -19 1 -22 20 -22h20c4 0 8 0 13 1l-13 -74c-20 -7 -54 -11 -78 -11c-76 0 -93 40 -82 103l42 227
c11 53 5 102 -57 102z" />
    <glyph glyph-name="o" unicode="o" horiz-adv-x="536" 
d="M279 76c116 0 143 164 143 251c0 64 -22 102 -78 102c-118 0 -143 -161 -143 -252c0 -59 17 -101 78 -101zM80 175c0 181 83 342 280 342c69 0 183 -27 183 -184c0 -180 -79 -347 -279 -347c-119 0 -184 64 -184 189z" />
    <glyph glyph-name="p" unicode="p" horiz-adv-x="563" 
d="M205 15l-42 -232h-118l108 614c1 3 1 6 1 11c0 12 -5 14 -20 17l-31 3l13 76h164l-8 -62c32 43 82 75 150 75c104 0 148 -81 148 -184c0 -204 -92 -347 -261 -347c-41 0 -79 12 -104 29zM372 425c-56 0 -101 -41 -116 -120l-36 -198c17 -12 46 -29 81 -29
c104 0 145 120 145 237c0 47 -6 110 -74 110z" />
    <glyph glyph-name="q" unicode="q" horiz-adv-x="553" 
d="M565 481l-106 -606c-3 -16 0 -21 19 -21c3 0 10 0 19 1c5 0 10 0 17 1l-12 -74c-19 -7 -52 -11 -75 -11c-61 0 -84 36 -75 88l36 202c-37 -49 -77 -75 -145 -75c-117 0 -163 76 -163 180c0 202 99 351 310 351c43 0 108 -8 175 -36zM278 75c48 0 105 34 121 135l36 206
c-19 8 -39 13 -66 13c-124 0 -166 -149 -166 -261c0 -47 13 -93 75 -93z" />
    <glyph glyph-name="r" unicode="r" horiz-adv-x="465" 
d="M364 416c-55 0 -94 -45 -109 -122l-52 -294h-118l70 398c4 20 0 24 -17 27l-34 3l14 76h161l-11 -75h1c28 47 77 88 157 88c29 0 64 -4 89 -19l-29 -165l-101 -7l11 59c3 15 1 24 -4 27c-6 3 -15 4 -28 4z" />
    <glyph glyph-name="s" unicode="s" horiz-adv-x="455" 
d="M373 428c-12 4 -33 7 -54 7c-48 0 -91 -18 -91 -65c0 -40 40 -53 85 -69c70 -27 134 -48 134 -140c0 -108 -76 -175 -219 -175c-65 0 -140 17 -174 35l22 126l92 8l-8 -51c-3 -15 0 -20 12 -25c11 -5 33 -9 60 -9c51 0 93 20 93 72c0 42 -39 50 -82 66
c-61 21 -132 47 -132 146c0 104 79 163 218 163c56 0 120 -11 159 -34l-22 -118l-90 -8l8 44c3 17 1 22 -11 27z" />
    <glyph glyph-name="t" unicode="t" horiz-adv-x="379" 
d="M92 417l25 78c70 11 99 54 134 123h65l-21 -114h131l-22 -87h-124l-45 -261c-11 -63 4 -77 44 -77c31 0 59 12 78 21l14 -81c-32 -19 -77 -33 -132 -33c-147 0 -139 95 -126 164l48 267h-69z" />
    <glyph glyph-name="u" unicode="u" horiz-adv-x="573" 
d="M576 504l-73 -410c-3 -17 1 -21 20 -21c5 0 14 0 22 1c5 0 9 0 14 1l-13 -76c-19 -7 -53 -12 -74 -12c-49 0 -81 19 -77 78h-3c-35 -55 -91 -79 -151 -79c-111 0 -151 70 -132 177l41 234c4 21 -2 26 -19 29l-28 2l13 76h172l-58 -325c-11 -65 -3 -98 56 -98
c44 0 102 26 118 119l53 304h119z" />
    <glyph glyph-name="v" unicode="v" horiz-adv-x="551" 
d="M427 504h116c3 -29 7 -80 7 -116c0 -264 -93 -402 -288 -402c-125 0 -172 69 -151 188l40 232c3 19 -2 22 -19 22c-7 0 -14 -1 -21 -1h-12l13 74c21 7 54 11 78 11c75 0 91 -43 79 -108l-37 -220c-8 -52 -15 -102 51 -102c105 0 149 137 149 300c0 43 -2 93 -5 122z" />
    <glyph glyph-name="w" unicode="w" horiz-adv-x="822" 
d="M696 504h117c3 -31 7 -81 7 -122c0 -233 -83 -396 -270 -396c-79 0 -116 33 -127 84c-47 -63 -109 -84 -172 -84c-117 0 -159 73 -140 183l41 238c3 17 -3 21 -19 21c-4 0 -13 -1 -20 -1h-13l13 74c21 7 54 11 78 11c75 0 91 -43 79 -108l-38 -216
c-8 -55 -16 -106 51 -106c56 0 95 35 106 92l58 330h118l-56 -314c-8 -52 -18 -108 49 -108c96 0 144 132 144 296c0 44 -2 95 -6 126z" />
    <glyph glyph-name="x" unicode="x" horiz-adv-x="540" 
d="M247 262l-77 145c-7 13 -12 17 -29 17c-5 0 -14 -1 -23 -1h-16l11 78c19 5 45 11 72 11c49 0 72 -20 93 -65l59 -124h2l87 102l-46 4l13 75h204l-13 -76l-25 -2c-19 -1 -28 -7 -41 -22l-130 -148l78 -154c11 -16 18 -20 35 -20h24c5 0 11 0 18 1l-12 -78
c-20 -8 -46 -11 -69 -11c-56 0 -78 22 -101 69l-65 131h-1l-97 -117l50 -3l-13 -74h-207l13 73l23 3c20 3 27 6 39 21z" />
    <glyph glyph-name="y" unicode="y" horiz-adv-x="566" 
d="M580 504l-81 -456c-35 -189 -109 -277 -261 -277c-85 0 -154 32 -154 124c0 76 46 122 137 165c-84 13 -120 66 -103 158l34 188c3 15 -3 22 -18 22c-4 0 -12 -1 -20 -1h-14l13 74c20 7 55 11 79 11c76 0 89 -41 78 -108l-31 -176c-11 -64 -6 -102 63 -102
c47 0 98 35 109 95l50 283h119zM195 -89c0 -33 19 -50 58 -50c71 0 105 56 121 147l15 79c-20 -20 -42 -35 -70 -52c-88 -51 -124 -72 -124 -124z" />
    <glyph glyph-name="z" unicode="z" horiz-adv-x="487" 
d="M105 351l26 153h370l17 -70l-322 -349c9 1 17 3 30 3c41 0 65 -14 109 -14c23 0 33 4 38 21l11 53l95 6l-26 -148c-33 -13 -68 -20 -105 -20c-72 0 -132 23 -196 23c-29 0 -58 -7 -81 -12l-11 84l312 340h-136c-19 0 -25 -4 -29 -25l-9 -40z" />
    <glyph glyph-name="bracketleft" unicode="[" horiz-adv-x="309" 
d="M55 -166l155 880h210l-13 -81h-101l-127 -718h101l-15 -81h-210z" />
    <glyph glyph-name="bracketright" unicode="]" horiz-adv-x="309" 
d="M349 714l-155 -880h-210l13 81h101l127 718h-101l15 81h210z" />
    <glyph glyph-name="parenleft" unicode="(" horiz-adv-x="326" 
d="M105 169c0 200 83 380 220 563l91 -48c-126 -184 -192 -331 -192 -513c0 -96 17 -207 48 -303l-99 -43c-45 103 -68 236 -68 344z" />
    <glyph glyph-name="parenright" unicode=")" horiz-adv-x="326" 
d="M313 381c0 -203 -83 -382 -223 -559l-87 51c126 187 193 327 193 512c0 96 -16 206 -47 301l101 38c40 -107 63 -232 63 -343z" />
    <glyph glyph-name="braceleft" unicode="{" horiz-adv-x="324" 
d="M200 281c35 -13 50 -37 50 -80c0 -33 -12 -76 -24 -119c-15 -48 -29 -95 -29 -127c0 -28 10 -46 41 -46c11 0 22 2 41 5l-3 -75c-31 -7 -59 -10 -82 -10c-77 0 -108 44 -108 98c0 31 9 69 20 116c9 36 19 77 28 118c11 51 -4 78 -47 83l14 74c55 7 72 38 83 111l11 87
c3 24 5 47 8 68c12 100 60 135 151 135c23 0 49 -3 76 -11l-23 -73c-15 3 -27 5 -39 5c-43 0 -52 -23 -60 -70c-4 -25 -8 -53 -11 -84s-6 -62 -10 -85c-12 -65 -35 -100 -87 -120z" />
    <glyph glyph-name="braceright" unicode="}" horiz-adv-x="324" 
d="M224 281c-35 15 -49 45 -49 88c0 39 14 92 26 139c11 40 20 74 20 90c0 28 -8 42 -39 42c-13 0 -23 -2 -42 -5l2 75c28 7 59 9 82 9c65 0 107 -32 107 -101c0 -33 -8 -66 -19 -105c-11 -35 -25 -80 -25 -113c0 -52 5 -77 48 -82l-13 -74c-55 -7 -73 -41 -81 -106l-9 -76
c-4 -39 -8 -74 -13 -106c-12 -76 -54 -127 -150 -127c-21 0 -50 3 -75 10l21 75c16 -3 28 -5 39 -5c44 0 54 29 63 76c4 25 8 62 11 98c3 31 6 60 10 83c11 69 31 98 86 115z" />
    <glyph glyph-name="backslash" unicode="\" horiz-adv-x="428" 
d="M139 730l109 25l161 -827l-108 -25z" />
    <glyph glyph-name="slash" unicode="/" horiz-adv-x="432" 
d="M91 -118l-91 46l451 827l95 -45z" />
    <glyph glyph-name="brokenbar" unicode="&#xa6;" horiz-adv-x="275" 
d="M69 -88l66 375h105l-66 -375h-105zM156 404l60 343h105l-60 -343h-105z" />
    <glyph glyph-name="bar" unicode="|" horiz-adv-x="274" 
d="M69 -88l147 835h105l-147 -835h-105z" />
    <glyph glyph-name="asciicircum" unicode="^" horiz-adv-x="553" 
d="M561 302l-99 -16l-83 268l-178 -268l-99 16l253 373h87z" />
    <glyph glyph-name="underscore" unicode="_" horiz-adv-x="500" 
d="M-26 -147l13 73h500l-13 -73h-500z" />
    <glyph glyph-name="asciitilde" unicode="~" horiz-adv-x="621" 
d="M455 218c-85 0 -135 74 -191 74c-31 0 -57 -23 -92 -62l-63 52c49 64 101 106 165 106c80 0 126 -76 193 -76c28 0 55 16 88 61l63 -51c-49 -76 -110 -104 -163 -104z" />
    <glyph glyph-name="uni00A0" unicode="&#xa0;" horiz-adv-x="203" 
 />
    <glyph glyph-name="zero" unicode="0" horiz-adv-x="549" 
d="M382 657c120 0 194 -67 194 -230c0 -243 -77 -437 -296 -437c-125 0 -196 73 -196 226c0 245 91 441 298 441zM292 86c72 0 110 53 134 133c21 72 31 161 31 214c0 92 -36 127 -89 127c-93 0 -136 -87 -157 -233c-7 -44 -10 -75 -10 -114c0 -96 40 -127 91 -127z" />
    <glyph glyph-name="one" unicode="1" horiz-adv-x="441" 
d="M217 111l73 416c-46 -40 -124 -71 -164 -77l-22 87c80 15 162 56 222 107h104l-100 -562l116 -7l-14 -75h-357l13 74l97 6c19 1 27 4 32 31z" />
    <glyph glyph-name="two" unicode="2" horiz-adv-x="503" 
d="M354 657c125 0 184 -61 184 -157c0 -80 -45 -144 -125 -217l-211 -196h293l-15 -87h-440l13 77l258 248c67 67 100 101 100 164c0 53 -30 72 -93 72c-25 0 -48 -4 -63 -8c-16 -5 -18 -12 -21 -29l-10 -56l-97 -7l26 153c51 25 126 43 201 43z" />
    <glyph glyph-name="three" unicode="3" horiz-adv-x="498" 
d="M123 463l26 151c60 27 127 43 199 43c123 0 177 -62 177 -144c0 -80 -48 -133 -125 -173c47 -23 84 -66 84 -131c0 -170 -173 -233 -416 -220l-6 98c135 -5 301 -1 301 123c0 60 -40 83 -111 83h-60l24 83h100c40 21 84 63 84 115c0 47 -28 70 -83 70
c-27 0 -50 -3 -65 -8c-19 -7 -19 -14 -22 -31l-9 -50z" />
    <glyph glyph-name="four" unicode="4" horiz-adv-x="529" 
d="M420 437h71l-32 -181h90l-16 -88h-90l-15 -86l63 -5l-13 -77h-248l13 75l43 4c19 3 27 6 30 30l11 60h-273l16 90l264 401l95 -47l-241 -357h154l11 60z" />
    <glyph glyph-name="five" unicode="5" horiz-adv-x="479" 
d="M122 327l94 317h210c21 0 27 6 31 26l6 33l96 4l-26 -151h-235l-46 -150c117 -8 231 -45 231 -176c0 -178 -156 -254 -420 -243l-5 99c180 -5 303 24 303 141c0 98 -119 100 -239 100z" />
    <glyph glyph-name="six" unicode="6" horiz-adv-x="525" 
d="M512 678l9 -92c-137 -19 -245 -87 -288 -218c45 27 101 43 150 43c93 0 150 -59 150 -160c0 -137 -92 -262 -251 -262c-137 0 -190 89 -190 222c0 180 97 427 420 467zM415 242c0 53 -25 86 -76 86c-40 0 -97 -22 -123 -43c-6 -34 -9 -64 -9 -91c0 -73 23 -116 83 -116
c72 0 125 68 125 164z" />
    <glyph glyph-name="seven" unicode="7" horiz-adv-x="487" 
d="M441 556h-212c-19 0 -22 -4 -26 -25l-10 -48l-97 -5l29 166h456l-13 -78c-183 -197 -250 -349 -327 -581l-122 21c80 244 169 392 322 550z" />
    <glyph glyph-name="eight" unicode="8" horiz-adv-x="504" 
d="M462 378l-70 45c24 23 51 46 51 89c0 40 -29 65 -82 65c-45 0 -102 -15 -102 -87c0 -50 37 -70 86 -100c104 -64 164 -113 164 -193c0 -98 -65 -209 -250 -209c-145 0 -194 73 -194 148c0 107 79 166 160 207c-40 24 -82 65 -82 133c0 101 77 181 230 181
c123 0 177 -64 177 -134c0 -71 -55 -123 -88 -145zM387 185c0 56 -50 87 -92 110c-65 -35 -119 -71 -119 -138c0 -56 37 -82 92 -82c76 0 119 51 119 110z" />
    <glyph glyph-name="nine" unicode="9" horiz-adv-x="526" 
d="M110 -11l-8 100c167 19 274 77 306 185c-43 -27 -100 -43 -151 -43c-105 0 -155 73 -155 173c0 146 96 253 253 253c133 0 191 -87 191 -234c0 -176 -67 -402 -436 -434zM220 412c0 -63 23 -97 78 -97c42 0 100 22 123 43c6 33 9 63 9 90c0 73 -23 121 -86 121
c-69 0 -124 -61 -124 -157z" />
    <glyph glyph-name="dollar" unicode="$" horiz-adv-x="528" 
d="M170 104c15 -4 42 -8 73 -8l35 200c-71 29 -157 58 -157 165c0 104 67 185 222 201l15 85h74l-15 -83c72 -3 117 -18 150 -34l-27 -151l-97 -8l11 63c3 16 2 24 -13 29c-9 3 -23 5 -41 6l-32 -183c80 -37 155 -63 155 -170s-63 -197 -223 -213l-19 -111h-74l19 108
c-89 1 -147 17 -186 34l29 157l100 7l-11 -64c-3 -17 -3 -25 12 -30zM247 484c0 -43 20 -57 52 -70l27 151c-41 -8 -79 -30 -79 -81zM395 194c0 31 -14 51 -49 70l-28 -160c43 11 77 37 77 90z" />
    <glyph glyph-name="Euro" unicode="&#x20ac;" horiz-adv-x="545" 
d="M89 345l15 82h71c43 153 162 230 297 230c63 0 117 -15 154 -38l-24 -135l-98 -8l9 51c3 15 3 21 -9 25c-9 3 -26 6 -51 6c-93 0 -138 -44 -165 -131h209l-14 -82h-394zM65 206l14 82h394l-15 -82h-204c0 -74 27 -120 113 -120c49 0 88 15 131 46l38 -77
c-56 -45 -122 -67 -194 -67c-136 0 -210 69 -206 218h-71z" />
    <glyph glyph-name="cent" unicode="&#xa2;" horiz-adv-x="497" 
d="M433 685l-20 -114c68 -3 106 -18 133 -37l-22 -134l-94 -6l9 53c3 16 2 27 -17 31l-25 3l-60 -339c36 1 75 15 117 44l32 -83c-32 -24 -79 -51 -166 -54l-19 -109h-74l20 113c-104 21 -143 104 -143 198c0 183 98 292 234 316l21 118h74zM227 263c0 -48 13 -82 39 -102
l54 303c-56 -29 -93 -97 -93 -201z" />
    <glyph glyph-name="sterling" unicode="&#xa3;" horiz-adv-x="565" 
d="M563 174l-29 -162c-24 -11 -64 -18 -100 -18c-89 0 -175 31 -253 31c-41 0 -80 -13 -112 -28l-24 86c48 21 103 81 127 167l13 49h-89l24 79h83l14 61c34 154 135 218 250 218c56 0 112 -10 168 -37l-25 -143l-99 -9l11 63c3 16 1 22 -14 26s-30 6 -45 6
c-88 0 -118 -59 -137 -139l-10 -46h165l-24 -78h-160l-10 -38c-19 -73 -37 -113 -99 -159c0 -1 1 -3 1 -4c27 7 47 12 79 12c47 0 114 -21 157 -21c16 0 23 4 27 19l15 59z" />
    <glyph glyph-name="yen" unicode="&#xa5;" horiz-adv-x="546" 
d="M117 296l14 76h111l-73 190l-40 3l14 79h226l-13 -76l-34 -3c-19 -3 -23 -8 -16 -27l51 -147h1l117 171l-42 3l14 79h195l-13 -76l-25 -2c-19 -3 -22 -7 -33 -22l-125 -172h112l-14 -76h-152l-10 -60h152l-14 -81h-152l-13 -73l67 -3l-14 -79h-256l14 75l40 3
c21 3 29 7 33 31l8 46h-154l14 81h154l11 60h-155z" />
    <glyph glyph-name="florin" unicode="&#x192;" horiz-adv-x="547" 
d="M135 295l31 94h109l26 75c40 120 91 193 228 193c55 0 102 -15 135 -36l-51 -77c-24 13 -58 23 -86 23c-55 0 -78 -22 -98 -78l-36 -100h148l-34 -94h-147l-107 -307c-40 -113 -88 -198 -235 -198c-45 0 -96 13 -129 34l46 81c25 -13 60 -25 91 -25c51 0 79 26 98 78
l118 337h-107z" />
    <glyph glyph-name="zero.tf" 
d="M368 657c119 0 192 -67 192 -230c0 -243 -77 -437 -292 -437c-124 0 -194 73 -194 226c0 245 89 441 294 441zM279 86c72 0 109 53 133 133c22 73 30 161 30 214c0 92 -35 127 -87 127c-92 0 -135 -87 -156 -233c-7 -44 -9 -75 -9 -114c0 -96 39 -127 89 -127z" />
    <glyph glyph-name="one.tf" 
d="M251 111l73 416c-46 -40 -124 -71 -164 -77l-22 87c80 15 162 56 222 107h104l-100 -562l116 -7l-14 -75h-357l13 74l97 6c19 1 27 4 32 31z" />
    <glyph glyph-name="two.tf" 
d="M363 657c125 0 184 -61 184 -157c0 -80 -45 -144 -125 -217l-211 -196h293l-15 -87h-440l13 77l258 248c67 67 100 101 100 164c0 53 -30 72 -93 72c-25 0 -48 -4 -63 -8c-16 -5 -18 -12 -21 -29l-10 -56l-97 -7l26 153c51 25 126 43 201 43z" />
    <glyph glyph-name="three.tf" 
d="M129 463l26 151c60 27 127 43 199 43c123 0 177 -62 177 -144c0 -80 -48 -133 -125 -173c47 -23 84 -66 84 -131c0 -170 -173 -233 -416 -220l-6 98c135 -5 301 -1 301 123c0 60 -40 83 -111 83h-60l24 83h100c40 21 84 63 84 115c0 47 -28 70 -83 70
c-27 0 -50 -3 -65 -8c-19 -7 -19 -14 -22 -31l-9 -50z" />
    <glyph glyph-name="four.tf" 
d="M429 437h71l-32 -181h90l-16 -88h-90l-15 -86l63 -5l-13 -77h-248l13 75l43 4c19 3 27 6 30 30l11 60h-273l16 90l264 401l95 -47l-241 -357h154l11 60z" />
    <glyph glyph-name="five.tf" 
d="M150 327l94 317h210c21 0 27 6 31 26l6 33l96 4l-26 -151h-235l-46 -150c117 -8 231 -45 231 -176c0 -178 -156 -254 -420 -243l-5 99c180 -5 303 24 303 141c0 98 -119 100 -239 100z" />
    <glyph glyph-name="six.tf" 
d="M512 678l9 -92c-137 -19 -245 -87 -288 -218c45 27 101 43 150 43c93 0 150 -59 150 -160c0 -137 -92 -262 -251 -262c-137 0 -190 89 -190 222c0 180 97 427 420 467zM415 242c0 53 -25 86 -76 86c-40 0 -97 -22 -123 -43c-6 -34 -9 -64 -9 -91c0 -73 23 -116 83 -116
c72 0 125 68 125 164z" />
    <glyph glyph-name="seven.tf" 
d="M470 556h-212c-19 0 -22 -4 -26 -25l-10 -48l-97 -5l29 166h456l-13 -78c-183 -197 -250 -349 -327 -581l-122 21c80 244 169 392 322 550z" />
    <glyph glyph-name="eight.tf" 
d="M474 378l-70 45c24 23 51 46 51 89c0 40 -29 65 -82 65c-45 0 -102 -15 -102 -87c0 -50 37 -70 86 -100c104 -64 164 -113 164 -193c0 -98 -65 -209 -250 -209c-145 0 -194 73 -194 148c0 107 79 166 160 207c-40 24 -82 65 -82 133c0 101 77 181 230 181
c123 0 177 -64 177 -134c0 -71 -55 -123 -88 -145zM399 185c0 56 -50 87 -92 110c-65 -35 -119 -71 -119 -138c0 -56 37 -82 92 -82c76 0 119 51 119 110z" />
    <glyph glyph-name="nine.tf" 
d="M115 -11l-8 100c167 19 274 77 306 185c-43 -27 -100 -43 -151 -43c-105 0 -155 73 -155 173c0 146 96 253 253 253c133 0 191 -87 191 -234c0 -176 -67 -402 -436 -434zM225 412c0 -63 23 -97 78 -97c42 0 100 22 123 43c6 33 9 63 9 90c0 73 -23 121 -86 121
c-69 0 -124 -61 -124 -157z" />
    <glyph glyph-name="dollar.tf" 
d="M175 104c15 -4 42 -8 73 -8l35 200c-71 29 -157 58 -157 165c0 104 67 185 222 201l15 85h74l-15 -83c72 -3 111 -18 144 -34l-27 -151l-97 -8l11 63c3 16 2 24 -13 29c-9 3 -16 5 -35 6l-32 -183c81 -38 150 -63 150 -170s-58 -197 -218 -213l-19 -111h-74l19 108
c-89 1 -147 17 -186 34l29 157l100 7l-11 -64c-3 -17 -3 -25 12 -30zM252 484c0 -43 20 -57 52 -70l27 151c-41 -8 -79 -30 -79 -81zM395 194c0 31 -9 51 -44 70l-28 -160c43 11 72 37 72 90z" />
    <glyph glyph-name="Euro.tf" 
d="M64 345l15 82h71c43 153 159 230 293 230c63 0 117 -15 154 -38l-24 -135l-98 -8l9 51c3 15 3 21 -9 25c-9 3 -26 6 -51 6c-92 0 -134 -46 -161 -131h209l-14 -82h-394zM40 206l14 82h394l-15 -82h-204c0 -74 27 -120 113 -120c49 0 84 15 127 46l38 -77
c-55 -45 -119 -67 -190 -67c-136 0 -210 69 -206 218h-71z" />
    <glyph glyph-name="cent.tf" 
d="M423 685l-20 -114c68 -3 106 -18 133 -37l-22 -134l-94 -6l9 53c3 16 2 27 -17 31l-25 3l-60 -339c36 1 75 15 117 44l32 -83c-32 -24 -79 -51 -166 -54l-19 -109h-74l20 113c-104 21 -143 104 -143 198c0 183 98 292 234 316l21 118h74zM217 263c0 -48 13 -82 39 -102
l54 303c-56 -29 -93 -97 -93 -201z" />
    <glyph glyph-name="sterling.tf" 
d="M515 174l-29 -162c-24 -11 -64 -18 -100 -18c-89 0 -166 31 -243 31c-41 0 -80 -13 -112 -28l-24 86c48 21 103 81 127 167l13 49h-89l24 79h83l14 61c36 153 124 218 240 218c56 0 112 -10 168 -37l-25 -143l-99 -9l11 63c3 16 1 22 -14 26s-30 6 -45 6
c-88 0 -108 -59 -127 -139l-10 -46h165l-24 -78h-160l-10 -38c-19 -73 -37 -113 -99 -159c0 -1 1 -3 1 -4c27 7 47 12 79 12c48 0 104 -21 147 -21c16 0 23 4 27 19l15 59z" />
    <glyph glyph-name="yen.tf" 
d="M99 296l14 76h111l-73 190l-40 3l14 79h226l-13 -76l-34 -3c-19 -3 -23 -8 -16 -27l51 -147h1l117 171l-42 3l14 79h195l-13 -76l-25 -2c-19 -3 -22 -7 -33 -22l-125 -172h112l-14 -76h-152l-10 -60h152l-14 -81h-152l-13 -73l67 -3l-14 -79h-256l14 75l40 3
c21 3 29 7 33 31l8 46h-154l14 81h154l11 60h-155z" />
    <glyph glyph-name="florin.tf" horiz-adv-x="501" 
d="M74 295l31 94h109l26 75c40 120 91 193 228 193c55 0 102 -15 135 -36l-51 -77c-24 13 -58 23 -86 23c-55 0 -78 -22 -98 -78l-36 -100h148l-34 -94h-147l-107 -307c-40 -113 -88 -198 -235 -198c-45 0 -96 13 -129 34l46 81c25 -13 60 -25 91 -25c51 0 79 26 98 78
l118 337h-107z" />
    <glyph glyph-name="zero.osf" horiz-adv-x="542" 
d="M346 516c135 0 210 -72 210 -205c0 -197 -105 -325 -285 -325c-136 0 -204 84 -204 209c0 204 122 321 279 321zM281 77c79 0 154 47 154 232c0 75 -37 116 -94 116c-109 0 -153 -92 -153 -228c0 -68 28 -120 93 -120z" />
    <glyph glyph-name="one.osf" horiz-adv-x="466" 
d="M229 110l49 279c-41 -28 -99 -51 -152 -62l-24 85c81 15 156 45 219 92h97l-74 -422l115 -5l-14 -77h-357l13 74l96 5c19 1 27 4 32 31z" />
    <glyph glyph-name="two.osf" horiz-adv-x="510" 
d="M328 516c125 0 185 -57 185 -141c0 -95 -48 -143 -144 -202l-138 -82l-1 -1h261l-16 -90h-429l13 77l208 140c61 40 122 77 122 141c0 48 -35 63 -86 63c-24 0 -47 -2 -66 -6s-24 -13 -27 -32l-10 -57l-98 -7l26 158c42 19 128 39 200 39z" />
    <glyph glyph-name="three.osf" horiz-adv-x="480" 
d="M383 218c41 -45 66 -94 66 -146c0 -143 -129 -222 -406 -250l-5 93c163 19 290 54 290 149c0 33 -14 66 -42 97c-35 -13 -85 -28 -118 -35l-14 84c152 35 214 74 214 148c0 40 -22 62 -73 62c-23 0 -48 -4 -64 -9c-17 -5 -20 -13 -23 -30l-10 -56l-98 -6l27 156
c59 24 134 41 198 41c112 0 167 -58 167 -131c0 -65 -29 -115 -109 -167z" />
    <glyph glyph-name="four.osf" horiz-adv-x="518" 
d="M406 294h71l-35 -200h89l-16 -94h-90l-28 -157h-119l28 158h-275l14 76l272 435l91 -47l-234 -371h147l13 65z" />
    <glyph glyph-name="five.osf" horiz-adv-x="469" 
d="M92 179l99 325h204c19 0 25 8 29 27l6 35l97 4l-27 -154h-228l-46 -150c121 -5 224 -43 224 -158c0 -164 -158 -264 -425 -288l-4 92c193 21 303 74 303 176c0 84 -108 93 -177 93c-20 0 -39 -1 -55 -2z" />
    <glyph glyph-name="six.osf" horiz-adv-x="531" 
d="M505 678l9 -92c-137 -19 -245 -87 -288 -218c45 27 101 43 150 43c93 0 150 -59 150 -160c0 -137 -92 -262 -251 -262c-137 0 -190 89 -190 222c0 180 97 427 420 467zM408 242c0 53 -25 86 -76 86c-40 0 -97 -22 -123 -43c-6 -34 -9 -64 -9 -91c0 -73 23 -116 83 -116
c72 0 125 68 125 164z" />
    <glyph glyph-name="seven.osf" horiz-adv-x="497" 
d="M421 416h-211c-19 0 -23 -5 -27 -25l-10 -48l-97 -5l29 166h456l-13 -79c-184 -197 -248 -365 -323 -592l-122 21c77 243 166 405 318 562z" />
    <glyph glyph-name="eight.osf" horiz-adv-x="534" 
d="M471 378l-70 45c24 23 51 46 51 89c0 40 -29 65 -82 65c-45 0 -102 -15 -102 -87c0 -50 37 -70 86 -100c104 -64 164 -113 164 -193c0 -98 -65 -209 -250 -209c-145 0 -194 73 -194 148c0 107 79 166 160 207c-40 24 -82 65 -82 133c0 101 77 181 230 181
c123 0 177 -64 177 -134c0 -71 -55 -123 -88 -145zM396 185c0 56 -50 87 -92 110c-65 -35 -119 -71 -119 -138c0 -56 37 -82 92 -82c76 0 119 51 119 110z" />
    <glyph glyph-name="nine.osf" horiz-adv-x="529" 
d="M93 -152l-8 100c167 19 274 77 306 185c-43 -27 -100 -43 -151 -43c-105 0 -155 73 -155 173c0 146 96 253 253 253c133 0 191 -87 191 -234c0 -176 -67 -402 -436 -434zM203 271c0 -63 23 -97 78 -97c42 0 100 22 123 43c6 33 9 63 9 90c0 73 -23 121 -86 121
c-69 0 -124 -61 -124 -157z" />
    <glyph glyph-name="dollar.osf" horiz-adv-x="541" 
d="M178 104c15 -4 42 -8 73 -8l35 200c-71 29 -157 58 -157 165c0 104 67 185 222 201l15 85h74l-15 -83c72 -3 117 -18 150 -34l-27 -151l-97 -8l11 63c3 16 2 24 -13 29c-9 3 -23 5 -41 6l-32 -183c80 -37 155 -63 155 -170s-63 -197 -223 -213l-19 -111h-74l19 108
c-89 1 -147 17 -186 34l29 157l100 7l-11 -64c-3 -17 -3 -25 12 -30zM255 484c0 -43 20 -57 52 -70l27 151c-41 -8 -79 -30 -79 -81zM403 194c0 31 -14 51 -49 70l-28 -160c43 11 77 37 77 90z" />
    <glyph glyph-name="Euro.osf" horiz-adv-x="551" 
d="M99 345l15 82h71c43 153 162 230 297 230c63 0 117 -15 154 -38l-24 -135l-98 -8l9 51c3 15 3 21 -9 25c-9 3 -26 6 -51 6c-93 0 -138 -44 -165 -131h209l-14 -82h-394zM75 206l14 82h394l-15 -82h-204c0 -74 27 -120 113 -120c49 0 88 15 131 46l38 -77
c-56 -45 -122 -67 -194 -67c-136 0 -210 69 -206 218h-71z" />
    <glyph glyph-name="cent.osf" 
d="M436 618l-20 -114c68 -3 106 -18 133 -37l-22 -134l-94 -6l9 53c3 16 2 27 -17 31l-25 3l-60 -339c36 1 75 15 117 44l32 -83c-32 -24 -79 -51 -166 -54l-19 -109h-74l20 113c-104 21 -143 104 -143 198c0 183 98 292 234 316l21 118h74zM230 196c0 -48 13 -82 39 -102
l54 303c-56 -29 -93 -97 -93 -201z" />
    <glyph glyph-name="sterling.osf" horiz-adv-x="568" 
d="M565 174l-29 -162c-24 -11 -64 -18 -100 -18c-89 0 -175 31 -253 31c-41 0 -80 -13 -112 -28l-24 86c48 21 103 81 127 167l13 49h-89l24 79h83l14 61c34 154 135 218 250 218c56 0 112 -10 168 -37l-25 -143l-99 -9l11 63c3 16 1 22 -14 26s-30 6 -45 6
c-88 0 -118 -59 -137 -139l-10 -46h165l-24 -78h-160l-10 -38c-19 -73 -37 -113 -99 -159c0 -1 1 -3 1 -4c27 7 47 12 79 12c47 0 114 -21 157 -21c16 0 23 4 27 19l15 59z" />
    <glyph glyph-name="yen.osf" horiz-adv-x="534" 
d="M102 296l14 76h111l-73 190l-40 3l14 79h226l-13 -76l-34 -3c-19 -3 -23 -8 -16 -27l51 -147h1l117 171l-42 3l14 79h195l-13 -76l-25 -2c-19 -3 -22 -7 -33 -22l-125 -172h112l-14 -76h-152l-10 -60h152l-14 -81h-152l-13 -73l67 -3l-14 -79h-256l14 75l40 3
c21 3 29 7 33 31l8 46h-154l14 81h154l11 60h-155z" />
    <glyph glyph-name="florin.osf" horiz-adv-x="545" 
d="M146 295l31 94h109l26 75c40 120 91 193 228 193c55 0 102 -15 135 -36l-51 -77c-24 13 -58 23 -86 23c-55 0 -78 -22 -98 -78l-36 -100h148l-34 -94h-147l-107 -307c-40 -113 -88 -198 -235 -198c-45 0 -96 13 -129 34l46 81c25 -13 60 -25 91 -25c51 0 79 26 98 78
l118 337h-107z" />
    <glyph glyph-name="zero.tosf" unicode="&#xf81e;" 
d="M355 516c125 0 198 -73 198 -202c0 -200 -103 -328 -283 -328c-135 0 -201 84 -201 209c0 204 118 321 286 321zM281 77c84 0 152 56 152 229c0 80 -34 119 -93 119c-100 0 -150 -80 -150 -221c0 -80 26 -127 91 -127z" />
    <glyph glyph-name="one.tosf" unicode="&#xf81f;" 
d="M263 110l49 279c-41 -28 -99 -51 -152 -62l-24 85c81 15 156 45 219 92h97l-74 -422l115 -5l-14 -77h-357l13 74l96 5c19 1 27 4 32 31z" />
    <glyph glyph-name="two.tosf" unicode="&#xf820;" 
d="M340 516c125 0 185 -57 185 -141c0 -95 -48 -143 -144 -202l-138 -82l-1 -1h261l-16 -90h-429l13 77l208 140c61 40 122 77 122 141c0 48 -35 63 -86 63c-24 0 -47 -2 -66 -6s-24 -13 -27 -32l-10 -57l-98 -7l26 158c42 19 128 39 200 39z" />
    <glyph glyph-name="three.tosf" unicode="&#xf821;" 
d="M409 218c41 -45 66 -94 66 -146c0 -143 -129 -222 -406 -250l-5 93c163 19 290 54 290 149c0 33 -14 66 -42 97c-35 -13 -85 -28 -118 -35l-14 84c152 35 214 74 214 148c0 40 -22 62 -73 62c-23 0 -48 -4 -64 -9c-17 -5 -20 -13 -23 -30l-10 -56l-98 -6l27 156
c59 24 134 41 198 41c112 0 167 -58 167 -131c0 -65 -29 -115 -109 -167z" />
    <glyph glyph-name="four.tosf" unicode="&#xf822;" 
d="M417 294h71l-35 -200h89l-16 -94h-90l-28 -157h-119l28 158h-275l14 76l272 435l91 -47l-234 -371h147l13 65z" />
    <glyph glyph-name="five.tosf" unicode="&#xf823;" 
d="M122 179l99 325h204c19 0 25 8 29 27l6 35l97 4l-27 -154h-228l-46 -150c121 -5 224 -43 224 -158c0 -164 -158 -264 -425 -288l-4 92c193 21 303 74 303 176c0 84 -108 93 -177 93c-20 0 -39 -1 -55 -2z" />
    <glyph glyph-name="six.tosf" unicode="&#xf824;" 
d="M506 678l9 -92c-137 -19 -245 -87 -288 -218c45 27 101 43 150 43c93 0 150 -59 150 -160c0 -137 -92 -262 -251 -262c-137 0 -190 89 -190 222c0 180 97 427 420 467zM409 242c0 53 -25 86 -76 86c-40 0 -97 -22 -123 -43c-6 -34 -9 -64 -9 -91c0 -73 23 -116 83 -116
c72 0 125 68 125 164z" />
    <glyph glyph-name="seven.tosf" unicode="&#xf825;" 
d="M437 416h-211c-19 0 -23 -5 -27 -25l-10 -48l-97 -5l29 166h456l-13 -79c-184 -197 -248 -365 -323 -592l-122 21c77 243 166 405 318 562z" />
    <glyph glyph-name="eight.tosf" unicode="&#xf826;" 
d="M477 378l-70 45c24 23 51 46 51 89c0 40 -29 65 -82 65c-45 0 -102 -15 -102 -87c0 -50 37 -70 86 -100c104 -64 164 -113 164 -193c0 -98 -65 -209 -250 -209c-145 0 -194 73 -194 148c0 107 79 166 160 207c-40 24 -82 65 -82 133c0 101 77 181 230 181
c123 0 177 -64 177 -134c0 -71 -55 -123 -88 -145zM402 185c0 56 -50 87 -92 110c-65 -35 -119 -71 -119 -138c0 -56 37 -82 92 -82c76 0 119 51 119 110z" />
    <glyph glyph-name="nine.tosf" unicode="&#xf827;" 
d="M95 -150l-8 100c167 19 274 77 306 185c-43 -27 -100 -43 -151 -43c-105 0 -155 73 -155 173c0 146 96 253 253 253c133 0 191 -87 191 -234c0 -176 -67 -402 -436 -434zM205 273c0 -63 23 -97 78 -97c42 0 100 22 123 43c6 33 9 63 9 90c0 73 -23 121 -86 121
c-69 0 -124 -61 -124 -157z" />
    <glyph glyph-name="dollar.tosf" 
d="M167 104c15 -4 42 -8 73 -8l35 200c-71 29 -157 58 -157 165c0 104 67 185 222 201l15 85h74l-15 -83c72 -3 111 -18 144 -34l-27 -151l-97 -8l11 63c3 16 2 24 -13 29c-9 3 -16 5 -35 6l-32 -183c81 -38 150 -63 150 -170s-58 -197 -218 -213l-19 -111h-74l19 108
c-89 1 -147 17 -186 34l29 157l100 7l-11 -64c-3 -17 -3 -25 12 -30zM244 484c0 -43 20 -57 52 -70l27 151c-41 -8 -79 -30 -79 -81zM387 194c0 31 -9 51 -44 70l-28 -160c43 11 72 37 72 90z" />
    <glyph glyph-name="Euro.tosf" 
d="M74 345l15 82h71c43 153 159 230 293 230c63 0 117 -15 154 -38l-24 -135l-98 -8l9 51c3 15 3 21 -9 25c-9 3 -26 6 -51 6c-92 0 -134 -46 -161 -131h209l-14 -82h-394zM50 206l14 82h394l-15 -82h-204c0 -74 27 -120 113 -120c49 0 84 15 127 46l38 -77
c-55 -45 -119 -67 -190 -67c-136 0 -210 69 -206 218h-71z" />
    <glyph glyph-name="cent.tosf" 
d="M424 619l-20 -114c68 -3 106 -18 133 -37l-22 -134l-94 -6l9 53c3 16 2 27 -17 31l-25 3l-60 -339c36 1 75 15 117 44l32 -83c-32 -24 -79 -51 -166 -54l-19 -109h-74l20 113c-104 21 -143 104 -143 198c0 183 98 292 234 316l21 118h74zM218 197c0 -48 13 -82 39 -102
l54 303c-56 -29 -93 -97 -93 -201z" />
    <glyph glyph-name="sterling.tosf" 
d="M518 174l-29 -162c-24 -11 -64 -18 -100 -18c-89 0 -166 31 -243 31c-41 0 -80 -13 -112 -28l-24 86c48 21 103 81 127 167l13 49h-89l24 79h83l14 61c36 153 124 218 240 218c56 0 112 -10 168 -37l-25 -143l-99 -9l11 63c3 16 1 22 -14 26s-30 6 -45 6
c-88 0 -108 -59 -127 -139l-10 -46h165l-24 -78h-160l-10 -38c-19 -73 -37 -113 -99 -159c0 -1 1 -3 1 -4c27 7 47 12 79 12c48 0 104 -21 147 -21c16 0 23 4 27 19l15 59z" />
    <glyph glyph-name="yen.tosf" 
d="M101 296l14 76h111l-73 190l-40 3l14 79h226l-13 -76l-34 -3c-19 -3 -23 -8 -16 -27l51 -147h1l117 171l-42 3l14 79h195l-13 -76l-25 -2c-19 -3 -22 -7 -33 -22l-125 -172h112l-14 -76h-152l-10 -60h152l-14 -81h-152l-13 -73l67 -3l-14 -79h-256l14 75l40 3
c21 3 29 7 33 31l8 46h-154l14 81h154l11 60h-155z" />
    <glyph glyph-name="florin.tosf" 
d="M108 295l31 94h109l26 75c40 120 91 193 228 193c55 0 102 -15 135 -36l-51 -77c-24 13 -58 23 -86 23c-55 0 -78 -22 -98 -78l-36 -100h148l-34 -94h-147l-107 -307c-40 -113 -88 -198 -235 -198c-45 0 -96 13 -129 34l46 81c25 -13 60 -25 91 -25c51 0 79 26 98 78
l118 337h-107z" />
    <glyph glyph-name="section" unicode="&#xa7;" horiz-adv-x="540" 
d="M365 110c25 17 51 45 51 80c0 69 -117 110 -170 158c-27 -19 -46 -44 -46 -77c0 -69 102 -106 165 -161zM416 662c67 0 127 -18 156 -37l-21 -123l-94 -8l9 51c2 13 -1 22 -10 26c-12 5 -29 6 -46 6c-64 0 -102 -28 -102 -80c0 -100 221 -115 221 -273
c0 -63 -41 -121 -117 -166c11 -17 23 -41 23 -74c0 -76 -50 -190 -227 -190c-63 0 -134 18 -162 38l22 123l94 7l-9 -49c-3 -17 2 -24 13 -28c11 -3 30 -5 47 -5c64 0 99 37 99 88c0 104 -220 118 -220 273c0 65 43 124 110 161c-12 19 -18 43 -18 72c0 74 56 188 232 188z
" />
    <glyph glyph-name="copyright" unicode="&#xa9;" horiz-adv-x="814" 
d="M808 332c0 -200 -146 -352 -351 -352c-212 0 -342 143 -342 346c0 195 141 350 342 350c208 0 351 -155 351 -344zM729 329c0 157 -116 275 -271 275c-158 0 -264 -122 -264 -278c0 -168 109 -274 264 -274c156 0 271 117 271 277zM464 198c41 0 68 19 96 42l40 -54
c-28 -29 -74 -56 -138 -56c-119 0 -175 78 -175 201c0 155 101 199 173 199c63 0 113 -25 150 -75l-56 -44c-24 27 -52 50 -96 50s-91 -29 -91 -129c0 -84 29 -134 97 -134z" />
    <glyph glyph-name="registered" unicode="&#xae;" horiz-adv-x="463" 
d="M377 466l37 -82h-47l-32 71c-4 9 -9 14 -16 14h-25v-85h-41v211h77c43 0 68 -19 68 -56c0 -31 -15 -49 -34 -58c7 -3 10 -10 13 -15zM294 503h23c24 0 36 11 36 32c0 23 -17 27 -40 27h-19v-59zM517 489c0 -112 -81 -191 -197 -191c-119 0 -192 79 -192 189
c0 108 79 190 192 190c116 0 197 -81 197 -188zM469 487c0 86 -63 148 -149 148c-88 0 -143 -61 -143 -148c0 -88 59 -147 143 -147c87 0 149 58 149 147z" />
    <glyph glyph-name="trademark" unicode="&#x2122;" horiz-adv-x="753" 
d="M560 665l78 -226h1l83 226h113v-53c-16 0 -29 0 -29 -19c0 -7 0 -10 1 -17l13 -194l30 -2v-51h-133v50l17 3c13 3 19 7 18 22l-9 156l-77 -207h-58l-75 205l-12 -176l33 -2v-51h-131v50l17 3c10 1 16 7 17 18c7 71 10 139 14 208l-28 2v55h117zM232 401v201h-44
c-9 -1 -10 -8 -10 -16v-20l-53 4v95h294v-95l-53 -4v20c0 11 0 16 -15 16h-39v-220l39 -2v-51h-159v50l21 2c13 2 19 9 19 20z" />
    <glyph glyph-name="ordfeminine" unicode="&#xaa;" horiz-adv-x="419" 
d="M323 263l6 40h-4c-24 -27 -57 -47 -101 -47c-80 0 -110 58 -110 126c0 132 81 228 219 228c25 0 78 -5 125 -24l-44 -246c-3 -15 3 -19 16 -22l16 -2l-9 -53h-114zM328 372l29 164c-11 4 -24 7 -43 7c-83 0 -107 -84 -107 -148c0 -43 12 -72 51 -72s66 24 70 49z" />
    <glyph glyph-name="ordmasculine" unicode="&#xba;" horiz-adv-x="410" 
d="M262 326c56 0 92 52 92 147c0 45 -15 71 -54 71c-60 0 -89 -74 -89 -143c0 -47 12 -75 51 -75zM117 395c0 167 114 215 197 215c60 0 134 -27 134 -134c0 -135 -83 -220 -197 -220c-84 0 -134 51 -134 139z" />
    <glyph glyph-name="guillemotleft" unicode="&#xab;" horiz-adv-x="536" 
d="M514 450l45 -50l-154 -151l98 -141l-52 -43l-143 147c-12 13 -18 26 -18 39c0 19 8 32 31 49zM306 450l45 -50l-154 -151l98 -141l-52 -43l-143 147c-12 13 -18 26 -18 39c0 19 8 32 31 49z" />
    <glyph glyph-name="guillemotright" unicode="&#xbb;" horiz-adv-x="536" 
d="M309 65l-42 47l152 156l-100 141l53 43l141 -147c13 -12 20 -25 20 -39c0 -20 -9 -31 -32 -50zM101 65l-42 47l152 156l-100 141l53 43l141 -147c13 -12 20 -25 20 -39c0 -20 -9 -31 -32 -50z" />
    <glyph glyph-name="guilsinglleft" unicode="&#x2039;" horiz-adv-x="327" 
d="M306 450l45 -50l-154 -151l98 -141l-52 -43l-143 147c-12 13 -18 26 -18 39c0 19 8 32 31 49z" />
    <glyph glyph-name="guilsinglright" unicode="&#x203a;" horiz-adv-x="328" 
d="M101 65l-42 47l152 156l-100 141l53 43l141 -147c13 -12 20 -25 20 -39c0 -20 -9 -31 -32 -50z" />
    <glyph glyph-name="quoteleft" unicode="&#x2018;" horiz-adv-x="228" 
d="M161 612l71 126l63 -24l-41 -111c-8 -21 2 -27 27 -27h24l-24 -87c-124 -38 -168 38 -120 123z" />
    <glyph glyph-name="quoteright" unicode="&#x2019;" horiz-adv-x="228" 
d="M279 593l-71 -126l-63 24l41 111c8 21 -2 27 -27 27h-24l24 87c123 38 168 -40 120 -123z" />
    <glyph glyph-name="quotesinglbase" unicode="&#x201a;" horiz-adv-x="240" 
d="M192 -13l-71 -126l-63 25l42 110c8 23 -3 28 -28 28h-23l24 87c123 37 167 -39 119 -124z" />
    <glyph glyph-name="quotedblleft" unicode="&#x201c;" horiz-adv-x="424" 
d="M357 612l71 126l63 -24l-41 -111c-8 -21 2 -27 27 -27h24l-24 -87c-124 -38 -168 38 -120 123zM161 612l71 126l63 -24l-41 -111c-8 -21 2 -27 27 -27h24l-24 -87c-124 -38 -168 38 -120 123z" />
    <glyph glyph-name="quotedblright" unicode="&#x201d;" horiz-adv-x="424" 
d="M475 593l-71 -126l-63 24l41 111c8 21 -2 27 -27 27h-24l24 87c123 38 168 -40 120 -123zM279 593l-71 -126l-63 24l41 111c8 21 -2 27 -27 27h-24l24 87c123 38 168 -40 120 -123z" />
    <glyph glyph-name="quotedblbase" unicode="&#x201e;" horiz-adv-x="416" 
d="M382 -13l-71 -126l-63 25l42 110c8 23 -3 28 -28 28h-23l24 87c123 37 167 -39 119 -124zM185 -13l-71 -126l-63 25l42 110c8 23 -3 28 -28 28h-23l24 87c123 37 167 -39 119 -124z" />
    <glyph glyph-name="dagger" unicode="&#x2020;" horiz-adv-x="422" 
d="M143 461l-3 36c-3 35 16 59 51 51l90 -20l-1 134l32 6c43 9 61 -14 50 -42l-35 -100l140 27l3 -40c3 -35 -16 -53 -51 -46l-99 20l-14 -211c-3 -37 -24 -45 -63 -34l-38 9l68 237z" />
    <glyph glyph-name="daggerdbl" unicode="&#x2021;" horiz-adv-x="424" 
d="M142 461l-2 36c-3 33 17 58 54 50l86 -19l-2 126l33 8c44 12 58 -16 49 -44l-32 -93l136 27l3 -34c5 -35 -13 -59 -53 -51l-92 18l-18 -106l128 27l3 -37c3 -36 -19 -56 -50 -49l-90 18v-127l-32 -8c-43 -11 -61 16 -50 44l33 92l-134 -24l-3 35c-4 33 15 60 47 52
l95 -21l19 106z" />
    <glyph glyph-name="bullet" unicode="&#x2022;" horiz-adv-x="500" 
d="M185 288c0 87 66 145 142 145c68 0 96 -44 96 -103c0 -96 -67 -144 -138 -144c-60 0 -100 39 -100 102z" />
    <glyph glyph-name="ellipsis" unicode="&#x2026;" horiz-adv-x="742" 
d="M564 44c0 47 35 81 84 81c40 0 62 -22 62 -55c0 -45 -33 -83 -84 -83c-41 0 -62 22 -62 57zM312 44c0 47 35 81 84 81c40 0 62 -22 62 -55c0 -45 -33 -83 -84 -83c-41 0 -62 22 -62 57zM53 44c0 47 35 81 84 81c40 0 62 -22 62 -55c0 -45 -33 -83 -84 -83
c-41 0 -62 22 -62 57z" />
    <glyph glyph-name="paragraph" unicode="&#xb6;" horiz-adv-x="547" 
d="M549 558l-84 -476c-29 -171 -92 -252 -296 -287l-9 100c123 27 171 74 187 167l91 517h-72l-64 -364c-103 3 -185 58 -185 177c0 194 129 273 286 273h219l-13 -76l-30 -2c-19 -1 -26 -6 -30 -29z" />
    <glyph glyph-name="periodcentered" unicode="&#xb7;" horiz-adv-x="308" 
d="M138 295c0 45 34 80 81 80c40 0 60 -22 60 -54c0 -44 -30 -82 -81 -82c-40 0 -60 24 -60 56z" />
    <glyph glyph-name="uni00AD" unicode="&#xad;" horiz-adv-x="322" 
d="M85 245l16 92h237l-16 -92h-237z" />
    <glyph glyph-name="endash" unicode="&#x2013;" horiz-adv-x="500" 
d="M43 245l14 82h500l-14 -82h-500z" />
    <glyph glyph-name="emdash" unicode="&#x2014;" horiz-adv-x="1000" 
d="M43 245l14 82h1000l-14 -82h-1000z" />
    <glyph glyph-name="hyphen.case" horiz-adv-x="322" 
d="M72 280l17 92h262l-17 -92h-262z" />
    <glyph glyph-name="Agrave" unicode="&#xc0;" horiz-adv-x="669" 
d="M494 81l-19 108h-226l-55 -107l51 -3l-14 -79h-221l13 75l29 4c19 3 24 7 35 27l245 474l-52 6l14 79h221l103 -571c3 -17 6 -22 26 -21l38 1l-13 -74c-20 -7 -52 -11 -76 -11c-71 0 -91 32 -99 92zM426 556l-142 -283h186l-42 283h-2zM376 908l149 -160l-36 -39l-147 87
c-21 13 -31 27 -31 42c0 19 12 34 31 47z" />
    <glyph glyph-name="Aacute" unicode="&#xc1;" horiz-adv-x="669" 
d="M494 81l-19 108h-226l-55 -107l51 -3l-14 -79h-221l13 75l29 4c19 3 24 7 35 27l245 474l-52 6l14 79h221l103 -571c3 -17 6 -22 26 -21l38 1l-13 -74c-20 -7 -52 -11 -76 -11c-71 0 -91 32 -99 92zM426 556l-142 -283h186l-42 283h-2zM357 751l190 156l33 -31
c10 -9 15 -20 15 -31c0 -23 -16 -38 -51 -55l-160 -80z" />
    <glyph glyph-name="Acircumflex" unicode="&#xc2;" horiz-adv-x="669" 
d="M494 81l-19 108h-226l-55 -107l51 -3l-14 -79h-221l13 75l29 4c19 3 24 7 35 27l245 474l-52 6l14 79h221l103 -571c3 -17 6 -22 26 -21l38 1l-13 -74c-20 -7 -52 -11 -76 -11c-71 0 -91 32 -99 92zM426 556l-142 -283h186l-42 283h-2zM307 708l-37 39l121 114
c25 23 41 31 60 31c21 0 37 -11 60 -43l74 -105l-39 -36l-105 87z" />
    <glyph glyph-name="Atilde" unicode="&#xc3;" horiz-adv-x="669" 
d="M494 81l-19 108h-226l-55 -107l51 -3l-14 -79h-221l13 75l29 4c19 3 24 7 35 27l245 474l-52 6l14 79h221l103 -571c3 -17 6 -22 26 -21l38 1l-13 -74c-20 -7 -52 -11 -76 -11c-71 0 -91 32 -99 92zM426 556l-142 -283h186l-42 283h-2zM306 730l-41 31
c39 63 73 80 112 80c48 0 92 -28 127 -28c20 0 37 10 52 30l47 -29c-31 -59 -68 -82 -113 -82s-89 28 -127 28c-23 0 -36 -9 -57 -30z" />
    <glyph glyph-name="Adieresis" unicode="&#xc4;" horiz-adv-x="669" 
d="M494 81l-19 108h-226l-55 -107l51 -3l-14 -79h-221l13 75l29 4c19 3 24 7 35 27l245 474l-52 6l14 79h221l103 -571c3 -17 6 -22 26 -21l38 1l-13 -74c-20 -7 -52 -11 -76 -11c-71 0 -91 32 -99 92zM426 556l-142 -283h186l-42 283h-2zM467 776c0 41 34 75 81 75
c35 0 57 -23 57 -55c0 -43 -36 -75 -81 -75c-36 0 -57 22 -57 55zM264 776c0 41 34 75 81 75c35 0 57 -23 57 -55c0 -43 -36 -75 -81 -75c-35 0 -57 22 -57 55z" />
    <glyph glyph-name="Aring" unicode="&#xc5;" horiz-adv-x="669" 
d="M494 81l-19 108h-226l-55 -107l51 -3l-14 -79h-221l13 75l29 4c19 3 24 7 35 27l245 474l-52 6l14 79h221l103 -571c3 -17 6 -22 26 -21l38 1l-13 -74c-20 -7 -52 -11 -76 -11c-71 0 -91 32 -99 92zM426 556l-142 -283h186l-42 283h-2zM342 786c0 67 53 120 127 120
c60 0 89 -37 89 -84c0 -75 -54 -123 -123 -123c-64 0 -93 36 -93 87zM407 789c0 -23 12 -34 35 -34c35 0 50 26 50 61c0 23 -12 34 -35 34c-41 0 -50 -30 -50 -61z" />
    <glyph glyph-name="Aringacute" unicode="&#x1fa;" horiz-adv-x="669" 
d="M494 81l-19 108h-226l-55 -107l51 -3l-14 -79h-221l13 75l29 4c19 3 24 7 35 27l245 474l-52 6l14 79h221l103 -571c3 -17 6 -22 26 -21l38 1l-13 -74c-20 -7 -52 -11 -76 -11c-71 0 -91 32 -99 92zM426 556l-142 -283h186l-42 283h-2zM371 960l190 156l33 -31
c10 -9 15 -20 15 -31c0 -23 -16 -38 -51 -55l-160 -80zM342 786c0 67 53 120 127 120c60 0 89 -37 89 -84c0 -75 -54 -123 -123 -123c-64 0 -93 36 -93 87zM407 789c0 -23 12 -34 35 -34c35 0 50 26 50 61c0 23 -12 34 -35 34c-41 0 -50 -30 -50 -61z" />
    <glyph glyph-name="AE" unicode="&#xc6;" horiz-adv-x="854" 
d="M485 108l-14 81h-226l-55 -107l51 -3l-14 -79h-217l13 75l29 4c15 3 22 4 33 23l247 478l-52 6l14 79h621l-27 -154l-98 -5l8 46c3 17 0 24 -21 24h-250l35 -190h264l-16 -92h-232l37 -205h84c21 0 25 5 29 25l10 45l98 3l-29 -162h-391l13 75l34 4c15 3 26 8 22 29z
M422 556l-142 -283h186l-42 283h-2z" />
    <glyph glyph-name="AEacute" unicode="&#x1fc;" horiz-adv-x="854" 
d="M485 108l-14 81h-226l-55 -107l51 -3l-14 -79h-217l13 75l29 4c15 3 22 4 33 23l247 478l-52 6l14 79h621l-27 -154l-98 -5l8 46c3 17 0 24 -21 24h-250l35 -190h264l-16 -92h-232l37 -205h84c21 0 25 5 29 25l10 45l98 3l-29 -162h-391l13 75l34 4c15 3 26 8 22 29z
M422 556l-142 -283h186l-42 283h-2zM535 751l190 156l33 -31c10 -9 15 -20 15 -31c0 -23 -16 -38 -51 -55l-160 -80z" />
    <glyph glyph-name="Ccedilla" unicode="&#xc7;" horiz-adv-x="617" 
d="M540 571c-17 5 -43 8 -66 8c-157 0 -249 -111 -249 -310c0 -108 44 -184 160 -184c21 0 57 4 76 11c17 5 20 10 23 29l12 59l97 5l-28 -162c-53 -27 -126 -38 -189 -39l-18 -37c43 -4 78 -28 78 -72c0 -76 -71 -100 -132 -100c-33 0 -69 8 -89 19l24 53
c15 -5 41 -13 64 -13c44 0 57 19 57 39c0 25 -35 29 -84 29l44 85c-145 19 -223 115 -223 276c0 299 197 410 381 410c64 0 138 -12 189 -39l-28 -160l-98 -7l12 73c3 19 2 22 -13 27z" />
    <glyph glyph-name="Egrave" unicode="&#xc8;" horiz-adv-x="559" 
d="M47 0l13 75l31 3c21 3 27 11 31 35l82 469l-52 4l14 79h454l-27 -154l-98 -5l8 46c3 19 -1 24 -21 24h-157l-34 -190h240l-16 -92h-240l-36 -205h166c19 0 23 4 28 24l10 46l98 3l-29 -162h-465zM368 908l149 -160l-36 -39l-147 87c-21 13 -31 27 -31 42
c0 19 12 34 31 47z" />
    <glyph glyph-name="Eacute" unicode="&#xc9;" horiz-adv-x="559" 
d="M47 0l13 75l31 3c21 3 27 11 31 35l82 469l-52 4l14 79h454l-27 -154l-98 -5l8 46c3 19 -1 24 -21 24h-157l-34 -190h240l-16 -92h-240l-36 -205h166c19 0 23 4 28 24l10 46l98 3l-29 -162h-465zM327 751l190 156l33 -31c10 -9 15 -20 15 -31c0 -23 -16 -38 -51 -55
l-160 -80z" />
    <glyph glyph-name="Ecircumflex" unicode="&#xca;" horiz-adv-x="559" 
d="M47 0l13 75l31 3c21 3 27 11 31 35l82 469l-52 4l14 79h454l-27 -154l-98 -5l8 46c3 19 -1 24 -21 24h-157l-34 -190h240l-16 -92h-240l-36 -205h166c19 0 23 4 28 24l10 46l98 3l-29 -162h-465zM292 708l-37 39l121 114c25 23 41 31 60 31c21 0 37 -11 60 -43l74 -105
l-39 -36l-105 87z" />
    <glyph glyph-name="Edieresis" unicode="&#xcb;" horiz-adv-x="559" 
d="M47 0l13 75l31 3c21 3 27 11 31 35l82 469l-52 4l14 79h454l-27 -154l-98 -5l8 46c3 19 -1 24 -21 24h-157l-34 -190h240l-16 -92h-240l-36 -205h166c19 0 23 4 28 24l10 46l98 3l-29 -162h-465zM451 776c0 41 34 75 81 75c35 0 57 -23 57 -55c0 -43 -36 -75 -81 -75
c-36 0 -57 22 -57 55zM248 776c0 41 34 75 81 75c35 0 57 -23 57 -55c0 -43 -36 -75 -81 -75c-35 0 -57 22 -57 55z" />
    <glyph glyph-name="Igrave" unicode="&#xcc;" horiz-adv-x="321" 
d="M121 111l82 471l-52 4l14 79h230l-13 -76l-31 -3c-19 -3 -26 -6 -30 -29l-84 -475l53 -3l-14 -79h-231l13 75l30 3c23 3 29 8 33 33zM230 908l149 -160l-36 -39l-147 87c-21 13 -31 27 -31 42c0 19 12 34 31 47z" />
    <glyph glyph-name="Iacute" unicode="&#xcd;" horiz-adv-x="321" 
d="M121 111l82 471l-52 4l14 79h230l-13 -76l-31 -3c-19 -3 -26 -6 -30 -29l-84 -475l53 -3l-14 -79h-231l13 75l30 3c23 3 29 8 33 33zM197 751l190 156l33 -31c10 -9 15 -20 15 -31c0 -23 -16 -38 -51 -55l-160 -80z" />
    <glyph glyph-name="Icircumflex" unicode="&#xce;" horiz-adv-x="321" 
d="M121 111l82 471l-52 4l14 79h230l-13 -76l-31 -3c-19 -3 -26 -6 -30 -29l-84 -475l53 -3l-14 -79h-231l13 75l30 3c23 3 29 8 33 33zM167 708l-37 39l121 114c25 23 41 31 60 31c21 0 37 -11 60 -43l74 -105l-39 -36l-105 87z" />
    <glyph glyph-name="Idieresis" unicode="&#xcf;" horiz-adv-x="321" 
d="M121 111l82 471l-52 4l14 79h230l-13 -76l-31 -3c-19 -3 -26 -6 -30 -29l-84 -475l53 -3l-14 -79h-231l13 75l30 3c23 3 29 8 33 33zM333 776c0 41 34 75 81 75c35 0 57 -23 57 -55c0 -43 -36 -75 -81 -75c-36 0 -57 22 -57 55zM130 776c0 41 34 75 81 75
c35 0 57 -23 57 -55c0 -43 -36 -75 -81 -75c-35 0 -57 22 -57 55z" />
    <glyph glyph-name="Eth" unicode="&#xd0;" horiz-adv-x="684" 
d="M84 292l15 85h69l36 205l-52 4l14 79h252c180 0 284 -89 284 -256c0 -300 -185 -409 -379 -409h-276l13 75l31 3c19 3 26 7 30 30l32 184h-69zM325 576l-36 -199h172l-16 -85h-171l-35 -202h85c160 0 252 122 252 305c0 114 -42 181 -168 181h-83z" />
    <glyph glyph-name="Ntilde" unicode="&#xd1;" horiz-adv-x="723" 
d="M729 556l-99 -556h-116l-209 483h-2l-70 -401l54 -3l-14 -79h-226l13 75l32 3c19 3 26 7 30 28l83 476l-52 4l14 79h176l204 -479h2l70 396l-55 4l14 79h225l-13 -76l-31 -3c-19 -3 -25 -3 -30 -30zM377 730l-41 31c39 63 73 80 112 80c48 0 92 -28 127 -28
c20 0 37 10 52 30l47 -29c-31 -59 -68 -82 -113 -82s-89 28 -127 28c-23 0 -36 -9 -57 -30z" />
    <glyph glyph-name="Ograve" unicode="&#xd2;" horiz-adv-x="670" 
d="M691 417c0 -230 -114 -429 -351 -429c-156 0 -245 86 -245 261c0 257 149 428 357 428c133 0 239 -73 239 -260zM439 575c-167 0 -218 -193 -218 -329c0 -88 38 -156 136 -156c107 0 208 102 208 329c0 76 -31 156 -126 156zM423 908l149 -160l-36 -39l-147 87
c-21 13 -31 27 -31 42c0 19 12 34 31 47z" />
    <glyph glyph-name="Oacute" unicode="&#xd3;" horiz-adv-x="670" 
d="M691 417c0 -230 -114 -429 -351 -429c-156 0 -245 86 -245 261c0 257 149 428 357 428c133 0 239 -73 239 -260zM439 575c-167 0 -218 -193 -218 -329c0 -88 38 -156 136 -156c107 0 208 102 208 329c0 76 -31 156 -126 156zM372 751l190 156l33 -31c10 -9 15 -20 15 -31
c0 -23 -16 -38 -51 -55l-160 -80z" />
    <glyph glyph-name="Ocircumflex" unicode="&#xd4;" horiz-adv-x="670" 
d="M691 417c0 -230 -114 -429 -351 -429c-156 0 -245 86 -245 261c0 257 149 428 357 428c133 0 239 -73 239 -260zM439 575c-167 0 -218 -193 -218 -329c0 -88 38 -156 136 -156c107 0 208 102 208 329c0 76 -31 156 -126 156zM348 708l-37 39l121 114c25 23 41 31 60 31
c21 0 37 -11 60 -43l74 -105l-39 -36l-105 87z" />
    <glyph glyph-name="Otilde" unicode="&#xd5;" horiz-adv-x="670" 
d="M691 417c0 -230 -114 -429 -351 -429c-156 0 -245 86 -245 261c0 257 149 428 357 428c133 0 239 -73 239 -260zM439 575c-167 0 -218 -193 -218 -329c0 -88 38 -156 136 -156c107 0 208 102 208 329c0 76 -31 156 -126 156zM351 730l-41 31c39 63 73 80 112 80
c48 0 92 -28 127 -28c20 0 37 10 52 30l47 -29c-31 -59 -68 -82 -113 -82s-89 28 -127 28c-23 0 -36 -9 -57 -30z" />
    <glyph glyph-name="Odieresis" unicode="&#xd6;" horiz-adv-x="670" 
d="M691 417c0 -230 -114 -429 -351 -429c-156 0 -245 86 -245 261c0 257 149 428 357 428c133 0 239 -73 239 -260zM439 575c-167 0 -218 -193 -218 -329c0 -88 38 -156 136 -156c107 0 208 102 208 329c0 76 -31 156 -126 156zM508 776c0 41 34 75 81 75
c35 0 57 -23 57 -55c0 -43 -36 -75 -81 -75c-36 0 -57 22 -57 55zM305 776c0 41 34 75 81 75c35 0 57 -23 57 -55c0 -43 -36 -75 -81 -75c-35 0 -57 22 -57 55z" />
    <glyph glyph-name="Oslash" unicode="&#xd8;" horiz-adv-x="670" 
d="M691 417c0 -230 -114 -429 -351 -429c-40 0 -76 7 -107 18l-68 -103l-81 49l71 106c-39 44 -60 107 -60 191c0 257 149 428 357 428c37 0 71 -6 102 -18l57 86l81 -49l-60 -90c36 -43 59 -104 59 -189zM565 419c0 23 -4 47 -11 70l-258 -388c18 -7 38 -11 61 -11
c107 0 208 102 208 329zM439 575c-167 0 -218 -193 -218 -329c0 -27 3 -51 11 -72l259 391c-15 7 -32 10 -52 10z" />
    <glyph glyph-name="Oslashacute" unicode="&#x1fe;" horiz-adv-x="670" 
d="M691 417c0 -230 -114 -429 -351 -429c-40 0 -76 7 -107 18l-68 -103l-81 49l71 106c-39 44 -60 107 -60 191c0 257 149 428 357 428c37 0 71 -6 102 -18l57 86l81 -49l-60 -90c36 -43 59 -104 59 -189zM565 419c0 23 -4 47 -11 70l-258 -388c18 -7 38 -11 61 -11
c107 0 208 102 208 329zM439 575c-167 0 -218 -193 -218 -329c0 -27 3 -51 11 -72l259 391c-15 7 -32 10 -52 10zM404 751l190 156l33 -31c10 -9 15 -20 15 -31c0 -23 -16 -38 -51 -55l-160 -80z" />
    <glyph glyph-name="Ugrave" unicode="&#xd9;" horiz-adv-x="692" 
d="M693 557l-63 -362c-24 -138 -113 -207 -268 -207c-162 0 -260 66 -228 237l63 357l-52 4l14 79h230l-13 -76l-32 -3c-19 -3 -26 -6 -30 -30l-61 -345c-16 -100 31 -131 114 -131s135 41 150 126l66 377l-49 3l14 79h219l-13 -76l-29 -3c-19 -3 -28 -6 -32 -29zM427 908
l149 -160l-36 -39l-147 87c-21 13 -31 27 -31 42c0 19 12 34 31 47z" />
    <glyph glyph-name="Uacute" unicode="&#xda;" horiz-adv-x="692" 
d="M693 557l-63 -362c-24 -138 -113 -207 -268 -207c-162 0 -260 66 -228 237l63 357l-52 4l14 79h230l-13 -76l-32 -3c-19 -3 -26 -6 -30 -30l-61 -345c-16 -100 31 -131 114 -131s135 41 150 126l66 377l-49 3l14 79h219l-13 -76l-29 -3c-19 -3 -28 -6 -32 -29zM384 751
l190 156l33 -31c10 -9 15 -20 15 -31c0 -23 -16 -38 -51 -55l-160 -80z" />
    <glyph glyph-name="Ucircumflex" unicode="&#xdb;" horiz-adv-x="692" 
d="M693 557l-63 -362c-24 -138 -113 -207 -268 -207c-162 0 -260 66 -228 237l63 357l-52 4l14 79h230l-13 -76l-32 -3c-19 -3 -26 -6 -30 -30l-61 -345c-16 -100 31 -131 114 -131s135 41 150 126l66 377l-49 3l14 79h219l-13 -76l-29 -3c-19 -3 -28 -6 -32 -29zM362 708
l-37 39l121 114c25 23 41 31 60 31c21 0 37 -11 60 -43l74 -105l-39 -36l-105 87z" />
    <glyph glyph-name="Udieresis" unicode="&#xdc;" horiz-adv-x="692" 
d="M693 557l-63 -362c-24 -138 -113 -207 -268 -207c-162 0 -260 66 -228 237l63 357l-52 4l14 79h230l-13 -76l-32 -3c-19 -3 -26 -6 -30 -30l-61 -345c-16 -100 31 -131 114 -131s135 41 150 126l66 377l-49 3l14 79h219l-13 -76l-29 -3c-19 -3 -28 -6 -32 -29zM517 776
c0 41 34 75 81 75c35 0 57 -23 57 -55c0 -43 -36 -75 -81 -75c-36 0 -57 22 -57 55zM314 776c0 41 34 75 81 75c35 0 57 -23 57 -55c0 -43 -36 -75 -81 -75c-35 0 -57 22 -57 55z" />
    <glyph glyph-name="Yacute" unicode="&#xdd;" horiz-adv-x="567" 
d="M243 109l25 142l-121 332l-44 3l14 79h232l-13 -76l-31 -2c-19 -1 -25 -11 -18 -30l64 -202h2l156 228l-46 4l14 78h204l-13 -76l-22 -2c-19 -3 -28 -11 -43 -32l-213 -302l-30 -171l64 -3l-14 -79h-254l13 75l41 3c20 3 29 7 33 31zM331 751l190 156l33 -31
c10 -9 15 -20 15 -31c0 -23 -16 -38 -51 -55l-160 -80z" />
    <glyph glyph-name="Thorn" unicode="&#xde;" horiz-adv-x="588" 
d="M249 144l-11 -61l95 -4l-14 -79h-272l13 75l32 4c21 3 25 7 30 34l82 469l-52 4l14 79h272l-13 -76l-75 -3c-16 -1 -25 -9 -28 -26l-4 -23h103c120 0 215 -38 215 -161c0 -158 -123 -232 -281 -232h-106zM263 233h75c102 0 170 31 170 135c0 76 -59 80 -145 80h-61z" />
    <glyph glyph-name="germandbls" unicode="&#xdf;" horiz-adv-x="609" 
d="M260 21l22 126l92 8l-9 -63c-3 -12 4 -14 11 -17c13 -4 20 -5 41 -5c49 0 73 27 73 80c0 79 -132 73 -132 180c0 122 170 166 170 243c0 41 -27 62 -91 62c-84 0 -129 -48 -142 -120l-103 -570c-16 -87 -37 -174 -175 -174c-43 0 -90 12 -118 31l39 85
c21 -11 41 -17 65 -17c47 0 62 25 73 85l94 530c28 161 114 238 277 238c148 0 197 -61 197 -128c0 -123 -169 -162 -169 -231c0 -68 136 -79 136 -195c0 -123 -89 -183 -190 -183c-64 0 -126 18 -161 35z" />
    <glyph glyph-name="agrave" unicode="&#xe0;" horiz-adv-x="565" 
d="M564 481l-67 -389c-3 -16 0 -21 19 -21c3 0 13 0 21 1c5 0 10 0 16 1l-13 -74c-19 -7 -53 -11 -74 -11c-59 0 -78 33 -73 72h-3c-27 -43 -79 -74 -147 -74c-117 0 -163 76 -163 180c0 202 99 351 310 351c43 0 107 -8 174 -36zM278 73c53 0 103 36 118 117l39 226
c-19 8 -39 13 -66 13c-127 0 -166 -141 -166 -256c0 -52 13 -100 75 -100zM389 788l89 -198l-45 -26l-103 113c-19 19 -24 33 -24 45c0 27 13 40 45 52z" />
    <glyph glyph-name="aacute" unicode="&#xe1;" horiz-adv-x="565" 
d="M564 481l-67 -389c-3 -16 0 -21 19 -21c3 0 13 0 21 1c5 0 10 0 16 1l-13 -74c-19 -7 -53 -11 -74 -11c-59 0 -78 33 -73 72h-3c-27 -43 -79 -74 -147 -74c-117 0 -163 76 -163 180c0 202 99 351 310 351c43 0 107 -8 174 -36zM278 73c53 0 103 36 118 117l39 226
c-19 8 -39 13 -66 13c-127 0 -166 -141 -166 -256c0 -52 13 -100 75 -100zM320 602l148 187l43 -19c18 -7 27 -19 27 -34c0 -24 -13 -35 -40 -56l-143 -112z" />
    <glyph glyph-name="acircumflex" unicode="&#xe2;" horiz-adv-x="565" 
d="M564 481l-67 -389c-3 -16 0 -21 19 -21c3 0 13 0 21 1c5 0 10 0 16 1l-13 -74c-19 -7 -53 -11 -74 -11c-59 0 -78 33 -73 72h-3c-27 -43 -79 -74 -147 -74c-117 0 -163 76 -163 180c0 202 99 351 310 351c43 0 107 -8 174 -36zM278 73c53 0 103 36 118 117l39 226
c-19 8 -39 13 -66 13c-127 0 -166 -141 -166 -256c0 -52 13 -100 75 -100zM283 564l-40 36l124 134c23 23 36 37 63 37c25 0 36 -9 51 -34l79 -141l-43 -32l-99 103z" />
    <glyph glyph-name="atilde" unicode="&#xe3;" horiz-adv-x="565" 
d="M564 481l-67 -389c-3 -16 0 -21 19 -21c3 0 13 0 21 1c5 0 10 0 16 1l-13 -74c-19 -7 -53 -11 -74 -11c-59 0 -78 33 -73 72h-3c-27 -43 -79 -74 -147 -74c-117 0 -163 76 -163 180c0 202 99 351 310 351c43 0 107 -8 174 -36zM278 73c53 0 103 36 118 117l39 226
c-19 8 -39 13 -66 13c-127 0 -166 -141 -166 -256c0 -52 13 -100 75 -100zM286 597l-41 31c39 63 73 80 112 80c48 0 92 -28 127 -28c20 0 37 10 52 30l47 -29c-31 -59 -68 -82 -113 -82s-89 28 -127 28c-23 0 -36 -9 -57 -30z" />
    <glyph glyph-name="adieresis" unicode="&#xe4;" horiz-adv-x="565" 
d="M564 481l-67 -389c-3 -16 0 -21 19 -21c3 0 13 0 21 1c5 0 10 0 16 1l-13 -74c-19 -7 -53 -11 -74 -11c-59 0 -78 33 -73 72h-3c-27 -43 -79 -74 -147 -74c-117 0 -163 76 -163 180c0 202 99 351 310 351c43 0 107 -8 174 -36zM278 73c53 0 103 36 118 117l39 226
c-19 8 -39 13 -66 13c-127 0 -166 -141 -166 -256c0 -52 13 -100 75 -100zM446 636c0 41 34 76 81 76c36 0 57 -24 57 -56c0 -43 -36 -75 -80 -75c-37 0 -58 22 -58 55zM249 636c0 41 33 76 80 76c36 0 58 -24 58 -56c0 -43 -37 -75 -81 -75c-36 0 -57 22 -57 55z" />
    <glyph glyph-name="aring" unicode="&#xe5;" horiz-adv-x="565" 
d="M564 481l-67 -389c-3 -16 0 -21 19 -21c3 0 13 0 21 1c5 0 10 0 16 1l-13 -74c-19 -7 -53 -11 -74 -11c-59 0 -78 33 -73 72h-3c-27 -43 -79 -74 -147 -74c-117 0 -163 76 -163 180c0 202 99 351 310 351c43 0 107 -8 174 -36zM278 73c53 0 103 36 118 117l39 226
c-19 8 -39 13 -66 13c-127 0 -166 -141 -166 -256c0 -52 13 -100 75 -100zM302 653c0 67 53 120 127 120c60 0 89 -37 89 -84c0 -75 -54 -123 -123 -123c-64 0 -93 36 -93 87zM367 656c0 -23 12 -34 35 -34c35 0 50 26 50 61c0 23 -12 34 -35 34c-41 0 -50 -30 -50 -61z" />
    <glyph glyph-name="aringacute" unicode="&#x1fb;" horiz-adv-x="565" 
d="M564 481l-67 -389c-3 -16 0 -21 19 -21c3 0 13 0 21 1c5 0 10 0 16 1l-13 -74c-19 -7 -53 -11 -74 -11c-59 0 -78 33 -73 72h-3c-27 -43 -79 -74 -147 -74c-117 0 -163 76 -163 180c0 202 99 351 310 351c43 0 107 -8 174 -36zM278 73c53 0 103 36 118 117l39 226
c-19 8 -39 13 -66 13c-127 0 -166 -141 -166 -256c0 -52 13 -100 75 -100zM293 638c0 67 53 120 127 120c60 0 89 -37 89 -84c0 -75 -54 -123 -123 -123c-64 0 -93 36 -93 87zM358 641c0 -23 12 -34 35 -34c35 0 50 26 50 61c0 23 -12 34 -35 34c-41 0 -50 -30 -50 -61z
M321 806l190 156l33 -31c10 -9 15 -20 15 -31c0 -23 -16 -38 -51 -55l-160 -80z" />
    <glyph glyph-name="ae" unicode="&#xe6;" horiz-adv-x="771" 
d="M688 381c0 32 -21 49 -54 49c-83 0 -135 -72 -148 -147c115 -3 202 12 202 98zM354 184c0 79 22 166 78 233c-19 8 -34 12 -65 12c-124 0 -164 -143 -164 -252c0 -61 14 -104 76 -104c35 0 61 14 85 33c-7 21 -10 51 -10 78zM656 517c88 0 139 -42 139 -127
c0 -153 -144 -193 -322 -185c-7 -79 20 -126 103 -126c56 0 102 22 130 41l25 -83c-22 -14 -94 -51 -185 -51c-72 0 -121 23 -149 59c-37 -31 -92 -59 -156 -59c-123 0 -161 85 -161 184c0 200 104 347 303 347c49 0 93 -11 132 -33c39 23 90 33 141 33z" />
    <glyph glyph-name="aeacute" unicode="&#x1fd;" horiz-adv-x="771" 
d="M688 381c0 32 -21 49 -54 49c-83 0 -135 -72 -148 -147c115 -3 202 12 202 98zM354 184c0 79 22 166 78 233c-19 8 -34 12 -65 12c-124 0 -164 -143 -164 -252c0 -61 14 -104 76 -104c35 0 61 14 85 33c-7 21 -10 51 -10 78zM656 517c88 0 139 -42 139 -127
c0 -153 -144 -193 -322 -185c-7 -79 20 -126 103 -126c56 0 102 22 130 41l25 -83c-22 -14 -94 -51 -185 -51c-72 0 -121 23 -149 59c-37 -31 -92 -59 -156 -59c-123 0 -161 85 -161 184c0 200 104 347 303 347c49 0 93 -11 132 -33c39 23 90 33 141 33zM463 602l148 187
l43 -19c18 -7 27 -19 27 -34c0 -24 -13 -35 -40 -56l-143 -112z" />
    <glyph glyph-name="ccedilla" unicode="&#xe7;" horiz-adv-x="482" 
d="M359 423c-92 0 -155 -77 -155 -224c0 -67 27 -116 98 -116c37 0 78 14 123 43l33 -83c-41 -31 -102 -54 -174 -57l-17 -35c43 -4 78 -28 78 -72c0 -76 -71 -100 -132 -100c-33 0 -69 8 -89 19l24 53c15 -5 41 -13 64 -13c44 0 57 19 57 39c0 25 -35 29 -84 29l43 84
c-97 16 -148 87 -148 195c0 248 149 332 291 332c60 0 112 -14 147 -39l-23 -136l-94 -6l9 53c3 17 1 24 -12 29c-11 4 -26 5 -39 5z" />
    <glyph glyph-name="egrave" unicode="&#xe8;" horiz-adv-x="495" 
d="M379 517c88 0 142 -39 142 -128c0 -149 -127 -196 -322 -188c-5 -64 14 -122 99 -122c63 0 107 24 134 41l25 -83c-19 -13 -90 -51 -186 -51c-135 0 -191 83 -191 195c0 184 110 336 299 336zM414 378c0 37 -21 52 -56 52c-77 0 -133 -71 -146 -144c119 -3 202 16 202 92
zM362 788l89 -198l-45 -26l-103 113c-19 19 -24 33 -24 45c0 27 13 40 45 52z" />
    <glyph glyph-name="eacute" unicode="&#xe9;" horiz-adv-x="495" 
d="M379 517c88 0 142 -39 142 -128c0 -149 -127 -196 -322 -188c-5 -64 14 -122 99 -122c63 0 107 24 134 41l25 -83c-19 -13 -90 -51 -186 -51c-135 0 -191 83 -191 195c0 184 110 336 299 336zM414 378c0 37 -21 52 -56 52c-77 0 -133 -71 -146 -144c119 -3 202 16 202 92
zM304 602l148 187l43 -19c18 -7 27 -19 27 -34c0 -24 -13 -35 -40 -56l-143 -112z" />
    <glyph glyph-name="ecircumflex" unicode="&#xea;" horiz-adv-x="495" 
d="M379 517c88 0 142 -39 142 -128c0 -149 -127 -196 -322 -188c-5 -64 14 -122 99 -122c63 0 107 24 134 41l25 -83c-19 -13 -90 -51 -186 -51c-135 0 -191 83 -191 195c0 184 110 336 299 336zM414 378c0 37 -21 52 -56 52c-77 0 -133 -71 -146 -144c119 -3 202 16 202 92
zM263 564l-40 36l124 134c23 23 36 37 63 37c25 0 36 -9 51 -34l79 -141l-43 -32l-99 103z" />
    <glyph glyph-name="edieresis" unicode="&#xeb;" horiz-adv-x="495" 
d="M379 517c88 0 142 -39 142 -128c0 -149 -127 -196 -322 -188c-5 -64 14 -122 99 -122c63 0 107 24 134 41l25 -83c-19 -13 -90 -51 -186 -51c-135 0 -191 83 -191 195c0 184 110 336 299 336zM414 378c0 37 -21 52 -56 52c-77 0 -133 -71 -146 -144c119 -3 202 16 202 92
zM417 636c0 41 34 76 81 76c36 0 57 -24 57 -56c0 -43 -36 -75 -80 -75c-37 0 -58 22 -58 55zM220 636c0 41 33 76 80 76c36 0 58 -24 58 -56c0 -43 -37 -75 -81 -75c-36 0 -57 22 -57 55z" />
    <glyph glyph-name="igrave" unicode="&#xec;" horiz-adv-x="288" 
d="M214 788l89 -198l-45 -26l-103 113c-19 19 -24 33 -24 45c0 27 13 40 45 52zM119 504h171l-72 -409c-3 -19 0 -23 19 -22l39 1l-14 -75c-21 -7 -59 -11 -82 -11c-76 0 -94 41 -81 109l54 299c4 23 0 27 -19 30l-29 2z" />
    <glyph glyph-name="iacute" unicode="&#xed;" horiz-adv-x="288" 
d="M155 602l148 187l43 -19c18 -7 27 -19 27 -34c0 -24 -13 -35 -40 -56l-143 -112zM119 504h171l-72 -409c-3 -19 0 -23 19 -22l39 1l-14 -75c-21 -7 -59 -11 -82 -11c-76 0 -94 41 -81 109l54 299c4 23 0 27 -19 30l-29 2z" />
    <glyph glyph-name="icircumflex" unicode="&#xee;" horiz-adv-x="288" 
d="M119 504h171l-72 -409c-3 -19 0 -23 19 -22l39 1l-14 -75c-21 -7 -59 -11 -82 -11c-76 0 -94 41 -81 109l54 299c4 23 0 27 -19 30l-29 2zM115 564l-40 36l124 134c23 23 36 37 63 37c25 0 36 -9 51 -34l79 -141l-43 -32l-99 103z" />
    <glyph glyph-name="idieresis" unicode="&#xef;" horiz-adv-x="288" 
d="M271 636c0 41 34 76 81 76c36 0 57 -24 57 -56c0 -43 -36 -75 -80 -75c-37 0 -58 22 -58 55zM74 636c0 41 33 76 80 76c36 0 58 -24 58 -56c0 -43 -37 -75 -81 -75c-36 0 -57 22 -57 55zM119 504h171l-72 -409c-3 -19 0 -23 19 -22l39 1l-14 -75c-21 -7 -59 -11 -82 -11
c-76 0 -94 41 -81 109l54 299c4 23 0 27 -19 30l-29 2z" />
    <glyph glyph-name="eth" unicode="&#xf0;" horiz-adv-x="519" 
d="M185 172c0 -63 27 -98 83 -98c68 0 119 68 142 191c3 17 4 38 7 57c-24 23 -60 35 -95 35c-109 0 -137 -114 -137 -185zM418 412c-4 45 -19 89 -43 122l-92 -57l-36 65l76 46c-25 17 -57 29 -96 36l39 92c69 -11 125 -35 165 -70l113 70l37 -68l-98 -59
c37 -56 51 -140 51 -219c0 -194 -83 -385 -278 -385c-128 0 -185 82 -185 190c0 157 97 269 243 269c47 0 84 -16 104 -32z" />
    <glyph glyph-name="ntilde" unicode="&#xf1;" horiz-adv-x="583" 
d="M378 420c-88 0 -113 -67 -124 -138l-51 -282h-117l70 396c4 21 0 26 -19 29l-29 3l14 76h161l-11 -67h1c37 52 83 80 155 80c100 0 151 -55 130 -174l-45 -249c-3 -19 1 -22 20 -22h20c4 0 8 0 13 1l-13 -74c-20 -7 -54 -11 -78 -11c-76 0 -93 40 -82 103l42 227
c11 53 5 102 -57 102zM275 597l-41 31c39 63 73 80 112 80c48 0 92 -28 127 -28c20 0 37 10 52 30l47 -29c-31 -59 -68 -82 -113 -82s-89 28 -127 28c-23 0 -36 -9 -57 -30z" />
    <glyph glyph-name="ograve" unicode="&#xf2;" horiz-adv-x="536" 
d="M279 76c116 0 143 164 143 251c0 64 -22 102 -78 102c-118 0 -143 -161 -143 -252c0 -59 17 -101 78 -101zM80 175c0 181 83 342 280 342c69 0 183 -27 183 -184c0 -180 -79 -347 -279 -347c-119 0 -184 64 -184 189zM367 788l89 -198l-45 -26l-103 113
c-19 19 -24 33 -24 45c0 27 13 40 45 52z" />
    <glyph glyph-name="oacute" unicode="&#xf3;" horiz-adv-x="536" 
d="M279 76c116 0 143 164 143 251c0 64 -22 102 -78 102c-118 0 -143 -161 -143 -252c0 -59 17 -101 78 -101zM80 175c0 181 83 342 280 342c69 0 183 -27 183 -184c0 -180 -79 -347 -279 -347c-119 0 -184 64 -184 189zM296 602l148 187l43 -19c18 -7 27 -19 27 -34
c0 -24 -13 -35 -40 -56l-143 -112z" />
    <glyph glyph-name="ocircumflex" unicode="&#xf4;" horiz-adv-x="536" 
d="M279 76c116 0 143 164 143 251c0 64 -22 102 -78 102c-118 0 -143 -161 -143 -252c0 -59 17 -101 78 -101zM80 175c0 181 83 342 280 342c69 0 183 -27 183 -184c0 -180 -79 -347 -279 -347c-119 0 -184 64 -184 189zM261 564l-40 36l124 134c23 23 36 37 63 37
c25 0 36 -9 51 -34l79 -141l-43 -32l-99 103z" />
    <glyph glyph-name="otilde" unicode="&#xf5;" horiz-adv-x="536" 
d="M279 76c116 0 143 164 143 251c0 64 -22 102 -78 102c-118 0 -143 -161 -143 -252c0 -59 17 -101 78 -101zM80 175c0 181 83 342 280 342c69 0 183 -27 183 -184c0 -180 -79 -347 -279 -347c-119 0 -184 64 -184 189zM258 597l-41 31c39 63 73 80 112 80
c48 0 92 -28 127 -28c20 0 37 10 52 30l47 -29c-31 -59 -68 -82 -113 -82s-89 28 -127 28c-23 0 -36 -9 -57 -30z" />
    <glyph glyph-name="odieresis" unicode="&#xf6;" horiz-adv-x="536" 
d="M279 76c116 0 143 164 143 251c0 64 -22 102 -78 102c-118 0 -143 -161 -143 -252c0 -59 17 -101 78 -101zM80 175c0 181 83 342 280 342c69 0 183 -27 183 -184c0 -180 -79 -347 -279 -347c-119 0 -184 64 -184 189zM416 636c0 41 34 76 81 76c36 0 57 -24 57 -56
c0 -43 -36 -75 -80 -75c-37 0 -58 22 -58 55zM219 636c0 41 33 76 80 76c36 0 58 -24 58 -56c0 -43 -37 -75 -81 -75c-36 0 -57 22 -57 55z" />
    <glyph glyph-name="oslash" unicode="&#xf8;" horiz-adv-x="536" 
d="M80 175c0 181 83 342 280 342c19 0 40 -1 61 -8l48 81l63 -37l-45 -77c32 -27 56 -71 56 -143c0 -180 -79 -347 -279 -347c-22 0 -43 3 -63 8l-52 -88l-63 37l49 83c-37 33 -55 82 -55 149zM201 177c0 -13 -1 -25 2 -36l168 284c-8 3 -16 4 -27 4
c-118 0 -143 -161 -143 -252zM279 76c116 0 143 164 143 251c0 13 -1 25 -3 35l-167 -283c8 -2 17 -3 27 -3z" />
    <glyph glyph-name="oslashacute" unicode="&#x1ff;" horiz-adv-x="536" 
d="M295 602l148 187l43 -19c18 -7 27 -19 27 -34c0 -24 -13 -35 -40 -56l-143 -112zM80 175c0 181 83 342 280 342c19 0 40 -1 61 -8l48 81l63 -37l-45 -77c32 -27 56 -71 56 -143c0 -180 -79 -347 -279 -347c-22 0 -43 3 -63 8l-52 -88l-63 37l49 83c-37 33 -55 82 -55 149
zM201 177c0 -13 -1 -25 2 -36l168 284c-8 3 -16 4 -27 4c-118 0 -143 -161 -143 -252zM279 76c116 0 143 164 143 251c0 13 -1 25 -3 35l-167 -283c8 -2 17 -3 27 -3z" />
    <glyph glyph-name="ugrave" unicode="&#xf9;" horiz-adv-x="573" 
d="M576 504l-73 -410c-3 -17 1 -21 20 -21c5 0 14 0 22 1c5 0 9 0 14 1l-13 -76c-19 -7 -53 -12 -74 -12c-49 0 -81 19 -77 78h-3c-35 -55 -91 -79 -151 -79c-111 0 -151 70 -132 177l41 234c4 21 -2 26 -19 29l-28 2l13 76h172l-58 -325c-11 -65 -3 -98 56 -98
c44 0 102 26 118 119l53 304h119zM363 788l89 -198l-45 -26l-103 113c-19 19 -24 33 -24 45c0 27 13 40 45 52z" />
    <glyph glyph-name="uacute" unicode="&#xfa;" horiz-adv-x="573" 
d="M576 504l-73 -410c-3 -17 1 -21 20 -21c5 0 14 0 22 1c5 0 9 0 14 1l-13 -76c-19 -7 -53 -12 -74 -12c-49 0 -81 19 -77 78h-3c-35 -55 -91 -79 -151 -79c-111 0 -151 70 -132 177l41 234c4 21 -2 26 -19 29l-28 2l13 76h172l-58 -325c-11 -65 -3 -98 56 -98
c44 0 102 26 118 119l53 304h119zM305 602l148 187l43 -19c18 -7 27 -19 27 -34c0 -24 -13 -35 -40 -56l-143 -112z" />
    <glyph glyph-name="ucircumflex" unicode="&#xfb;" horiz-adv-x="573" 
d="M576 504l-73 -410c-3 -17 1 -21 20 -21c5 0 14 0 22 1c5 0 9 0 14 1l-13 -76c-19 -7 -53 -12 -74 -12c-49 0 -81 19 -77 78h-3c-35 -55 -91 -79 -151 -79c-111 0 -151 70 -132 177l41 234c4 21 -2 26 -19 29l-28 2l13 76h172l-58 -325c-11 -65 -3 -98 56 -98
c44 0 102 26 118 119l53 304h119zM262 564l-40 36l124 134c23 23 36 37 63 37c25 0 36 -9 51 -34l79 -141l-43 -32l-99 103z" />
    <glyph glyph-name="udieresis" unicode="&#xfc;" horiz-adv-x="573" 
d="M576 504l-73 -410c-3 -17 1 -21 20 -21c5 0 14 0 22 1c5 0 9 0 14 1l-13 -76c-19 -7 -53 -12 -74 -12c-49 0 -81 19 -77 78h-3c-35 -55 -91 -79 -151 -79c-111 0 -151 70 -132 177l41 234c4 21 -2 26 -19 29l-28 2l13 76h172l-58 -325c-11 -65 -3 -98 56 -98
c44 0 102 26 118 119l53 304h119zM409 636c0 41 34 76 81 76c36 0 57 -24 57 -56c0 -43 -36 -75 -80 -75c-37 0 -58 22 -58 55zM212 636c0 41 33 76 80 76c36 0 58 -24 58 -56c0 -43 -37 -75 -81 -75c-36 0 -57 22 -57 55z" />
    <glyph glyph-name="yacute" unicode="&#xfd;" horiz-adv-x="566" 
d="M580 504l-81 -456c-35 -189 -109 -277 -261 -277c-85 0 -154 32 -154 124c0 76 46 122 137 165c-84 13 -120 66 -103 158l34 188c3 15 -3 22 -18 22c-4 0 -12 -1 -20 -1h-14l13 74c20 7 55 11 79 11c76 0 89 -41 78 -108l-31 -176c-11 -64 -6 -102 63 -102
c47 0 98 35 109 95l50 283h119zM195 -89c0 -33 19 -50 58 -50c71 0 105 56 121 147l15 79c-20 -20 -42 -35 -70 -52c-88 -51 -124 -72 -124 -124zM308 602l148 187l43 -19c18 -7 27 -19 27 -34c0 -24 -13 -35 -40 -56l-143 -112z" />
    <glyph glyph-name="thorn" unicode="&#xfe;" horiz-adv-x="563" 
d="M205 15l-42 -232h-118l145 823c4 21 -2 27 -19 28l-32 4l14 75h164l-45 -270h1c36 49 87 74 150 74c103 0 147 -83 147 -184c0 -204 -92 -347 -261 -347c-41 0 -79 12 -104 29zM372 425c-49 0 -98 -29 -117 -126l-35 -192c25 -19 54 -29 83 -29c101 0 143 122 143 237
c0 47 -6 110 -74 110z" />
    <glyph glyph-name="ydieresis" unicode="&#xff;" horiz-adv-x="566" 
d="M580 504l-81 -456c-35 -189 -109 -277 -261 -277c-85 0 -154 32 -154 124c0 76 46 122 137 165c-84 13 -120 66 -103 158l34 188c3 15 -3 22 -18 22c-4 0 -12 -1 -20 -1h-14l13 74c20 7 55 11 79 11c76 0 89 -41 78 -108l-31 -176c-11 -64 -6 -102 63 -102
c47 0 98 35 109 95l50 283h119zM195 -89c0 -33 19 -50 58 -50c71 0 105 56 121 147l15 79c-20 -20 -42 -35 -70 -52c-88 -51 -124 -72 -124 -124zM414 636c0 41 34 76 81 76c36 0 57 -24 57 -56c0 -43 -36 -75 -80 -75c-37 0 -58 22 -58 55zM217 636c0 41 33 76 80 76
c36 0 58 -24 58 -56c0 -43 -37 -75 -81 -75c-36 0 -57 22 -57 55z" />
    <glyph glyph-name="Amacron" unicode="&#x100;" horiz-adv-x="669" 
d="M494 81l-19 108h-226l-55 -107l51 -3l-14 -79h-221l13 75l29 4c19 3 24 7 35 27l245 474l-52 6l14 79h221l103 -571c3 -17 6 -22 26 -21l38 1l-13 -74c-20 -7 -52 -11 -76 -11c-71 0 -91 32 -99 92zM426 556l-142 -283h186l-42 283h-2zM289 736l14 85h286l-14 -85h-286z
" />
    <glyph glyph-name="amacron" unicode="&#x101;" horiz-adv-x="558" 
d="M553 481l-67 -389c-3 -16 0 -21 19 -21c3 0 13 0 21 1c5 0 10 0 16 1l-13 -74c-19 -7 -53 -11 -74 -11c-59 0 -78 33 -73 72h-3c-27 -43 -79 -74 -147 -74c-117 0 -163 76 -163 180c0 202 99 351 310 351c43 0 107 -8 174 -36zM267 73c53 0 103 36 118 117l39 226
c-19 8 -39 13 -66 13c-127 0 -166 -141 -166 -256c0 -52 13 -100 75 -100zM251 608l15 86h286l-15 -86h-286z" />
    <glyph glyph-name="Abreve" unicode="&#x102;" horiz-adv-x="669" 
d="M494 81l-19 108h-226l-55 -107l51 -3l-14 -79h-221l13 75l29 4c19 3 24 7 35 27l245 474l-52 6l14 79h221l103 -571c3 -17 6 -22 26 -21l38 1l-13 -74c-20 -7 -52 -11 -76 -11c-71 0 -91 32 -99 92zM426 556l-142 -283h186l-42 283h-2zM543 875l73 -25
c-33 -85 -90 -130 -181 -130c-97 0 -142 61 -147 128l78 24c7 -56 33 -76 77 -76c41 0 71 19 100 79z" />
    <glyph glyph-name="abreve" unicode="&#x103;" horiz-adv-x="565" 
d="M564 481l-67 -389c-3 -16 0 -21 19 -21c3 0 13 0 21 1c5 0 10 0 16 1l-13 -74c-19 -7 -53 -11 -74 -11c-59 0 -78 33 -73 72h-3c-27 -43 -79 -74 -147 -74c-117 0 -163 76 -163 180c0 202 99 351 310 351c43 0 107 -8 174 -36zM278 73c53 0 103 36 118 117l39 226
c-19 8 -39 13 -66 13c-127 0 -166 -141 -166 -256c0 -52 13 -100 75 -100zM505 725l74 -18c-35 -92 -86 -142 -181 -142c-101 0 -140 69 -143 143l76 16c7 -60 32 -83 76 -83c39 0 71 20 98 84z" />
    <glyph glyph-name="Aogonek" unicode="&#x104;" horiz-adv-x="669" 
d="M494 81l-19 108h-226l-55 -107l51 -3l-14 -79h-221l13 75l29 4c19 3 24 7 35 27l245 474l-52 6l14 79h221l103 -571c3 -17 6 -22 26 -21l38 1l-13 -74c-56 -32 -117 -76 -117 -113c0 -17 8 -28 35 -28c20 0 39 4 54 11l10 -65c-23 -11 -62 -22 -99 -22
c-68 0 -90 41 -90 77c0 65 46 105 91 134c-39 11 -52 40 -59 87zM426 556l-142 -283h186l-42 283h-2z" />
    <glyph glyph-name="aogonek" unicode="&#x105;" horiz-adv-x="565" 
d="M564 481l-67 -389c-3 -16 0 -21 19 -21c3 0 13 0 21 1c5 0 10 0 16 1l-13 -74c-60 -33 -115 -71 -115 -112c0 -17 8 -28 35 -28c20 0 39 4 54 11l10 -65c-23 -11 -62 -22 -99 -22c-68 0 -90 41 -90 77c0 65 47 106 92 135c-28 12 -38 37 -34 65h-3
c-27 -43 -79 -74 -147 -74c-117 0 -163 76 -163 180c0 202 99 351 310 351c43 0 107 -8 174 -36zM278 73c53 0 103 36 118 117l39 226c-19 8 -39 13 -66 13c-127 0 -166 -141 -166 -256c0 -52 13 -100 75 -100z" />
    <glyph glyph-name="Cacute" unicode="&#x106;" horiz-adv-x="617" 
d="M540 571c-17 5 -43 8 -66 8c-157 0 -249 -111 -249 -310c0 -108 44 -184 160 -184c21 0 57 4 76 11c17 5 20 10 23 29l12 59l97 5l-28 -162c-55 -27 -129 -39 -193 -39c-179 0 -275 99 -275 279c0 299 197 410 381 410c64 0 138 -12 189 -39l-28 -160l-98 -7l12 73
c3 19 2 22 -13 27zM382 751l190 156l33 -31c10 -9 15 -20 15 -31c0 -23 -16 -38 -51 -55l-160 -80z" />
    <glyph glyph-name="cacute" unicode="&#x107;" horiz-adv-x="482" 
d="M359 423c-92 0 -155 -77 -155 -224c0 -67 27 -116 98 -116c37 0 78 14 123 43l33 -83c-43 -31 -108 -57 -184 -57c-127 0 -194 74 -194 199c0 248 149 332 291 332c60 0 112 -14 147 -39l-23 -136l-94 -6l9 53c3 17 1 24 -12 29c-11 4 -26 5 -39 5zM295 602l148 187
l43 -19c18 -7 27 -19 27 -34c0 -24 -13 -35 -40 -56l-143 -112z" />
    <glyph glyph-name="Ccircumflex" unicode="&#x108;" horiz-adv-x="617" 
d="M540 571c-17 5 -43 8 -66 8c-157 0 -249 -111 -249 -310c0 -108 44 -184 160 -184c21 0 57 4 76 11c17 5 20 10 23 29l12 59l97 5l-28 -162c-55 -27 -129 -39 -193 -39c-179 0 -275 99 -275 279c0 299 197 410 381 410c64 0 138 -12 189 -39l-28 -160l-98 -7l12 73
c3 19 2 22 -13 27zM359 708l-37 39l121 114c25 23 41 31 60 31c21 0 37 -11 60 -43l74 -105l-39 -36l-105 87z" />
    <glyph glyph-name="ccircumflex" unicode="&#x109;" horiz-adv-x="482" 
d="M359 423c-92 0 -155 -77 -155 -224c0 -67 27 -116 98 -116c37 0 78 14 123 43l33 -83c-43 -31 -108 -57 -184 -57c-127 0 -194 74 -194 199c0 248 149 332 291 332c60 0 112 -14 147 -39l-23 -136l-94 -6l9 53c3 17 1 24 -12 29c-11 4 -26 5 -39 5zM256 564l-40 36
l124 134c23 23 36 37 63 37c25 0 36 -9 51 -34l79 -141l-43 -32l-99 103z" />
    <glyph glyph-name="Cdotaccent" unicode="&#x10a;" horiz-adv-x="617" 
d="M540 571c-17 5 -43 8 -66 8c-157 0 -249 -111 -249 -310c0 -108 44 -184 160 -184c21 0 57 4 76 11c17 5 20 10 23 29l12 59l97 5l-28 -162c-55 -27 -129 -39 -193 -39c-179 0 -275 99 -275 279c0 299 197 410 381 410c64 0 138 -12 189 -39l-28 -160l-98 -7l12 73
c3 19 2 22 -13 27zM418 784c0 44 38 79 86 79c39 0 62 -23 62 -56c0 -47 -39 -81 -87 -81c-39 0 -61 23 -61 58z" />
    <glyph glyph-name="cdotaccent" unicode="&#x10b;" horiz-adv-x="482" 
d="M359 423c-92 0 -155 -77 -155 -224c0 -67 27 -116 98 -116c37 0 78 14 123 43l33 -83c-43 -31 -108 -57 -184 -57c-127 0 -194 74 -194 199c0 248 149 332 291 332c60 0 112 -14 147 -39l-23 -136l-94 -6l9 53c3 17 1 24 -12 29c-11 4 -26 5 -39 5zM313 636
c0 44 38 79 86 79c37 0 62 -23 62 -56c0 -47 -39 -81 -87 -81c-39 0 -61 23 -61 58z" />
    <glyph glyph-name="Ccaron" unicode="&#x10c;" horiz-adv-x="617" 
d="M540 571c-17 5 -43 8 -66 8c-157 0 -249 -111 -249 -310c0 -108 44 -184 160 -184c21 0 57 4 76 11c17 5 20 10 23 29l12 59l97 5l-28 -162c-55 -27 -129 -39 -193 -39c-179 0 -275 99 -275 279c0 299 197 410 381 410c64 0 138 -12 189 -39l-28 -160l-98 -7l12 73
c3 19 2 22 -13 27zM382 892l103 -87l135 87l37 -41l-124 -113c-25 -23 -41 -30 -60 -30s-33 6 -49 29l-85 120z" />
    <glyph glyph-name="ccaron" unicode="&#x10d;" horiz-adv-x="482" 
d="M359 423c-92 0 -155 -77 -155 -224c0 -67 27 -116 98 -116c37 0 78 14 123 43l33 -83c-43 -31 -108 -57 -184 -57c-127 0 -194 74 -194 199c0 248 149 332 291 332c60 0 112 -14 147 -39l-23 -136l-94 -6l9 53c3 17 1 24 -12 29c-11 4 -26 5 -39 5zM517 773l39 -35
l-125 -136c-23 -24 -38 -35 -62 -35s-35 9 -50 34l-79 140l44 32l98 -103z" />
    <glyph glyph-name="Dcaron" unicode="&#x10e;" horiz-adv-x="684" 
d="M47 0l13 75l31 3c19 3 26 7 30 30l83 474l-52 4l14 79h252c180 0 284 -89 284 -256c0 -300 -185 -409 -379 -409h-276zM325 576l-86 -486h85c160 0 252 122 252 305c0 114 -42 181 -168 181h-83zM344 892l103 -87l135 87l37 -41l-124 -113c-25 -23 -41 -30 -60 -30
s-33 6 -49 29l-85 120z" />
    <glyph glyph-name="dcaron" unicode="&#x10f;" horiz-adv-x="645" 
d="M606 713l-109 -622c-3 -16 1 -21 20 -21l36 2l-13 -74c-19 -7 -54 -11 -75 -11c-59 0 -77 32 -72 73h-3c-31 -43 -80 -74 -152 -74c-112 0 -158 76 -158 180c0 202 101 351 295 351c21 0 54 -2 78 -9l17 98c4 21 -3 26 -20 29l-34 3l14 75h176zM277 75
c56 0 106 41 122 129l37 212c-19 9 -42 13 -67 13c-124 0 -166 -149 -166 -258c0 -50 13 -96 74 -96zM607 542l67 201c12 1 34 1 49 1c45 0 53 -33 29 -69l-95 -148z" />
    <glyph glyph-name="Dcroat" unicode="&#x110;" horiz-adv-x="684" 
d="M84 292l15 85h69l36 205l-52 4l14 79h252c180 0 284 -89 284 -256c0 -300 -185 -409 -379 -409h-276l13 75l31 3c19 3 26 7 30 30l32 184h-69zM325 576l-36 -199h172l-16 -85h-171l-35 -202h85c160 0 252 122 252 305c0 114 -42 181 -168 181h-83z" />
    <glyph glyph-name="dcroat" unicode="&#x111;" horiz-adv-x="567" 
d="M606 713l-18 -103h56l-13 -77h-57l-77 -442c-3 -16 1 -21 20 -21l36 2l-13 -74c-19 -7 -55 -11 -76 -11c-59 0 -76 32 -71 73h-3c-31 -43 -80 -74 -152 -74c-112 0 -158 76 -158 179c0 200 95 325 290 325c23 0 54 -2 78 -9l10 52h-170l13 77h171c4 19 -3 21 -18 24
l-35 5l14 74h173zM277 75c56 0 106 41 122 129l32 185c-19 9 -42 13 -67 13c-123 0 -161 -123 -161 -231c0 -50 13 -96 74 -96z" />
    <glyph glyph-name="Emacron" unicode="&#x112;" horiz-adv-x="559" 
d="M47 0l13 75l31 3c21 3 27 11 31 35l82 469l-52 4l14 79h454l-27 -154l-98 -5l8 46c3 19 -1 24 -21 24h-157l-34 -190h240l-16 -92h-240l-36 -205h166c19 0 23 4 28 24l10 46l98 3l-29 -162h-465zM274 736l14 85h286l-14 -85h-286z" />
    <glyph glyph-name="emacron" unicode="&#x113;" horiz-adv-x="482" 
d="M370 517c88 0 142 -39 142 -128c0 -149 -127 -196 -322 -188c-5 -64 14 -122 99 -122c63 0 107 24 134 41l25 -83c-19 -13 -90 -51 -186 -51c-135 0 -191 83 -191 195c0 184 110 336 299 336zM405 378c0 37 -21 52 -56 52c-77 0 -133 -71 -146 -144c119 -3 202 16 202 92
zM229 608l15 86h286l-15 -86h-286z" />
    <glyph glyph-name="Ebreve" unicode="&#x114;" horiz-adv-x="559" 
d="M47 0l13 75l31 3c21 3 27 11 31 35l82 469l-52 4l14 79h454l-27 -154l-98 -5l8 46c3 19 -1 24 -21 24h-157l-34 -190h240l-16 -92h-240l-36 -205h166c19 0 23 4 28 24l10 46l98 3l-29 -162h-465zM530 875l73 -25c-33 -85 -90 -130 -181 -130c-97 0 -142 61 -147 128
l78 24c7 -56 33 -76 77 -76c41 0 71 19 100 79z" />
    <glyph glyph-name="ebreve" unicode="&#x115;" horiz-adv-x="495" 
d="M379 517c88 0 142 -39 142 -128c0 -149 -127 -196 -322 -188c-5 -64 14 -122 99 -122c63 0 107 24 134 41l25 -83c-19 -13 -90 -51 -186 -51c-135 0 -191 83 -191 195c0 184 110 336 299 336zM414 378c0 37 -21 52 -56 52c-77 0 -133 -71 -146 -144c119 -3 202 16 202 92
zM491 725l74 -18c-35 -92 -86 -142 -181 -142c-101 0 -140 69 -143 143l76 16c7 -60 32 -83 76 -83c39 0 71 20 98 84z" />
    <glyph glyph-name="Edotaccent" unicode="&#x116;" horiz-adv-x="559" 
d="M47 0l13 75l31 3c21 3 27 11 31 35l82 469l-52 4l14 79h454l-27 -154l-98 -5l8 46c3 19 -1 24 -21 24h-157l-34 -190h240l-16 -92h-240l-36 -205h166c19 0 23 4 28 24l10 46l98 3l-29 -162h-465zM351 784c0 44 38 79 86 79c39 0 62 -23 62 -56c0 -47 -39 -81 -87 -81
c-39 0 -61 23 -61 58z" />
    <glyph glyph-name="edotaccent" unicode="&#x117;" horiz-adv-x="495" 
d="M379 517c88 0 142 -39 142 -128c0 -149 -127 -196 -322 -188c-5 -64 14 -122 99 -122c63 0 107 24 134 41l25 -83c-19 -13 -90 -51 -186 -51c-135 0 -191 83 -191 195c0 184 110 336 299 336zM414 378c0 37 -21 52 -56 52c-77 0 -133 -71 -146 -144c119 -3 202 16 202 92
zM315 636c0 44 38 79 86 79c37 0 62 -23 62 -56c0 -47 -39 -81 -87 -81c-39 0 -61 23 -61 58z" />
    <glyph glyph-name="Eogonek" unicode="&#x118;" horiz-adv-x="559" 
d="M47 0l13 75l31 3c21 3 27 11 31 35l82 469l-52 4l14 79h454l-27 -154l-98 -5l8 46c3 19 -1 24 -21 24h-157l-34 -190h240l-16 -92h-240l-36 -205h166c19 0 23 4 28 24l10 46l98 3l-28 -161c-46 -25 -115 -74 -115 -111c0 -20 8 -31 35 -31c20 0 39 4 54 11l10 -65
c-23 -11 -62 -22 -99 -22c-68 0 -90 41 -90 77c0 68 53 111 100 140h-361z" />
    <glyph glyph-name="eogonek" unicode="&#x119;" horiz-adv-x="495" 
d="M379 517c88 0 142 -39 142 -128c0 -149 -142 -192 -322 -184c-5 -67 14 -126 99 -126c63 0 107 24 134 41l25 -83c-11 -8 -38 -22 -75 -39c-56 -24 -115 -70 -115 -111c0 -17 8 -28 35 -28c20 0 39 4 54 11l10 -65c-23 -11 -62 -22 -99 -22c-68 0 -90 41 -90 77
c0 59 38 98 79 127c-124 5 -176 86 -176 194c0 184 110 336 299 336zM414 378c0 37 -21 52 -56 52c-77 0 -133 -70 -146 -147c119 -3 202 15 202 95z" />
    <glyph glyph-name="Ecaron" unicode="&#x11a;" horiz-adv-x="559" 
d="M47 0l13 75l31 3c21 3 27 11 31 35l82 469l-52 4l14 79h454l-27 -154l-98 -5l8 46c3 19 -1 24 -21 24h-157l-34 -190h240l-16 -92h-240l-36 -205h166c19 0 23 4 28 24l10 46l98 3l-29 -162h-465zM320 892l103 -87l135 87l37 -41l-124 -113c-25 -23 -41 -30 -60 -30
s-33 6 -49 29l-85 120z" />
    <glyph glyph-name="ecaron" unicode="&#x11b;" horiz-adv-x="495" 
d="M379 517c88 0 142 -39 142 -128c0 -149 -127 -196 -322 -188c-5 -64 14 -122 99 -122c63 0 107 24 134 41l25 -83c-19 -13 -90 -51 -186 -51c-135 0 -191 83 -191 195c0 184 110 336 299 336zM414 378c0 37 -21 52 -56 52c-77 0 -133 -71 -146 -144c119 -3 202 16 202 92
zM522 773l39 -35l-125 -136c-23 -24 -38 -35 -62 -35s-35 9 -50 34l-79 140l44 32l98 -103z" />
    <glyph glyph-name="Gcircumflex" unicode="&#x11c;" horiz-adv-x="661" 
d="M372 84c39 0 81 10 108 23l29 160l-65 4l13 78h234l-13 -75l-32 -4c-19 -3 -23 -8 -26 -28l-35 -198c-61 -39 -151 -56 -226 -56c-169 0 -263 95 -263 270c0 301 187 419 390 419c79 0 159 -17 200 -40l-28 -159l-98 -7l13 71c3 17 2 23 -13 28c-19 5 -53 9 -81 9
c-176 0 -255 -131 -255 -322c0 -108 48 -173 148 -173zM370 708l-37 39l121 114c25 23 41 31 60 31c21 0 37 -11 60 -43l74 -105l-39 -36l-105 87z" />
    <glyph glyph-name="gcircumflex" unicode="&#x11d;" horiz-adv-x="548" 
d="M225 -229c-100 0 -150 50 -150 122c0 91 72 133 152 165c-73 8 -140 55 -140 167c0 175 122 292 290 292c60 0 133 -12 185 -36l-65 -371l-20 -105c-33 -156 -109 -234 -252 -234zM399 224l33 193c-21 8 -45 11 -68 11c-116 0 -159 -108 -159 -203c0 -59 17 -105 85 -105
c53 0 97 33 109 104zM185 -87c0 -36 21 -54 60 -54c77 0 103 75 119 160l10 57c-23 -24 -41 -38 -85 -59c-57 -27 -104 -50 -104 -104zM279 564l-40 36l124 134c23 23 36 37 63 37c25 0 36 -9 51 -34l79 -141l-43 -32l-99 103z" />
    <glyph glyph-name="Gbreve" unicode="&#x11e;" horiz-adv-x="661" 
d="M372 84c39 0 81 10 108 23l29 160l-65 4l13 78h234l-13 -75l-32 -4c-19 -3 -23 -8 -26 -28l-35 -198c-61 -39 -151 -56 -226 -56c-169 0 -263 95 -263 270c0 301 187 419 390 419c79 0 159 -17 200 -40l-28 -159l-98 -7l13 71c3 17 2 23 -13 28c-19 5 -53 9 -81 9
c-176 0 -255 -131 -255 -322c0 -108 48 -173 148 -173zM598 875l73 -25c-33 -85 -90 -130 -181 -130c-97 0 -142 61 -147 128l78 24c7 -56 33 -76 77 -76c41 0 71 19 100 79z" />
    <glyph glyph-name="gbreve" unicode="&#x11f;" horiz-adv-x="548" 
d="M225 -229c-100 0 -150 50 -150 122c0 91 72 133 152 165c-73 8 -140 55 -140 167c0 175 122 292 290 292c60 0 133 -12 185 -36l-65 -371l-20 -105c-33 -156 -109 -234 -252 -234zM399 224l33 193c-21 8 -45 11 -68 11c-116 0 -159 -108 -159 -203c0 -59 17 -105 85 -105
c53 0 97 33 109 104zM185 -87c0 -36 21 -54 60 -54c77 0 103 75 119 160l10 57c-23 -24 -41 -38 -85 -59c-57 -27 -104 -50 -104 -104zM495 725l74 -18c-35 -92 -86 -142 -181 -142c-101 0 -140 69 -143 143l76 16c7 -60 32 -83 76 -83c39 0 71 20 98 84z" />
    <glyph glyph-name="Gdotaccent" unicode="&#x120;" horiz-adv-x="661" 
d="M372 84c39 0 81 10 108 23l29 160l-65 4l13 78h234l-13 -75l-32 -4c-19 -3 -23 -8 -26 -28l-35 -198c-61 -39 -151 -56 -226 -56c-169 0 -263 95 -263 270c0 301 187 419 390 419c79 0 159 -17 200 -40l-28 -159l-98 -7l13 71c3 17 2 23 -13 28c-19 5 -53 9 -81 9
c-176 0 -255 -131 -255 -322c0 -108 48 -173 148 -173zM421 784c0 44 38 79 86 79c39 0 62 -23 62 -56c0 -47 -39 -81 -87 -81c-39 0 -61 23 -61 58z" />
    <glyph glyph-name="gdotaccent" unicode="&#x121;" horiz-adv-x="548" 
d="M225 -229c-100 0 -150 50 -150 122c0 91 72 133 152 165c-73 8 -140 55 -140 167c0 175 122 292 290 292c60 0 133 -12 185 -36l-65 -371l-20 -105c-33 -156 -109 -234 -252 -234zM399 224l33 193c-21 8 -45 11 -68 11c-116 0 -159 -108 -159 -203c0 -59 17 -105 85 -105
c53 0 97 33 109 104zM185 -87c0 -36 21 -54 60 -54c77 0 103 75 119 160l10 57c-23 -24 -41 -38 -85 -59c-57 -27 -104 -50 -104 -104zM320 636c0 44 38 79 86 79c37 0 62 -23 62 -56c0 -47 -39 -81 -87 -81c-39 0 -61 23 -61 58z" />
    <glyph glyph-name="Gcommaaccent" unicode="&#x122;" horiz-adv-x="661" 
d="M372 84c39 0 81 10 108 23l29 160l-65 4l13 78h234l-13 -75l-32 -4c-19 -3 -23 -8 -26 -28l-35 -198c-61 -39 -151 -56 -226 -56c-169 0 -263 95 -263 270c0 301 187 419 390 419c79 0 159 -17 200 -40l-28 -159l-98 -7l13 71c3 17 2 23 -13 28c-19 5 -53 9 -81 9
c-176 0 -255 -131 -255 -322c0 -108 48 -173 148 -173zM385 -178l-59 -108l-56 22l34 94c7 19 -3 24 -24 24h-17l21 76c102 32 141 -33 101 -108z" />
    <glyph glyph-name="gcommaaccent" unicode="&#x123;" horiz-adv-x="544" 
d="M222 -229c-100 0 -150 50 -150 122c0 91 72 133 152 165c-73 8 -140 55 -140 167c0 175 122 292 290 292c60 0 133 -12 185 -36l-65 -371l-20 -105c-33 -156 -109 -234 -252 -234zM396 224l33 193c-21 8 -45 11 -68 11c-116 0 -159 -108 -159 -203c0 -59 17 -105 85 -105
c53 0 97 33 109 104zM182 -87c0 -36 21 -54 60 -54c77 0 103 75 119 160l10 57c-23 -24 -41 -38 -85 -59c-57 -27 -104 -50 -104 -104zM348 682l60 108l56 -22l-34 -94c-7 -19 2 -24 23 -24h18l-22 -76c-101 -32 -144 33 -101 108z" />
    <glyph glyph-name="Hcircumflex" unicode="&#x124;" horiz-adv-x="726" 
d="M121 109l83 473l-52 4l14 79h230l-13 -76l-30 -3c-19 -3 -28 -7 -32 -30l-29 -167h281l34 193l-50 4l14 79h227l-13 -76l-30 -3c-19 -3 -27 -7 -31 -31l-83 -473l51 -3l-14 -79h-229l13 76l31 3c20 3 27 8 31 31l32 185h-281l-37 -213l51 -3l-14 -79h-228l13 75l31 3
c19 3 26 7 30 31zM377 708l-37 39l121 114c25 23 41 31 60 31c21 0 37 -11 60 -43l74 -105l-39 -36l-105 87z" />
    <glyph glyph-name="hcircumflex" unicode="&#x125;" horiz-adv-x="581" 
d="M375 421c-66 0 -107 -46 -123 -139l-50 -282h-118l106 605c4 23 0 26 -19 29l-33 4l14 75h172l-48 -276h1c32 47 78 80 150 80c100 0 150 -55 129 -174l-45 -248c-3 -19 2 -22 19 -22h19c4 0 9 0 14 1l-13 -74c-20 -7 -53 -11 -77 -11c-76 0 -93 40 -82 103l42 226
c11 53 6 103 -58 103zM127 740l-37 39l121 114c25 23 41 31 60 31c21 0 37 -11 60 -43l74 -105l-39 -36l-105 87z" />
    <glyph glyph-name="Hbar" unicode="&#x126;" horiz-adv-x="726" 
d="M109 444l14 78h70l11 60l-52 4l14 79h230l-13 -76l-30 -3c-19 -3 -28 -7 -32 -30l-6 -34h281l11 60l-50 4l14 79h227l-13 -76l-30 -3c-19 -3 -27 -7 -31 -31l-6 -33h70l-13 -78h-71l-63 -362l51 -3l-14 -79h-229l13 76l31 3c20 3 27 8 31 31l32 185h-281l-37 -213l51 -3
l-14 -79h-228l13 75l31 3c19 3 26 7 30 31l59 335h-71zM292 389h281l9 55h-281z" />
    <glyph glyph-name="hbar" unicode="&#x127;" horiz-adv-x="581" 
d="M370 401c-66 0 -107 -46 -123 -139l-45 -262h-118l93 533h-71l13 77h72c4 19 -1 21 -20 24l-33 4l14 75h172l-18 -103h157l-13 -77h-157l-22 -116h1c32 47 78 80 150 80c100 0 150 -55 129 -174l-40 -228c-3 -19 2 -22 19 -22h19c4 0 9 0 14 1l-13 -74
c-20 -7 -53 -11 -77 -11c-76 0 -93 40 -82 103l37 206c11 53 6 103 -58 103z" />
    <glyph glyph-name="Itilde" unicode="&#x128;" horiz-adv-x="321" 
d="M121 111l82 471l-52 4l14 79h230l-13 -76l-31 -3c-19 -3 -26 -6 -30 -29l-84 -475l53 -3l-14 -79h-231l13 75l30 3c23 3 29 8 33 33zM172 730l-41 31c39 63 73 80 112 80c48 0 92 -28 127 -28c20 0 37 10 52 30l47 -29c-31 -59 -68 -82 -113 -82s-89 28 -127 28
c-23 0 -36 -9 -57 -30z" />
    <glyph glyph-name="itilde" unicode="&#x129;" horiz-adv-x="288" 
d="M114 597l-41 31c39 63 73 80 112 80c48 0 92 -28 127 -28c20 0 37 10 52 30l47 -29c-31 -59 -68 -82 -113 -82s-89 28 -127 28c-23 0 -36 -9 -57 -30zM119 504h171l-72 -409c-3 -19 0 -23 19 -22l39 1l-14 -75c-21 -7 -59 -11 -82 -11c-76 0 -94 41 -81 109l54 299
c4 23 0 27 -19 30l-29 2z" />
    <glyph glyph-name="Imacron" unicode="&#x12a;" horiz-adv-x="321" 
d="M121 111l82 471l-52 4l14 79h230l-13 -76l-31 -3c-19 -3 -26 -6 -30 -29l-84 -475l53 -3l-14 -79h-231l13 75l30 3c23 3 29 8 33 33zM145 736l14 85h286l-14 -85h-286z" />
    <glyph glyph-name="imacron" unicode="&#x12b;" horiz-adv-x="288" 
d="M87 608l15 86h286l-15 -86h-286zM119 504h171l-72 -409c-3 -19 0 -23 19 -22l39 1l-14 -75c-21 -7 -59 -11 -82 -11c-76 0 -94 41 -81 109l54 299c4 23 0 27 -19 30l-29 2z" />
    <glyph glyph-name="Ibreve" unicode="&#x12c;" horiz-adv-x="321" 
d="M121 111l82 471l-52 4l14 79h230l-13 -76l-31 -3c-19 -3 -26 -6 -30 -29l-84 -475l53 -3l-14 -79h-231l13 75l30 3c23 3 29 8 33 33zM402 875l73 -25c-33 -85 -90 -130 -181 -130c-97 0 -142 61 -147 128l78 24c7 -56 33 -76 77 -76c41 0 71 19 100 79z" />
    <glyph glyph-name="ibreve" unicode="&#x12d;" horiz-adv-x="288" 
d="M339 725l74 -18c-35 -92 -86 -142 -181 -142c-101 0 -140 69 -143 143l76 16c7 -60 32 -83 76 -83c39 0 71 20 98 84zM119 504h171l-72 -409c-3 -19 0 -23 19 -22l39 1l-14 -75c-21 -7 -59 -11 -82 -11c-76 0 -94 41 -81 109l54 299c4 23 0 27 -19 30l-29 2z" />
    <glyph glyph-name="Iogonek" unicode="&#x12e;" horiz-adv-x="321" 
d="M121 111l82 471l-52 4l14 79h230l-13 -76l-31 -3c-19 -3 -26 -6 -30 -29l-84 -475l53 -3l-14 -79c-57 -30 -118 -71 -118 -113c0 -17 8 -28 35 -28c20 0 39 4 54 11l10 -65c-23 -11 -62 -22 -99 -22c-68 0 -90 41 -90 77c0 68 53 111 100 140h-123l13 75l30 3
c23 3 29 8 33 33z" />
    <glyph glyph-name="iogonek" unicode="&#x12f;" horiz-adv-x="287" 
d="M118 504h171l-72 -409c-3 -19 0 -22 19 -22h22c5 0 11 0 17 1l-14 -75c-63 -31 -118 -73 -118 -112c0 -17 8 -28 35 -28c20 0 39 4 54 11l10 -65c-23 -11 -62 -22 -99 -22c-68 0 -90 41 -90 77c0 61 44 104 88 133c-44 12 -54 48 -43 104l54 299c4 23 0 27 -19 30l-29 2z
M173 636c0 44 38 79 86 79c39 0 62 -23 62 -56c0 -47 -39 -81 -87 -81c-39 0 -61 23 -61 58z" />
    <glyph glyph-name="Idotaccent" unicode="&#x130;" horiz-adv-x="321" 
d="M121 111l82 471l-52 4l14 79h230l-13 -76l-31 -3c-19 -3 -26 -6 -30 -29l-84 -475l53 -3l-14 -79h-231l13 75l30 3c23 3 29 8 33 33zM227 784c0 44 38 79 86 79c39 0 62 -23 62 -56c0 -47 -39 -81 -87 -81c-39 0 -61 23 -61 58z" />
    <glyph glyph-name="idotaccent" horiz-adv-x="289" 
d="M175 636c0 44 38 79 86 79c39 0 62 -23 62 -56c0 -47 -39 -81 -87 -81c-39 0 -61 23 -61 58zM120 504h171l-72 -409c-3 -19 0 -22 19 -22h22c5 0 11 0 17 1l-14 -75c-21 -7 -59 -11 -82 -11c-76 0 -94 41 -81 109l54 299c4 23 0 27 -19 30l-29 2z" />
    <glyph glyph-name="dotlessi" unicode="&#x131;" horiz-adv-x="288" 
d="M119 504h171l-72 -409c-3 -19 0 -23 19 -22l39 1l-14 -75c-21 -7 -59 -11 -82 -11c-76 0 -94 41 -81 109l54 299c4 23 0 27 -19 30l-29 2z" />
    <glyph glyph-name="IJ" unicode="&#x132;" horiz-adv-x="813" 
d="M121 111l82 471l-52 4l14 79h230l-13 -76l-31 -3c-19 -3 -26 -6 -30 -29l-84 -475l53 -3l-14 -79h-231l13 75l30 3c23 3 29 8 33 33zM823 559l-57 -320c-5 -31 -14 -78 -23 -111c-27 -94 -78 -140 -200 -140c-75 0 -151 21 -180 40l28 159l98 8l-13 -78
c-3 -17 -2 -23 11 -27c12 -4 34 -8 53 -8c65 0 84 35 94 93l71 407l-72 5l14 78h250l-14 -76l-30 -3c-19 -3 -26 -7 -30 -27z" />
    <glyph glyph-name="ij" unicode="&#x133;" horiz-adv-x="565" 
d="M173 636c0 44 38 79 86 79c39 0 62 -23 62 -56c0 -47 -39 -81 -87 -81c-39 0 -61 23 -61 58zM118 504h171l-72 -409c-3 -19 0 -22 19 -22h22c5 0 11 0 17 1l-14 -75c-21 -7 -59 -11 -82 -11c-76 0 -94 41 -81 109l54 299c4 23 0 27 -19 30l-29 2zM574 504l-99 -556
c-16 -88 -34 -177 -175 -177c-43 0 -90 12 -118 31l39 85c21 -11 41 -17 65 -17c41 0 60 21 71 81l79 445c4 21 0 27 -19 30l-32 2l13 76h176zM455 636c0 44 38 79 86 79c39 0 62 -23 62 -56c0 -47 -39 -81 -87 -81c-39 0 -61 23 -61 58z" />
    <glyph glyph-name="Jcircumflex" unicode="&#x134;" horiz-adv-x="491" 
d="M501 559l-57 -320c-5 -31 -14 -78 -23 -111c-27 -94 -78 -140 -200 -140c-75 0 -151 21 -180 40l28 159l98 8l-13 -78c-3 -17 -2 -23 11 -27c12 -4 34 -8 53 -8c65 0 84 35 94 93l71 407l-72 5l14 78h250l-14 -76l-30 -3c-19 -3 -26 -7 -30 -27zM347 708l-37 39l121 114
c25 23 41 31 60 31c21 0 37 -11 60 -43l74 -105l-39 -36l-105 87z" />
    <glyph glyph-name="jcircumflex" unicode="&#x135;" horiz-adv-x="284" 
d="M293 504l-99 -556c-16 -88 -34 -177 -175 -177c-43 0 -90 12 -118 31l39 85c21 -11 41 -17 65 -17c41 0 60 21 71 81l79 445c4 21 0 27 -19 30l-32 2l13 76h176zM107 564l-40 36l124 134c23 23 36 37 63 37c25 0 36 -9 51 -34l79 -141l-43 -32l-99 103z" />
    <glyph glyph-name="Kcommaaccent" unicode="&#x136;" horiz-adv-x="652" 
d="M274 0h-227l13 75l34 4c19 3 24 13 27 30l83 473l-53 4l13 79h226l-13 -76l-29 -3c-16 -1 -25 -10 -28 -27l-40 -217l261 239v3l-48 3l14 78h217l-13 -75l-27 -3c-19 -3 -29 -12 -46 -28l-175 -169l117 -287c7 -19 12 -26 31 -26h21c5 0 11 0 18 1l-12 -78
c-19 -7 -52 -11 -80 -11c-61 0 -78 26 -97 77l-96 244l-106 -94l-23 -134l52 -3zM393 -178l-59 -108l-56 22l34 94c7 19 -3 24 -24 24h-17l21 76c102 32 141 -33 101 -108z" />
    <glyph glyph-name="kcommaaccent" unicode="&#x137;" horiz-adv-x="557" 
d="M84 0l106 606c4 23 0 25 -19 28l-32 4l14 75h174l-57 -319h3c41 83 106 123 179 123c84 0 121 -38 121 -113c0 -80 -47 -149 -143 -192l40 -110c7 -17 12 -25 29 -25h24c5 0 11 0 16 1l-13 -78c-19 -7 -50 -11 -81 -11c-56 0 -73 25 -89 78l-39 116
c-19 -5 -53 -9 -84 -10l-31 -173h-118zM450 382c0 28 -13 46 -46 46c-55 0 -118 -53 -161 -180c125 11 207 58 207 134zM336 -178l-60 -108l-56 22l34 94c7 19 -2 24 -23 24h-18l22 76c101 32 141 -33 101 -108z" />
    <glyph glyph-name="kgreenlandic" unicode="&#x138;" horiz-adv-x="557" 
d="M84 0l70 397c4 23 0 25 -19 28l-32 4l14 75h174l-21 -110h3c41 83 106 123 179 123c84 0 121 -38 121 -113c0 -80 -47 -149 -143 -192l40 -110c7 -17 12 -25 29 -25h24c5 0 11 0 16 1l-13 -78c-19 -7 -50 -11 -81 -11c-56 0 -73 25 -89 78l-39 116c-19 -5 -53 -9 -84 -10
l-31 -173h-118zM450 382c0 28 -13 46 -46 46c-55 0 -118 -53 -161 -180c125 11 207 58 207 134z" />
    <glyph glyph-name="Lacute" unicode="&#x139;" horiz-adv-x="549" 
d="M122 107l83 475l-53 4l14 79h234l-13 -75l-33 -4c-20 -3 -27 -5 -32 -32l-82 -465h160c23 0 28 7 32 27l13 59l97 4l-31 -179h-464l13 75l31 3c19 3 27 6 31 29zM207 750l190 156l33 -31c10 -9 15 -20 15 -31c0 -23 -16 -38 -51 -55l-160 -80z" />
    <glyph glyph-name="lacute" unicode="&#x13a;" horiz-adv-x="290" 
d="M159 713h170l-109 -618c-3 -19 2 -22 19 -22h23c5 0 11 0 16 1l-13 -75c-23 -7 -59 -11 -83 -11c-76 0 -93 41 -81 109l92 509c4 23 -1 25 -20 28l-28 4zM165 788l190 156l33 -31c10 -9 15 -20 15 -31c0 -23 -16 -38 -51 -55l-160 -80z" />
    <glyph glyph-name="Lcommaaccent" unicode="&#x13b;" horiz-adv-x="549" 
d="M122 107l83 475l-53 4l14 79h234l-13 -75l-33 -4c-20 -3 -27 -5 -32 -32l-82 -465h160c23 0 28 7 32 27l13 59l97 4l-31 -179h-464l13 75l31 3c19 3 27 6 31 29zM321 -178l-59 -108l-56 22l34 94c7 19 -3 24 -24 24h-17l21 76c102 32 141 -33 101 -108z" />
    <glyph glyph-name="lcommaaccent" unicode="&#x13c;" horiz-adv-x="290" 
d="M159 713h170l-109 -618c-3 -19 2 -22 19 -22h23c5 0 11 0 16 1l-13 -75c-23 -7 -59 -11 -83 -11c-76 0 -93 41 -81 109l92 509c4 23 -1 25 -20 28l-28 4zM204 -178l-60 -108l-56 22l34 94c7 19 -2 24 -23 24h-18l22 76c101 32 141 -33 101 -108z" />
    <glyph glyph-name="Lcaron" unicode="&#x13d;" horiz-adv-x="549" 
d="M122 107l83 475l-53 4l14 79h234l-13 -75l-33 -4c-20 -3 -27 -5 -32 -32l-82 -465h160c23 0 28 7 32 27l13 59l97 4l-31 -179h-464l13 75l31 3c19 3 27 6 31 29zM422 507l67 201c12 1 34 1 49 1c45 0 53 -33 29 -69l-95 -148z" />
    <glyph glyph-name="lcaron" unicode="&#x13e;" horiz-adv-x="343" 
d="M159 713h170l-109 -618c-3 -19 2 -22 19 -22h23c5 0 11 0 16 1l-13 -75c-23 -7 -59 -11 -83 -11c-76 0 -93 41 -81 109l92 509c4 23 -1 25 -20 28l-28 4zM329 546l67 201c12 1 34 1 49 1c45 0 53 -33 29 -69l-95 -148z" />
    <glyph glyph-name="Ldot" unicode="&#x13f;" horiz-adv-x="549" 
d="M122 107l83 475l-53 4l14 79h234l-13 -75l-33 -4c-20 -3 -27 -5 -32 -32l-82 -465h160c23 0 28 7 32 27l13 59l97 4l-31 -179h-464l13 75l31 3c19 3 27 6 31 29zM424 353c0 44 38 79 86 79c39 0 62 -23 62 -56c0 -47 -39 -81 -87 -81c-39 0 -61 23 -61 58z" />
    <glyph glyph-name="ldot" unicode="&#x140;" horiz-adv-x="412" 
d="M161 713h170l-109 -618c-3 -19 2 -22 19 -22h23c5 0 11 0 16 1l-13 -75c-23 -7 -59 -11 -83 -11c-76 0 -93 41 -81 109l92 509c4 23 -1 25 -20 28l-28 4zM336 351c0 44 38 79 86 79c39 0 62 -23 62 -56c0 -47 -39 -81 -87 -81c-39 0 -61 23 -61 58z" />
    <glyph glyph-name="Lslash" unicode="&#x141;" horiz-adv-x="549" 
d="M122 107l28 160l-86 -31l-7 82l109 40l39 224l-53 4l14 79h234l-13 -75l-33 -4c-20 -3 -27 -5 -32 -32l-29 -162l184 64l8 -81l-208 -73l-37 -213h160c23 0 28 7 32 27l13 59l97 4l-31 -179h-464l13 75l31 3c19 3 27 6 31 29z" />
    <glyph glyph-name="lslash" unicode="&#x142;" horiz-adv-x="310" 
d="M164 713h170l-48 -270l73 43l20 -75l-110 -65l-44 -251c-3 -19 2 -22 19 -22h23c5 0 11 0 16 1l-13 -75c-23 -7 -59 -11 -83 -11c-76 0 -93 41 -81 109l34 191l-66 -40l-21 74l105 63l40 221c4 23 -1 25 -20 28l-28 4z" />
    <glyph glyph-name="Nacute" unicode="&#x143;" horiz-adv-x="723" 
d="M729 556l-99 -556h-116l-209 483h-2l-70 -401l54 -3l-14 -79h-226l13 75l32 3c19 3 26 7 30 28l83 476l-52 4l14 79h176l204 -479h2l70 396l-55 4l14 79h225l-13 -76l-31 -3c-19 -3 -25 -3 -30 -30zM412 751l190 156l33 -31c10 -9 15 -20 15 -31c0 -23 -16 -38 -51 -55
l-160 -80z" />
    <glyph glyph-name="nacute" unicode="&#x144;" horiz-adv-x="583" 
d="M378 420c-88 0 -113 -67 -124 -138l-51 -282h-117l70 396c4 21 0 26 -19 29l-29 3l14 76h161l-11 -67h1c37 52 83 80 155 80c100 0 151 -55 130 -174l-45 -249c-3 -19 1 -22 20 -22h20c4 0 8 0 13 1l-13 -74c-20 -7 -54 -11 -78 -11c-76 0 -93 40 -82 103l42 227
c11 53 5 102 -57 102zM324 602l148 187l43 -19c18 -7 27 -19 27 -34c0 -24 -13 -35 -40 -56l-143 -112z" />
    <glyph glyph-name="Ncommaaccent" unicode="&#x145;" horiz-adv-x="723" 
d="M729 556l-99 -556h-116l-209 483h-2l-70 -401l54 -3l-14 -79h-226l13 75l32 3c19 3 26 7 30 28l83 476l-52 4l14 79h176l204 -479h2l70 396l-55 4l14 79h225l-13 -76l-31 -3c-19 -3 -25 -3 -30 -30zM421 -178l-59 -108l-56 22l34 94c7 19 -3 24 -24 24h-17l21 76
c102 32 141 -33 101 -108z" />
    <glyph glyph-name="ncommaaccent" unicode="&#x146;" horiz-adv-x="583" 
d="M378 420c-88 0 -113 -67 -124 -138l-51 -282h-117l70 396c4 21 0 26 -19 29l-29 3l14 76h161l-11 -67h1c37 52 83 80 155 80c100 0 151 -55 130 -174l-45 -249c-3 -19 1 -22 20 -22h20c4 0 8 0 13 1l-13 -74c-20 -7 -54 -11 -78 -11c-76 0 -93 40 -82 103l42 227
c11 53 5 102 -57 102zM337 -178l-60 -108l-56 22l34 94c7 19 -2 24 -23 24h-18l22 76c101 32 141 -33 101 -108z" />
    <glyph glyph-name="Ncaron" unicode="&#x147;" horiz-adv-x="723" 
d="M729 556l-99 -556h-116l-209 483h-2l-70 -401l54 -3l-14 -79h-226l13 75l32 3c19 3 26 7 30 28l83 476l-52 4l14 79h176l204 -479h2l70 396l-55 4l14 79h225l-13 -76l-31 -3c-19 -3 -25 -3 -30 -30zM396 892l103 -87l135 87l37 -41l-124 -113c-25 -23 -41 -30 -60 -30
s-33 6 -49 29l-85 120z" />
    <glyph glyph-name="ncaron" unicode="&#x148;" horiz-adv-x="583" 
d="M378 420c-88 0 -113 -67 -124 -138l-51 -282h-117l70 396c4 21 0 26 -19 29l-29 3l14 76h161l-11 -67h1c37 52 83 80 155 80c100 0 151 -55 130 -174l-45 -249c-3 -19 1 -22 20 -22h20c4 0 8 0 13 1l-13 -74c-20 -7 -54 -11 -78 -11c-76 0 -93 40 -82 103l42 227
c11 53 5 102 -57 102zM532 773l39 -35l-125 -136c-23 -24 -38 -35 -62 -35s-35 9 -50 34l-79 140l44 32l98 -103z" />
    <glyph glyph-name="napostrophe" unicode="&#x149;" horiz-adv-x="624" 
d="M419 420c-88 0 -113 -67 -124 -138l-51 -282h-117l70 396c4 21 0 26 -19 29l-29 3l14 76h161l-11 -67h1c37 52 83 80 155 80c100 0 151 -55 130 -174l-45 -249c-3 -19 1 -22 20 -22h20c4 0 8 0 13 1l-13 -74c-20 -7 -54 -11 -78 -11c-76 0 -93 40 -82 103l42 227
c11 53 5 102 -57 102zM47 471l68 198h45c20 0 40 -7 40 -30c0 -15 -13 -38 -24 -55l-84 -129z" />
    <glyph glyph-name="Eng" unicode="&#x14a;" horiz-adv-x="723" 
d="M729 556l-106 -595c-16 -97 -63 -178 -201 -178c-67 0 -128 27 -156 52l57 80c20 -19 52 -34 97 -34c56 0 81 34 90 89l5 29l-210 484h-2l-70 -401l54 -3l-14 -79h-226l13 75l32 4c29 3 30 34 35 62l78 442l-52 3l14 79h176l204 -479h2l70 397l-55 3l14 79h225l-13 -76
l-32 -3c-19 -3 -25 -7 -29 -30z" />
    <glyph glyph-name="eng" unicode="&#x14b;" horiz-adv-x="577" 
d="M377 421c-66 0 -107 -46 -123 -139l-51 -282h-118l70 396c4 21 0 26 -19 29l-28 3l13 76h161l-11 -67h1c39 52 83 80 155 80c100 0 152 -55 131 -174l-73 -399c-16 -89 -36 -173 -175 -173c-43 0 -91 12 -118 31l39 85c20 -11 41 -17 65 -17c36 0 58 14 71 80l68 368
c11 53 6 103 -58 103z" />
    <glyph glyph-name="Omacron" unicode="&#x14c;" horiz-adv-x="670" 
d="M691 417c0 -230 -114 -429 -351 -429c-156 0 -245 86 -245 261c0 257 149 428 357 428c133 0 239 -73 239 -260zM439 575c-167 0 -218 -193 -218 -329c0 -88 38 -156 136 -156c107 0 208 102 208 329c0 76 -31 156 -126 156zM327 736l14 85h286l-14 -85h-286z" />
    <glyph glyph-name="omacron" unicode="&#x14d;" horiz-adv-x="536" 
d="M279 76c116 0 143 164 143 251c0 64 -22 102 -78 102c-118 0 -143 -161 -143 -252c0 -59 17 -101 78 -101zM80 175c0 181 83 342 280 342c69 0 183 -27 183 -184c0 -180 -79 -347 -279 -347c-119 0 -184 64 -184 189zM237 608l15 86h286l-15 -86h-286z" />
    <glyph glyph-name="Obreve" unicode="&#x14e;" horiz-adv-x="670" 
d="M691 417c0 -230 -114 -429 -351 -429c-156 0 -245 86 -245 261c0 257 149 428 357 428c133 0 239 -73 239 -260zM439 575c-167 0 -218 -193 -218 -329c0 -88 38 -156 136 -156c107 0 208 102 208 329c0 76 -31 156 -126 156zM576 875l73 -25c-33 -85 -90 -130 -181 -130
c-97 0 -142 61 -147 128l78 24c7 -56 33 -76 77 -76c41 0 71 19 100 79z" />
    <glyph glyph-name="obreve" unicode="&#x14f;" horiz-adv-x="536" 
d="M279 76c116 0 143 164 143 251c0 64 -22 102 -78 102c-118 0 -143 -161 -143 -252c0 -59 17 -101 78 -101zM80 175c0 181 83 342 280 342c69 0 183 -27 183 -184c0 -180 -79 -347 -279 -347c-119 0 -184 64 -184 189zM484 725l74 -18c-35 -92 -86 -142 -181 -142
c-101 0 -140 69 -143 143l76 16c7 -60 32 -83 76 -83c39 0 71 20 98 84z" />
    <glyph glyph-name="Ohungarumlaut" unicode="&#x150;" horiz-adv-x="670" 
d="M691 417c0 -230 -114 -429 -351 -429c-156 0 -245 86 -245 261c0 257 149 428 357 428c133 0 239 -73 239 -260zM439 575c-167 0 -218 -193 -218 -329c0 -88 38 -156 136 -156c107 0 208 102 208 329c0 76 -31 156 -126 156zM334 743l192 155l32 -31c9 -8 14 -18 14 -31
c0 -23 -15 -39 -51 -55l-161 -78zM548 742l187 159l34 -29c10 -8 15 -18 15 -31c0 -23 -18 -40 -49 -55l-159 -83z" />
    <glyph glyph-name="ohungarumlaut" unicode="&#x151;" horiz-adv-x="536" 
d="M279 76c116 0 143 164 143 251c0 64 -22 102 -78 102c-118 0 -143 -161 -143 -252c0 -59 17 -101 78 -101zM80 175c0 181 83 342 280 342c69 0 183 -27 183 -184c0 -180 -79 -347 -279 -347c-119 0 -184 64 -184 189zM238 603l138 187l41 -16c19 -7 30 -17 30 -34
c0 -21 -13 -37 -37 -56l-136 -111zM406 605l145 184l39 -17c19 -8 29 -17 29 -36c0 -23 -13 -37 -40 -56l-139 -107z" />
    <glyph glyph-name="OE" unicode="&#x152;" horiz-adv-x="912" 
d="M834 576h-157l-34 -190h240l-16 -92h-240l-36 -205h168c19 0 23 8 27 27l9 43l98 3l-29 -162h-439c-31 -8 -58 -12 -94 -12c-144 0 -236 88 -236 263c0 204 106 426 365 426c31 0 63 -4 88 -12h424l-27 -154l-98 -5l8 44c3 19 0 26 -21 26zM221 251
c0 -87 31 -161 135 -161c44 0 97 9 118 24l75 431c-19 15 -57 30 -106 30c-172 0 -222 -192 -222 -324z" />
    <glyph glyph-name="oe" unicode="&#x153;" horiz-adv-x="819" 
d="M80 175c0 172 77 343 272 343c52 0 117 -19 152 -78c49 51 116 77 199 77c88 0 142 -39 142 -128c0 -149 -142 -192 -322 -184c-8 -67 15 -126 99 -126c63 0 107 24 134 41l25 -83c-19 -13 -90 -51 -186 -51c-80 0 -126 27 -153 74c-47 -52 -109 -75 -178 -75
c-119 0 -184 65 -184 190zM279 75c116 0 143 160 143 252c0 64 -22 103 -78 103c-116 0 -143 -160 -143 -253c0 -58 17 -102 78 -102zM738 380c0 33 -21 50 -53 50c-81 0 -133 -68 -149 -147c119 -3 202 14 202 97z" />
    <glyph glyph-name="Racute" unicode="&#x154;" horiz-adv-x="652" 
d="M47 0l13 75l32 4c19 3 25 7 29 31l82 472l-52 4l14 79h261c125 0 218 -44 218 -161c0 -118 -77 -176 -173 -197c35 -11 49 -34 64 -73l54 -133c7 -17 13 -24 30 -24h22c5 0 11 0 18 1l-12 -78c-20 -7 -51 -11 -79 -11c-59 0 -76 26 -95 77l-52 138c-17 45 -34 58 -79 58
h-73l-32 -180l53 -3l-14 -79h-229zM284 347h84c89 0 149 51 149 146c0 68 -49 83 -125 83h-67zM356 751l190 156l33 -31c10 -9 15 -20 15 -31c0 -23 -16 -38 -51 -55l-160 -80z" />
    <glyph glyph-name="racute" unicode="&#x155;" horiz-adv-x="465" 
d="M364 416c-55 0 -94 -45 -109 -122l-52 -294h-118l70 398c4 20 0 24 -17 27l-34 3l14 76h161l-11 -75h1c28 47 77 88 157 88c29 0 64 -4 89 -19l-29 -165l-101 -7l11 59c3 15 1 24 -4 27c-6 3 -15 4 -28 4zM272 602l148 187l43 -19c18 -7 27 -19 27 -34
c0 -24 -13 -35 -40 -56l-143 -112z" />
    <glyph glyph-name="Rcommaaccent" unicode="&#x156;" horiz-adv-x="652" 
d="M47 0l13 75l32 4c19 3 25 7 29 31l82 472l-52 4l14 79h261c125 0 218 -44 218 -161c0 -118 -77 -176 -173 -197c35 -11 49 -34 64 -73l54 -133c7 -17 13 -24 30 -24h22c5 0 11 0 18 1l-12 -78c-20 -7 -51 -11 -79 -11c-59 0 -76 26 -95 77l-52 138c-17 45 -34 58 -79 58
h-73l-32 -180l53 -3l-14 -79h-229zM284 347h84c89 0 149 51 149 146c0 68 -49 83 -125 83h-67zM392 -178l-59 -108l-56 22l34 94c7 19 -3 24 -24 24h-17l21 76c102 32 141 -33 101 -108z" />
    <glyph glyph-name="rcommaaccent" unicode="&#x157;" horiz-adv-x="465" 
d="M364 416c-55 0 -94 -45 -109 -122l-52 -294h-118l70 398c4 20 0 24 -17 27l-34 3l14 76h161l-11 -75h1c28 47 77 88 157 88c29 0 64 -4 89 -19l-29 -165l-101 -7l11 59c3 15 1 24 -4 27c-6 3 -15 4 -28 4zM178 -178l-60 -108l-56 22l34 94c7 19 -2 24 -23 24h-18l22 76
c101 32 141 -33 101 -108z" />
    <glyph glyph-name="Rcaron" unicode="&#x158;" horiz-adv-x="652" 
d="M47 0l13 75l32 4c19 3 25 7 29 31l82 472l-52 4l14 79h261c125 0 218 -44 218 -161c0 -118 -77 -176 -173 -197c35 -11 49 -34 64 -73l54 -133c7 -17 13 -24 30 -24h22c5 0 11 0 18 1l-12 -78c-20 -7 -51 -11 -79 -11c-59 0 -76 26 -95 77l-52 138c-17 45 -34 58 -79 58
h-73l-32 -180l53 -3l-14 -79h-229zM284 347h84c89 0 149 51 149 146c0 68 -49 83 -125 83h-67zM323 892l103 -87l135 87l37 -41l-124 -113c-25 -23 -41 -30 -60 -30s-33 6 -49 29l-85 120z" />
    <glyph glyph-name="rcaron" unicode="&#x159;" horiz-adv-x="465" 
d="M364 416c-55 0 -94 -45 -109 -122l-52 -294h-118l70 398c4 20 0 24 -17 27l-34 3l14 76h161l-11 -75h1c28 47 77 88 157 88c29 0 64 -4 89 -19l-29 -165l-101 -7l11 59c3 15 1 24 -4 27c-6 3 -15 4 -28 4zM477 773l39 -35l-125 -136c-23 -24 -38 -35 -62 -35
s-35 9 -50 34l-79 140l44 32l98 -103z" />
    <glyph glyph-name="Sacute" unicode="&#x15a;" horiz-adv-x="545" 
d="M268 85c66 0 139 20 139 108c0 57 -54 72 -115 99c-71 29 -153 63 -153 175c0 133 107 210 263 210c72 0 144 -16 189 -39l-27 -156l-98 -8l11 66c3 17 2 25 -13 30c-13 4 -41 10 -74 10c-51 0 -120 -15 -120 -91c0 -54 38 -70 110 -99c84 -35 160 -68 160 -179
c0 -139 -97 -223 -281 -223c-68 0 -147 13 -198 36l28 160l100 8l-11 -68c-3 -17 -3 -25 12 -30c17 -5 45 -9 78 -9zM323 751l190 156l33 -31c10 -9 15 -20 15 -31c0 -23 -16 -38 -51 -55l-160 -80z" />
    <glyph glyph-name="sacute" unicode="&#x15b;" horiz-adv-x="455" 
d="M373 428c-12 4 -33 7 -54 7c-48 0 -91 -18 -91 -65c0 -40 40 -53 85 -69c70 -27 134 -48 134 -140c0 -108 -76 -175 -219 -175c-65 0 -140 17 -174 35l22 126l92 8l-8 -51c-3 -15 0 -20 12 -25c11 -5 33 -9 60 -9c51 0 93 20 93 72c0 42 -39 50 -82 66
c-61 21 -132 47 -132 146c0 104 79 163 218 163c56 0 120 -11 159 -34l-22 -118l-90 -8l8 44c3 17 1 22 -11 27zM277 602l148 187l43 -19c18 -7 27 -19 27 -34c0 -24 -13 -35 -40 -56l-143 -112z" />
    <glyph glyph-name="Scircumflex" unicode="&#x15c;" horiz-adv-x="545" 
d="M268 85c66 0 139 20 139 108c0 57 -54 72 -115 99c-71 29 -153 63 -153 175c0 133 107 210 263 210c72 0 144 -16 189 -39l-27 -156l-98 -8l11 66c3 17 2 25 -13 30c-13 4 -41 10 -74 10c-51 0 -120 -15 -120 -91c0 -54 38 -70 110 -99c84 -35 160 -68 160 -179
c0 -139 -97 -223 -281 -223c-68 0 -147 13 -198 36l28 160l100 8l-11 -68c-3 -17 -3 -25 12 -30c17 -5 45 -9 78 -9zM294 708l-37 39l121 114c25 23 41 31 60 31c21 0 37 -11 60 -43l74 -105l-39 -36l-105 87z" />
    <glyph glyph-name="scircumflex" unicode="&#x15d;" horiz-adv-x="455" 
d="M373 428c-12 4 -33 7 -54 7c-48 0 -91 -18 -91 -65c0 -40 40 -53 85 -69c70 -27 134 -48 134 -140c0 -108 -76 -175 -219 -175c-65 0 -140 17 -174 35l22 126l92 8l-8 -51c-3 -15 0 -20 12 -25c11 -5 33 -9 60 -9c51 0 93 20 93 72c0 42 -39 50 -82 66
c-61 21 -132 47 -132 146c0 104 79 163 218 163c56 0 120 -11 159 -34l-22 -118l-90 -8l8 44c3 17 1 22 -11 27zM229 564l-40 36l124 134c23 23 36 37 63 37c25 0 36 -9 51 -34l79 -141l-43 -32l-99 103z" />
    <glyph glyph-name="Scedilla" unicode="&#x15e;" horiz-adv-x="545" 
d="M268 85c66 0 139 20 139 108c0 57 -54 72 -115 99c-71 29 -153 63 -153 175c0 133 107 210 263 210c72 0 144 -16 189 -39l-27 -156l-98 -8l11 66c3 17 2 25 -13 30c-13 4 -41 10 -74 10c-51 0 -120 -15 -120 -91c0 -54 38 -70 110 -99c84 -35 160 -68 160 -179
c0 -128 -82 -209 -239 -221l-19 -39c43 -4 78 -28 78 -72c0 -76 -71 -100 -132 -100c-33 0 -69 8 -89 19l24 53c15 -5 41 -13 64 -13c44 0 57 19 57 39c0 25 -35 29 -84 29l42 82c-64 3 -134 15 -181 36l28 160l100 8l-11 -68c-3 -17 -3 -25 12 -30c17 -5 45 -9 78 -9z" />
    <glyph glyph-name="scedilla" unicode="&#x15f;" horiz-adv-x="455" 
d="M373 428c-12 4 -33 7 -54 7c-48 0 -91 -18 -91 -65c0 -40 40 -53 85 -69c70 -27 134 -48 134 -140c0 -100 -65 -165 -189 -174l-18 -36c43 -4 78 -28 78 -72c0 -76 -71 -100 -132 -100c-33 0 -69 8 -89 19l24 53c15 -5 41 -13 64 -13c44 0 57 19 57 39
c0 25 -35 29 -84 29l41 81c-57 4 -116 17 -145 34l22 126l92 8l-8 -51c-3 -15 0 -20 12 -25c11 -5 33 -9 60 -9c51 0 93 20 93 72c0 42 -39 50 -82 66c-61 21 -132 47 -132 146c0 104 79 163 218 163c56 0 120 -11 159 -34l-22 -118l-90 -8l8 44c3 17 1 22 -11 27z" />
    <glyph glyph-name="Scaron" unicode="&#x160;" horiz-adv-x="545" 
d="M268 85c66 0 139 20 139 108c0 57 -54 72 -115 99c-71 29 -153 63 -153 175c0 133 107 210 263 210c72 0 144 -16 189 -39l-27 -156l-98 -8l11 66c3 17 2 25 -13 30c-13 4 -41 10 -74 10c-51 0 -120 -15 -120 -91c0 -54 38 -70 110 -99c84 -35 160 -68 160 -179
c0 -139 -97 -223 -281 -223c-68 0 -147 13 -198 36l28 160l100 8l-11 -68c-3 -17 -3 -25 12 -30c17 -5 45 -9 78 -9zM312 892l103 -87l135 87l37 -41l-124 -113c-25 -23 -41 -30 -60 -30s-33 6 -49 29l-85 120z" />
    <glyph glyph-name="scaron" unicode="&#x161;" horiz-adv-x="455" 
d="M373 428c-12 4 -33 7 -54 7c-48 0 -91 -18 -91 -65c0 -40 40 -53 85 -69c70 -27 134 -48 134 -140c0 -108 -76 -175 -219 -175c-65 0 -140 17 -174 35l22 126l92 8l-8 -51c-3 -15 0 -20 12 -25c11 -5 33 -9 60 -9c51 0 93 20 93 72c0 42 -39 50 -82 66
c-61 21 -132 47 -132 146c0 104 79 163 218 163c56 0 120 -11 159 -34l-22 -118l-90 -8l8 44c3 17 1 22 -11 27zM482 773l39 -35l-125 -136c-23 -24 -38 -35 -62 -35s-35 9 -50 34l-79 140l44 32l98 -103z" />
    <glyph glyph-name="Scommaaccent" unicode="&#x218;" horiz-adv-x="545" 
d="M268 85c66 0 139 20 139 108c0 57 -54 72 -115 99c-71 29 -153 63 -153 175c0 133 107 210 263 210c72 0 144 -16 189 -39l-27 -156l-98 -8l11 66c3 17 2 25 -13 30c-13 4 -41 10 -74 10c-51 0 -120 -15 -120 -91c0 -54 38 -70 110 -99c84 -35 160 -68 160 -179
c0 -139 -97 -223 -281 -223c-68 0 -147 13 -198 36l28 160l100 8l-11 -68c-3 -17 -3 -25 12 -30c17 -5 45 -9 78 -9zM312 -178l-59 -108l-56 22l34 94c7 19 -3 24 -24 24h-17l21 76c102 32 141 -33 101 -108z" />
    <glyph glyph-name="scommaaccent" unicode="&#x219;" horiz-adv-x="455" 
d="M373 428c-12 4 -33 7 -54 7c-48 0 -91 -18 -91 -65c0 -40 40 -53 85 -69c70 -27 134 -48 134 -140c0 -108 -76 -175 -219 -175c-65 0 -140 17 -174 35l22 126l92 8l-8 -51c-3 -15 0 -20 12 -25c11 -5 33 -9 60 -9c51 0 93 20 93 72c0 42 -39 50 -82 66
c-61 21 -132 47 -132 146c0 104 79 163 218 163c56 0 120 -11 159 -34l-22 -118l-90 -8l8 44c3 17 1 22 -11 27zM268 -178l-60 -108l-56 22l34 94c7 19 -2 24 -23 24h-18l22 76c101 32 141 -33 101 -108z" />
    <glyph glyph-name="uni021A" unicode="&#x21a;" horiz-adv-x="599" 
d="M257 110l82 466h-86c-21 0 -26 -9 -29 -26l-11 -54l-99 -5l30 174h547l-29 -167l-98 -6l10 57c3 17 1 27 -20 27h-94l-86 -494l71 -3l-14 -79h-267l13 75l46 4c23 3 29 8 34 31zM326 -178l-59 -108l-56 22l34 94c7 19 -3 24 -24 24h-17l21 76c102 32 141 -33 101 -108z
" />
    <glyph glyph-name="uni021B" unicode="&#x21b;" horiz-adv-x="379" 
d="M92 417l25 78c70 11 99 54 134 123h65l-21 -114h131l-22 -87h-124l-45 -261c-11 -63 4 -77 44 -77c31 0 59 12 78 21l14 -81c-32 -19 -77 -33 -132 -33c-147 0 -139 95 -126 164l48 267h-69zM253 -178l-60 -108l-56 22l34 94c7 19 -2 24 -23 24h-18l22 76
c101 32 141 -33 101 -108z" />
    <glyph glyph-name="Tcaron" unicode="&#x164;" horiz-adv-x="599" 
d="M257 110l82 466h-86c-21 0 -26 -9 -29 -26l-11 -54l-99 -5l30 174h547l-29 -167l-98 -6l10 57c3 17 1 27 -20 27h-94l-86 -494l71 -3l-14 -79h-267l13 75l46 4c23 3 29 8 34 31zM331 892l103 -87l135 87l37 -41l-124 -113c-25 -23 -41 -30 -60 -30s-33 6 -49 29l-85 120z
" />
    <glyph glyph-name="tcaron" unicode="&#x165;" horiz-adv-x="379" 
d="M92 417l25 78c70 11 99 54 134 123h65l-21 -114h131l-22 -87h-124l-45 -261c-11 -63 4 -77 44 -77c31 0 59 12 78 21l14 -81c-32 -19 -77 -33 -132 -33c-147 0 -139 95 -126 164l48 267h-69zM348 561l67 201c12 1 34 1 49 1c45 0 53 -33 29 -69l-95 -148z" />
    <glyph glyph-name="Tbar" unicode="&#x166;" horiz-adv-x="599" 
d="M171 284l14 82h117l37 210h-89c-21 0 -26 -9 -29 -26l-11 -54l-96 -5l30 174h547l-29 -167l-98 -6l10 57c3 17 1 27 -20 27h-94l-37 -210h119l-14 -82h-119l-35 -202l71 -3l-14 -79h-267l13 75l46 4c23 3 29 8 34 31l30 174h-116z" />
    <glyph glyph-name="tbar" unicode="&#x167;" horiz-adv-x="379" 
d="M92 417l25 78c70 11 99 54 134 123h65l-21 -114h131l-22 -87h-124l-17 -98h124l-14 -82h-124l-14 -81c-11 -63 4 -77 44 -77c31 0 59 12 78 21l14 -81c-32 -19 -77 -33 -132 -33c-147 0 -139 95 -126 164l15 87h-64l14 82h65l18 98h-69z" />
    <glyph glyph-name="uni0162" unicode="&#x162;" horiz-adv-x="599" 
d="M257 110l82 466h-86c-21 0 -26 -9 -29 -26l-11 -54l-99 -5l30 174h547l-29 -167l-98 -6l10 57c3 17 1 27 -20 27h-94l-86 -494l71 -3l-14 -79h-108l-24 -49c43 -4 78 -28 78 -72c0 -76 -71 -100 -132 -100c-33 0 -69 8 -89 19l24 53c15 -5 41 -13 64 -13
c44 0 57 19 57 39c0 25 -35 29 -84 29l48 94h-101l13 75l46 4c23 3 29 8 34 31z" />
    <glyph glyph-name="uni0163" unicode="&#x163;" horiz-adv-x="379" 
d="M92 417l25 78c70 11 99 54 134 123h65l-21 -114h131l-22 -87h-124l-45 -261c-11 -63 4 -77 44 -77c31 0 59 12 78 21l14 -81c-32 -19 -77 -33 -132 -33h-1l-17 -35c43 -4 78 -28 78 -72c0 -76 -71 -100 -132 -100c-33 0 -69 8 -89 19l24 53c15 -5 41 -13 64 -13
c44 0 57 19 57 39c0 25 -35 29 -84 29l44 86c-88 21 -81 97 -70 158l48 267h-69z" />
    <glyph glyph-name="Utilde" unicode="&#x168;" horiz-adv-x="692" 
d="M693 557l-63 -362c-24 -138 -113 -207 -268 -207c-162 0 -260 66 -228 237l63 357l-52 4l14 79h230l-13 -76l-32 -3c-19 -3 -26 -6 -30 -30l-61 -345c-16 -100 31 -131 114 -131s135 41 150 126l66 377l-49 3l14 79h219l-13 -76l-29 -3c-19 -3 -28 -6 -32 -29zM359 730
l-41 31c39 63 73 80 112 80c48 0 92 -28 127 -28c20 0 37 10 52 30l47 -29c-31 -59 -68 -82 -113 -82s-89 28 -127 28c-23 0 -36 -9 -57 -30z" />
    <glyph glyph-name="utilde" unicode="&#x169;" horiz-adv-x="573" 
d="M576 504l-73 -410c-3 -17 1 -21 20 -21c5 0 14 0 22 1c5 0 9 0 14 1l-13 -76c-19 -7 -53 -12 -74 -12c-49 0 -81 19 -77 78h-3c-35 -55 -91 -79 -151 -79c-111 0 -151 70 -132 177l41 234c4 21 -2 26 -19 29l-28 2l13 76h172l-58 -325c-11 -65 -3 -98 56 -98
c44 0 102 26 118 119l53 304h119zM262 597l-41 31c39 63 73 80 112 80c48 0 92 -28 127 -28c20 0 37 10 52 30l47 -29c-31 -59 -68 -82 -113 -82s-89 28 -127 28c-23 0 -36 -9 -57 -30z" />
    <glyph glyph-name="Umacron" unicode="&#x16a;" horiz-adv-x="692" 
d="M693 557l-63 -362c-24 -138 -113 -207 -268 -207c-162 0 -260 66 -228 237l63 357l-52 4l14 79h230l-13 -76l-32 -3c-19 -3 -26 -6 -30 -30l-61 -345c-16 -100 31 -131 114 -131s135 41 150 126l66 377l-49 3l14 79h219l-13 -76l-29 -3c-19 -3 -28 -6 -32 -29zM334 736
l14 85h286l-14 -85h-286z" />
    <glyph glyph-name="umacron" unicode="&#x16b;" horiz-adv-x="581" 
d="M572 504l-73 -410c-3 -17 1 -21 20 -21c5 0 14 0 22 1c5 0 9 0 14 1l-13 -76c-19 -7 -53 -12 -74 -12c-49 0 -81 19 -77 78h-3c-35 -55 -91 -79 -151 -79c-111 0 -151 70 -132 177l41 234c4 21 -2 26 -19 29l-28 2l13 76h172l-58 -325c-11 -65 -3 -98 56 -98
c44 0 102 26 118 119l53 304h119zM238 608l15 86h286l-15 -86h-286z" />
    <glyph glyph-name="Ubreve" unicode="&#x16c;" horiz-adv-x="692" 
d="M693 557l-63 -362c-24 -138 -113 -207 -268 -207c-162 0 -260 66 -228 237l63 357l-52 4l14 79h230l-13 -76l-32 -3c-19 -3 -26 -6 -30 -30l-61 -345c-16 -100 31 -131 114 -131s135 41 150 126l66 377l-49 3l14 79h219l-13 -76l-29 -3c-19 -3 -28 -6 -32 -29zM591 875
l73 -25c-33 -85 -90 -130 -181 -130c-97 0 -142 61 -147 128l78 24c7 -56 33 -76 77 -76c41 0 71 19 100 79z" />
    <glyph glyph-name="ubreve" unicode="&#x16d;" horiz-adv-x="573" 
d="M576 504l-73 -410c-3 -17 1 -21 20 -21c5 0 14 0 22 1c5 0 9 0 14 1l-13 -76c-19 -7 -53 -12 -74 -12c-49 0 -81 19 -77 78h-3c-35 -55 -91 -79 -151 -79c-111 0 -151 70 -132 177l41 234c4 21 -2 26 -19 29l-28 2l13 76h172l-58 -325c-11 -65 -3 -98 56 -98
c44 0 102 26 118 119l53 304h119zM486 725l74 -18c-35 -92 -86 -142 -181 -142c-101 0 -140 69 -143 143l76 16c7 -60 32 -83 76 -83c39 0 71 20 98 84z" />
    <glyph glyph-name="Uring" unicode="&#x16e;" horiz-adv-x="692" 
d="M693 557l-63 -362c-24 -138 -113 -207 -268 -207c-162 0 -260 66 -228 237l63 357l-52 4l14 79h230l-13 -76l-32 -3c-19 -3 -26 -6 -30 -30l-61 -345c-16 -100 31 -131 114 -131s135 41 150 126l66 377l-49 3l14 79h219l-13 -76l-29 -3c-19 -3 -28 -6 -32 -29zM379 792
c0 67 53 120 127 120c60 0 89 -37 89 -84c0 -75 -54 -123 -123 -123c-64 0 -93 36 -93 87zM444 795c0 -23 12 -34 35 -34c35 0 50 26 50 61c0 23 -12 34 -35 34c-41 0 -50 -30 -50 -61z" />
    <glyph glyph-name="uring" unicode="&#x16f;" horiz-adv-x="573" 
d="M576 504l-73 -410c-3 -17 1 -21 20 -21c5 0 14 0 22 1c5 0 9 0 14 1l-13 -76c-19 -7 -53 -12 -74 -12c-49 0 -81 19 -77 78h-3c-35 -55 -91 -79 -151 -79c-111 0 -151 70 -132 177l41 234c4 21 -2 26 -19 29l-28 2l13 76h172l-58 -325c-11 -65 -3 -98 56 -98
c44 0 102 26 118 119l53 304h119zM281 653c0 67 53 120 127 120c60 0 89 -37 89 -84c0 -75 -54 -123 -123 -123c-64 0 -93 36 -93 87zM346 656c0 -23 12 -34 35 -34c35 0 50 26 50 61c0 23 -12 34 -35 34c-41 0 -50 -30 -50 -61z" />
    <glyph glyph-name="Uhungarumlaut" unicode="&#x170;" horiz-adv-x="692" 
d="M693 557l-63 -362c-24 -138 -113 -207 -268 -207c-162 0 -260 66 -228 237l63 357l-52 4l14 79h230l-13 -76l-32 -3c-19 -3 -26 -6 -30 -30l-61 -345c-16 -100 31 -131 114 -131s135 41 150 126l66 377l-49 3l14 79h219l-13 -76l-29 -3c-19 -3 -28 -6 -32 -29zM328 743
l192 155l32 -31c9 -8 14 -18 14 -31c0 -23 -15 -39 -51 -55l-161 -78zM542 742l187 159l34 -29c10 -8 15 -18 15 -31c0 -23 -18 -40 -49 -55l-159 -83z" />
    <glyph glyph-name="uhungarumlaut" unicode="&#x171;" horiz-adv-x="573" 
d="M576 504l-73 -410c-3 -17 1 -21 20 -21c5 0 14 0 22 1c5 0 9 0 14 1l-13 -76c-19 -7 -53 -12 -74 -12c-49 0 -81 19 -77 78h-3c-35 -55 -91 -79 -151 -79c-111 0 -151 70 -132 177l41 234c4 21 -2 26 -19 29l-28 2l13 76h172l-58 -325c-11 -65 -3 -98 56 -98
c44 0 102 26 118 119l53 304h119zM242 603l138 187l41 -16c19 -7 30 -17 30 -34c0 -21 -13 -37 -37 -56l-136 -111zM410 605l145 184l39 -17c19 -8 29 -17 29 -36c0 -23 -13 -37 -40 -56l-139 -107z" />
    <glyph glyph-name="Uogonek" unicode="&#x172;" horiz-adv-x="692" 
d="M693 557l-63 -362c-19 -107 -74 -159 -166 -197c-55 -21 -117 -70 -117 -111c0 -17 8 -28 35 -28c20 0 39 4 54 11l10 -65c-23 -11 -62 -22 -99 -22c-68 0 -90 41 -90 77c0 59 39 100 82 129c-149 5 -234 74 -205 236l63 357l-52 4l14 79h230l-13 -76l-32 -3
c-19 -3 -26 -6 -30 -30l-61 -345c-16 -100 31 -131 114 -131s135 41 150 126l66 377l-49 3l14 79h219l-13 -76l-29 -3c-19 -3 -28 -6 -32 -29z" />
    <glyph glyph-name="uogonek" unicode="&#x173;" horiz-adv-x="573" 
d="M576 504l-73 -410c-3 -17 1 -21 20 -21c5 0 14 0 22 1c5 0 9 0 14 1l-13 -76c-60 -33 -115 -71 -115 -112c0 -17 8 -28 35 -28c20 0 39 4 54 11l10 -65c-23 -11 -62 -22 -99 -22c-68 0 -90 41 -90 77c0 63 45 105 90 134c-25 9 -39 31 -36 71h-3
c-35 -55 -91 -79 -151 -79c-111 0 -151 70 -132 177l41 234c4 21 -2 26 -19 29l-28 2l13 76h172l-58 -325c-11 -65 -3 -98 56 -98c44 0 102 26 118 119l53 304h119z" />
    <glyph glyph-name="Wcircumflex" unicode="&#x174;" horiz-adv-x="883" 
d="M914 554l-223 -554h-136l-30 451h-3l-188 -451h-139l-31 582l-49 4l14 79h228l-13 -76l-29 -2c-20 -3 -33 -13 -32 -37l13 -398h2l190 460h129l28 -454h2l165 424l-51 4l14 79h214l-13 -76l-22 -2c-19 -1 -29 -8 -40 -33zM452 708l-37 39l121 114c25 23 41 31 60 31
c21 0 37 -11 60 -43l74 -105l-39 -36l-105 87z" />
    <glyph glyph-name="wcircumflex" unicode="&#x175;" horiz-adv-x="822" 
d="M696 504h117c3 -31 7 -81 7 -122c0 -233 -83 -396 -270 -396c-79 0 -116 33 -127 84c-47 -63 -109 -84 -172 -84c-117 0 -159 73 -140 183l41 238c3 17 -3 21 -19 21c-4 0 -13 -1 -20 -1h-13l13 74c21 7 54 11 78 11c75 0 91 -43 79 -108l-38 -216
c-8 -55 -16 -106 51 -106c56 0 95 35 106 92l58 330h118l-56 -314c-8 -52 -18 -108 49 -108c96 0 144 132 144 296c0 44 -2 95 -6 126zM390 564l-40 36l124 134c23 23 36 37 63 37c25 0 36 -9 51 -34l79 -141l-43 -32l-99 103z" />
    <glyph glyph-name="Wgrave" unicode="&#x1e80;" horiz-adv-x="883" 
d="M914 554l-223 -554h-136l-30 451h-3l-188 -451h-139l-31 582l-49 4l14 79h228l-13 -76l-29 -2c-20 -3 -33 -13 -32 -37l13 -398h2l190 460h129l28 -454h2l165 424l-51 4l14 79h214l-13 -76l-22 -2c-19 -1 -29 -8 -40 -33zM522 908l149 -160l-36 -39l-147 87
c-21 13 -31 27 -31 42c0 19 12 34 31 47z" />
    <glyph glyph-name="wgrave" unicode="&#x1e81;" horiz-adv-x="822" 
d="M696 504h117c3 -31 7 -81 7 -122c0 -233 -83 -396 -270 -396c-79 0 -116 33 -127 84c-47 -63 -109 -84 -172 -84c-117 0 -159 73 -140 183l41 238c3 17 -3 21 -19 21c-4 0 -13 -1 -20 -1h-13l13 74c21 7 54 11 78 11c75 0 91 -43 79 -108l-38 -216
c-8 -55 -16 -106 51 -106c56 0 95 35 106 92l58 330h118l-56 -314c-8 -52 -18 -108 49 -108c96 0 144 132 144 296c0 44 -2 95 -6 126zM500 788l89 -198l-45 -26l-103 113c-19 19 -24 33 -24 45c0 27 13 40 45 52z" />
    <glyph glyph-name="Wacute" unicode="&#x1e82;" horiz-adv-x="883" 
d="M914 554l-223 -554h-136l-30 451h-3l-188 -451h-139l-31 582l-49 4l14 79h228l-13 -76l-29 -2c-20 -3 -33 -13 -32 -37l13 -398h2l190 460h129l28 -454h2l165 424l-51 4l14 79h214l-13 -76l-22 -2c-19 -1 -29 -8 -40 -33zM489 751l190 156l33 -31c10 -9 15 -20 15 -31
c0 -23 -16 -38 -51 -55l-160 -80z" />
    <glyph glyph-name="wacute" unicode="&#x1e83;" horiz-adv-x="822" 
d="M696 504h117c3 -31 7 -81 7 -122c0 -233 -83 -396 -270 -396c-79 0 -116 33 -127 84c-47 -63 -109 -84 -172 -84c-117 0 -159 73 -140 183l41 238c3 17 -3 21 -19 21c-4 0 -13 -1 -20 -1h-13l13 74c21 7 54 11 78 11c75 0 91 -43 79 -108l-38 -216
c-8 -55 -16 -106 51 -106c56 0 95 35 106 92l58 330h118l-56 -314c-8 -52 -18 -108 49 -108c96 0 144 132 144 296c0 44 -2 95 -6 126zM442 602l148 187l43 -19c18 -7 27 -19 27 -34c0 -24 -13 -35 -40 -56l-143 -112z" />
    <glyph glyph-name="Wdieresis" unicode="&#x1e84;" horiz-adv-x="883" 
d="M914 554l-223 -554h-136l-30 451h-3l-188 -451h-139l-31 582l-49 4l14 79h228l-13 -76l-29 -2c-20 -3 -33 -13 -32 -37l13 -398h2l190 460h129l28 -454h2l165 424l-51 4l14 79h214l-13 -76l-22 -2c-19 -1 -29 -8 -40 -33zM614 776c0 41 34 75 81 75c35 0 57 -23 57 -55
c0 -43 -36 -75 -81 -75c-36 0 -57 22 -57 55zM411 776c0 41 34 75 81 75c35 0 57 -23 57 -55c0 -43 -36 -75 -81 -75c-35 0 -57 22 -57 55z" />
    <glyph glyph-name="wdieresis" unicode="&#x1e85;" horiz-adv-x="822" 
d="M696 504h117c3 -31 7 -81 7 -122c0 -233 -83 -396 -270 -396c-79 0 -116 33 -127 84c-47 -63 -109 -84 -172 -84c-117 0 -159 73 -140 183l41 238c3 17 -3 21 -19 21c-4 0 -13 -1 -20 -1h-13l13 74c21 7 54 11 78 11c75 0 91 -43 79 -108l-38 -216
c-8 -55 -16 -106 51 -106c56 0 95 35 106 92l58 330h118l-56 -314c-8 -52 -18 -108 49 -108c96 0 144 132 144 296c0 44 -2 95 -6 126zM546 636c0 41 34 76 81 76c36 0 57 -24 57 -56c0 -43 -36 -75 -80 -75c-37 0 -58 22 -58 55zM349 636c0 41 33 76 80 76
c36 0 58 -24 58 -56c0 -43 -37 -75 -81 -75c-36 0 -57 22 -57 55z" />
    <glyph glyph-name="Ygrave" unicode="&#x1ef2;" horiz-adv-x="567" 
d="M243 109l25 142l-121 332l-44 3l14 79h232l-13 -76l-31 -2c-19 -1 -25 -11 -18 -30l64 -202h2l156 228l-46 4l14 78h204l-13 -76l-22 -2c-19 -3 -28 -11 -43 -32l-213 -302l-30 -171l64 -3l-14 -79h-254l13 75l41 3c20 3 29 7 33 31zM364 908l149 -160l-36 -39l-147 87
c-21 13 -31 27 -31 42c0 19 12 34 31 47z" />
    <glyph glyph-name="ygrave" unicode="&#x1ef3;" horiz-adv-x="566" 
d="M580 504l-81 -456c-35 -189 -109 -277 -261 -277c-85 0 -154 32 -154 124c0 76 46 122 137 165c-84 13 -120 66 -103 158l34 188c3 15 -3 22 -18 22c-4 0 -12 -1 -20 -1h-14l13 74c20 7 55 11 79 11c76 0 89 -41 78 -108l-31 -176c-11 -64 -6 -102 63 -102
c47 0 98 35 109 95l50 283h119zM195 -89c0 -33 19 -50 58 -50c71 0 105 56 121 147l15 79c-20 -20 -42 -35 -70 -52c-88 -51 -124 -72 -124 -124zM354 788l89 -198l-45 -26l-103 113c-19 19 -24 33 -24 45c0 27 13 40 45 52z" />
    <glyph glyph-name="Ycircumflex" unicode="&#x176;" horiz-adv-x="567" 
d="M243 109l25 142l-121 332l-44 3l14 79h232l-13 -76l-31 -2c-19 -1 -25 -11 -18 -30l64 -202h2l156 228l-46 4l14 78h204l-13 -76l-22 -2c-19 -3 -28 -11 -43 -32l-213 -302l-30 -171l64 -3l-14 -79h-254l13 75l41 3c20 3 29 7 33 31zM300 708l-37 39l121 114
c25 23 41 31 60 31c21 0 37 -11 60 -43l74 -105l-39 -36l-105 87z" />
    <glyph glyph-name="ycircumflex" unicode="&#x177;" horiz-adv-x="566" 
d="M580 504l-81 -456c-35 -189 -109 -277 -261 -277c-85 0 -154 32 -154 124c0 76 46 122 137 165c-84 13 -120 66 -103 158l34 188c3 15 -3 22 -18 22c-4 0 -12 -1 -20 -1h-14l13 74c20 7 55 11 79 11c76 0 89 -41 78 -108l-31 -176c-11 -64 -6 -102 63 -102
c47 0 98 35 109 95l50 283h119zM195 -89c0 -33 19 -50 58 -50c71 0 105 56 121 147l15 79c-20 -20 -42 -35 -70 -52c-88 -51 -124 -72 -124 -124zM261 564l-40 36l124 134c23 23 36 37 63 37c25 0 36 -9 51 -34l79 -141l-43 -32l-99 103z" />
    <glyph glyph-name="Ydieresis" unicode="&#x178;" horiz-adv-x="567" 
d="M243 109l25 142l-121 332l-44 3l14 79h232l-13 -76l-31 -2c-19 -1 -25 -11 -18 -30l64 -202h2l156 228l-46 4l14 78h204l-13 -76l-22 -2c-19 -3 -28 -11 -43 -32l-213 -302l-30 -171l64 -3l-14 -79h-254l13 75l41 3c20 3 29 7 33 31zM455 776c0 41 34 75 81 75
c35 0 57 -23 57 -55c0 -43 -36 -75 -81 -75c-36 0 -57 22 -57 55zM252 776c0 41 34 75 81 75c35 0 57 -23 57 -55c0 -43 -36 -75 -81 -75c-35 0 -57 22 -57 55z" />
    <glyph glyph-name="Zacute" unicode="&#x179;" horiz-adv-x="554" 
d="M45 0l16 86l396 492h-190c-24 0 -30 -10 -34 -31l-11 -55l-96 -5l31 178h456l-16 -86l-395 -492h204c23 0 29 6 33 29l12 58l96 4l-31 -178h-471zM316 754l190 156l33 -31c10 -9 15 -20 15 -31c0 -23 -16 -38 -51 -55l-160 -80z" />
    <glyph glyph-name="zacute" unicode="&#x17a;" horiz-adv-x="483" 
d="M265 602l148 187l43 -19c18 -7 27 -19 27 -34c0 -24 -13 -35 -40 -56l-143 -112zM105 351l26 153h370l17 -70l-322 -349c9 1 17 3 30 3c41 0 65 -14 109 -14c23 0 33 4 38 21l11 53l95 6l-26 -148c-33 -13 -68 -20 -105 -20c-72 0 -132 23 -196 23c-29 0 -58 -7 -81 -12
l-11 84l312 340h-136c-19 0 -25 -4 -29 -25l-9 -40z" />
    <glyph glyph-name="Zdotaccent" unicode="&#x17b;" horiz-adv-x="554" 
d="M45 0l16 86l396 492h-190c-24 0 -30 -10 -34 -31l-11 -55l-96 -5l31 178h456l-16 -86l-395 -492h204c23 0 29 6 33 29l12 58l96 4l-31 -178h-471zM330 784c0 44 38 79 86 79c39 0 62 -23 62 -56c0 -47 -39 -81 -87 -81c-39 0 -61 23 -61 58z" />
    <glyph glyph-name="zdotaccent" unicode="&#x17c;" horiz-adv-x="483" 
d="M276 636c0 44 38 79 86 79c37 0 62 -23 62 -56c0 -47 -39 -81 -87 -81c-39 0 -61 23 -61 58zM105 351l26 153h370l17 -70l-322 -349c9 1 17 3 30 3c41 0 65 -14 109 -14c23 0 33 4 38 21l11 53l95 6l-26 -148c-33 -13 -68 -20 -105 -20c-72 0 -132 23 -196 23
c-29 0 -58 -7 -81 -12l-11 84l312 340h-136c-19 0 -25 -4 -29 -25l-9 -40z" />
    <glyph glyph-name="Zcaron" unicode="&#x17d;" horiz-adv-x="554" 
d="M45 0l16 86l396 492h-190c-24 0 -30 -10 -34 -31l-11 -55l-96 -5l31 178h456l-16 -86l-395 -492h204c23 0 29 6 33 29l12 58l96 4l-31 -178h-471zM292 892l103 -87l135 87l37 -41l-124 -113c-25 -23 -41 -30 -60 -30s-33 6 -49 29l-85 120z" />
    <glyph glyph-name="zcaron" unicode="&#x17e;" horiz-adv-x="483" 
d="M481 773l39 -35l-125 -136c-23 -24 -38 -35 -62 -35s-35 9 -50 34l-79 140l44 32l98 -103zM105 351l26 153h370l17 -70l-322 -349c9 1 17 3 30 3c41 0 65 -14 109 -14c23 0 33 4 38 21l11 53l95 6l-26 -148c-33 -13 -68 -20 -105 -20c-72 0 -132 23 -196 23
c-29 0 -58 -7 -81 -12l-11 84l312 340h-136c-19 0 -25 -4 -29 -25l-9 -40z" />
    <glyph glyph-name="longs" unicode="&#x17f;" horiz-adv-x="360" 
d="M5 -130c39 0 60 16 71 76l85 474h-67l15 84h67l7 41c13 88 55 165 166 176c13 3 29 2 45 2c43 -3 86 -13 115 -32l-39 -78c-25 15 -56 22 -83 22c-49 0 -74 -30 -85 -86l-108 -604c-16 -87 -35 -174 -175 -174c-43 0 -90 12 -118 31l39 85c21 -11 41 -17 65 -17z" />
    <glyph glyph-name="dotlessj" unicode="&#x237;" horiz-adv-x="284" 
d="M293 504l-99 -556c-16 -88 -34 -177 -175 -177c-43 0 -90 12 -118 31l39 85c21 -11 41 -17 65 -17c41 0 60 21 71 81l79 445c4 21 0 27 -19 30l-32 2l13 76h176z" />
    <glyph glyph-name="circumflex" unicode="&#x2c6;" horiz-adv-x="500" 
d="M237 564l-40 36l124 134c23 23 36 37 63 37c25 0 36 -9 51 -34l79 -141l-43 -32l-99 103z" />
    <glyph glyph-name="caron" unicode="&#x2c7;" horiz-adv-x="500" 
d="M494 773l39 -35l-125 -136c-23 -24 -38 -35 -62 -35s-35 9 -50 34l-79 140l44 32l98 -103z" />
    <glyph glyph-name="uni02C9" unicode="&#x2c9;" horiz-adv-x="499" 
d="M212 608l15 86h286l-15 -86h-286z" />
    <glyph glyph-name="breve" unicode="&#x2d8;" horiz-adv-x="500" 
d="M465 725l74 -18c-35 -92 -86 -142 -181 -142c-101 0 -140 69 -143 143l76 16c7 -60 32 -83 76 -83c39 0 71 20 98 84z" />
    <glyph glyph-name="dieresis" unicode="&#xa8;" horiz-adv-x="500" 
d="M398 636c0 41 34 76 81 76c36 0 57 -24 57 -56c0 -43 -36 -75 -80 -75c-37 0 -58 22 -58 55zM201 636c0 41 33 76 80 76c36 0 58 -24 58 -56c0 -43 -37 -75 -81 -75c-36 0 -57 22 -57 55z" />
    <glyph glyph-name="macron" unicode="&#xaf;" horiz-adv-x="499" 
d="M212 608l15 86h286l-15 -86h-286z" />
    <glyph glyph-name="degree" unicode="&#xb0;" horiz-adv-x="298" 
d="M138 579c0 76 60 138 137 138c64 0 96 -42 96 -94c0 -77 -59 -139 -140 -139c-63 0 -93 40 -93 95zM201 587c0 -27 14 -47 43 -47c40 0 64 33 64 73c0 28 -14 47 -43 47c-44 0 -64 -34 -64 -73z" />
    <glyph glyph-name="acute" unicode="&#xb4;" horiz-adv-x="499" 
d="M255 602l148 187l43 -19c18 -7 27 -19 27 -34c0 -24 -13 -35 -40 -56l-143 -112z" />
    <glyph glyph-name="grave" unicode="`" horiz-adv-x="500" 
d="M365 788l89 -198l-45 -26l-103 113c-19 19 -24 33 -24 45c0 27 13 40 45 52z" />
    <glyph glyph-name="cedilla" unicode="&#xb8;" horiz-adv-x="500" 
d="M212 3h58l-26 -52c43 -4 78 -28 78 -72c0 -76 -71 -100 -132 -100c-33 0 -69 8 -89 19l24 53c15 -5 41 -13 64 -13c44 0 57 19 57 39c0 25 -35 29 -84 29z" />
    <glyph glyph-name="dotaccent" unicode="&#x2d9;" horiz-adv-x="500" 
d="M292 636c0 44 38 79 86 79c37 0 62 -23 62 -56c0 -47 -39 -81 -87 -81c-39 0 -61 23 -61 58z" />
    <glyph glyph-name="ring" unicode="&#x2da;" horiz-adv-x="500" 
d="M259 653c0 67 53 120 127 120c60 0 89 -37 89 -84c0 -75 -54 -123 -123 -123c-64 0 -93 36 -93 87zM324 656c0 -23 12 -34 35 -34c35 0 50 26 50 61c0 23 -12 34 -35 34c-41 0 -50 -30 -50 -61z" />
    <glyph glyph-name="ogonek" unicode="&#x2db;" horiz-adv-x="500" 
d="M223 9h87l2 -8c-52 -29 -115 -73 -115 -114c0 -17 8 -28 35 -28c20 0 39 4 54 11l10 -65c-23 -11 -62 -22 -99 -22c-68 0 -90 41 -90 77c0 76 65 120 116 149z" />
    <glyph glyph-name="tilde" unicode="&#x2dc;" horiz-adv-x="500" 
d="M240 597l-41 31c39 63 73 80 112 80c48 0 92 -28 127 -28c20 0 37 10 52 30l47 -29c-31 -59 -68 -82 -113 -82s-89 28 -127 28c-23 0 -36 -9 -57 -30z" />
    <glyph glyph-name="hungarumlaut" unicode="&#x2dd;" horiz-adv-x="500" 
d="M196 603l138 187l41 -16c19 -7 30 -17 30 -34c0 -21 -13 -37 -37 -56l-136 -111zM364 605l145 184l39 -17c19 -8 29 -17 29 -36c0 -23 -13 -37 -40 -56l-139 -107z" />
    <glyph glyph-name="perthousand" unicode="&#x2030;" horiz-adv-x="924" 
d="M253 657c68 0 111 -38 111 -118c0 -127 -70 -193 -158 -193c-72 0 -111 38 -111 117c0 125 66 194 158 194zM216 404c28 0 73 25 73 134c0 45 -21 60 -46 60c-33 0 -71 -32 -71 -141c0 -37 17 -53 44 -53zM143 109l-43 67l506 368l45 -67zM531 297c68 0 111 -38 111 -118
c0 -127 -70 -193 -158 -193c-72 0 -111 38 -111 117c0 125 66 194 158 194zM494 44c28 0 73 25 73 134c0 45 -21 60 -46 60c-33 0 -71 -32 -71 -141c0 -37 17 -53 44 -53zM842 297c68 0 111 -38 111 -118c0 -127 -70 -193 -158 -193c-72 0 -111 38 -111 117
c0 125 66 194 158 194zM805 44c28 0 73 25 73 134c0 45 -21 60 -46 60c-33 0 -71 -32 -71 -141c0 -37 17 -53 44 -53z" />
    <glyph glyph-name="percent" unicode="%" horiz-adv-x="801" 
d="M291 -8l-72 35l402 626l75 -34zM293 657c75 0 123 -37 123 -129c0 -109 -44 -235 -183 -235c-76 0 -126 42 -126 127c0 139 69 237 186 237zM241 358c37 0 61 25 74 65c11 35 14 80 14 107c0 49 -18 63 -47 63c-51 0 -75 -48 -86 -116c-3 -23 -5 -39 -5 -58
c0 -48 23 -61 50 -61zM680 348c75 0 123 -37 123 -129c0 -109 -44 -235 -183 -235c-76 0 -126 42 -126 127c0 139 69 237 186 237zM628 49c37 0 61 25 74 65c11 35 14 80 14 107c0 49 -18 63 -47 63c-51 0 -75 -48 -86 -116c-3 -23 -5 -39 -5 -58c0 -48 22 -61 50 -61z" />
    <glyph glyph-name="fraction" unicode="&#x2044;" horiz-adv-x="165" 
d="M-35 -20l-72 41l419 650l73 -40z" />
    <glyph glyph-name="zerosuperior" unicode="&#x2070;" horiz-adv-x="364" 
d="M315 737c79 0 128 -42 128 -142c0 -17 -1 -35 -4 -56c-21 -140 -90 -203 -194 -203c-84 0 -132 45 -132 141c0 19 3 41 6 62c24 139 96 198 196 198zM256 406c44 0 80 31 96 132c3 23 5 40 5 59c0 53 -20 71 -55 71c-47 0 -81 -34 -98 -135c-4 -20 -6 -40 -6 -59
c0 -51 19 -68 58 -68z" />
    <glyph glyph-name="onesuperior" unicode="&#xb9;" horiz-adv-x="331" 
d="M143 409l56 3c15 1 21 5 24 21l38 210c-27 -16 -63 -31 -91 -39l-21 66c52 15 105 36 144 61h70l-56 -317l69 -5l-12 -68h-232z" />
    <glyph glyph-name="twosuperior" unicode="&#xb2;" horiz-adv-x="342" 
d="M139 600l18 106c39 19 90 31 139 31c79 0 116 -36 116 -92c0 -47 -24 -81 -77 -130l-109 -102h159l-12 -72h-275l10 58l149 142c35 35 60 61 60 92c0 24 -17 35 -44 35c-15 0 -29 -2 -40 -5c-13 -4 -14 -10 -17 -26l-7 -33z" />
    <glyph glyph-name="threesuperior" unicode="&#xb3;" horiz-adv-x="327" 
d="M141 611l18 100c36 15 87 26 127 26c79 0 112 -40 112 -85c0 -47 -31 -80 -74 -107c33 -14 49 -39 49 -75c0 -72 -51 -134 -155 -134c-56 0 -105 18 -128 33l31 60c25 -13 58 -25 93 -25c44 0 76 18 76 61c0 31 -24 46 -71 46h-29l15 59h60c23 15 46 34 46 66
c0 27 -23 33 -42 33c-15 0 -28 -2 -40 -5c-11 -4 -13 -10 -16 -23l-5 -27z" />
    <glyph glyph-name="foursuperior" unicode="&#x2074;" horiz-adv-x="371" 
d="M339 597h52l-19 -107h61l-11 -66h-62l-14 -83h-85l15 85h-164l10 54l167 262l64 -33l-144 -219h76l6 31z" />
    <glyph glyph-name="fivesuperior" unicode="&#x2075;" horiz-adv-x="325" 
d="M146 530l63 202h118c16 0 20 3 23 18l5 24l67 2l-19 -112h-147l-25 -78c80 -3 150 -30 150 -111c0 -57 -32 -139 -165 -139c-62 0 -117 26 -127 36l34 62c19 -12 53 -27 93 -27c56 0 76 28 76 63c0 53 -58 60 -146 60z" />
    <glyph glyph-name="sixsuperior" unicode="&#x2076;" horiz-adv-x="352" 
d="M380 750l7 -64c-92 -15 -145 -56 -168 -120c31 17 62 29 98 29c64 0 99 -36 99 -97c0 -86 -57 -162 -158 -162c-92 0 -132 51 -132 144c0 110 61 246 254 270zM333 484c0 31 -13 49 -48 49c-23 0 -51 -10 -72 -23c-3 -13 -4 -26 -4 -41c0 -37 11 -66 54 -66
c35 0 70 22 70 81z" />
    <glyph glyph-name="sevensuperior" unicode="&#x2077;" horiz-adv-x="312" 
d="M333 669h-109c-19 0 -21 -6 -24 -22l-4 -26l-69 -4l19 115h286l-10 -53c-92 -101 -157 -221 -202 -340l-79 19c40 113 104 215 192 311z" />
    <glyph glyph-name="eightsuperior" unicode="&#x2078;" horiz-adv-x="341" 
d="M106 427c0 64 49 97 101 121c-25 13 -57 40 -57 77c0 64 59 112 151 112c84 0 113 -39 113 -77c0 -49 -34 -81 -77 -108c39 -21 63 -49 63 -89c0 -60 -45 -127 -166 -127c-96 0 -128 47 -128 91zM312 452c0 27 -26 48 -53 60c-44 -19 -72 -42 -72 -75
c0 -20 15 -40 56 -40c45 0 69 30 69 55zM290 681c-39 0 -57 -23 -57 -44c0 -19 15 -37 46 -53c28 16 56 41 56 66c0 16 -13 31 -45 31z" />
    <glyph glyph-name="ninesuperior" unicode="&#x2079;" horiz-adv-x="355" 
d="M164 322l-7 65c92 15 149 64 166 117c-31 -17 -64 -26 -97 -26c-64 0 -97 45 -97 105c0 87 63 154 164 154c87 0 125 -50 125 -138c0 -102 -46 -248 -254 -277zM211 590c0 -31 15 -50 50 -50c23 0 51 10 70 23c3 13 4 27 4 40c0 36 -12 67 -51 67c-36 0 -73 -23 -73 -80z
" />
    <glyph glyph-name="zeroinferior" unicode="&#x2080;" horiz-adv-x="364" 
d="M240 316c79 0 128 -42 128 -142c0 -17 -1 -35 -4 -56c-21 -140 -90 -203 -194 -203c-84 0 -132 45 -132 141c0 19 3 41 6 62c24 139 96 198 196 198zM181 -15c44 0 80 31 96 132c3 23 5 40 5 59c0 53 -20 71 -55 71c-47 0 -81 -34 -98 -135c-4 -20 -6 -40 -6 -59
c0 -51 19 -68 58 -68z" />
    <glyph glyph-name="oneinferior" unicode="&#x2081;" horiz-adv-x="331" 
d="M70 -12l56 3c15 1 21 5 24 21l38 210c-27 -16 -63 -31 -91 -39l-21 66c52 15 105 36 144 61h70l-56 -317l69 -5l-12 -68h-232z" />
    <glyph glyph-name="twoinferior" unicode="&#x2082;" horiz-adv-x="342" 
d="M65 179l18 106c39 19 90 31 139 31c79 0 116 -36 116 -92c0 -47 -24 -81 -77 -130l-109 -102h159l-12 -72h-275l10 58l149 142c35 35 60 61 60 92c0 24 -17 35 -44 35c-15 0 -29 -2 -40 -5c-13 -4 -14 -10 -17 -26l-7 -33z" />
    <glyph glyph-name="threeinferior" unicode="&#x2083;" horiz-adv-x="327" 
d="M66 190l18 100c36 15 87 26 127 26c79 0 112 -40 112 -85c0 -47 -31 -80 -74 -107c33 -14 49 -39 49 -75c0 -72 -51 -134 -155 -134c-56 0 -105 18 -128 33l31 60c25 -13 58 -25 93 -25c44 0 76 18 76 61c0 31 -24 46 -71 46h-29l15 59h60c23 15 46 34 46 66
c0 27 -23 33 -42 33c-15 0 -28 -2 -40 -5c-11 -4 -13 -10 -16 -23l-5 -27z" />
    <glyph glyph-name="fourinferior" unicode="&#x2084;" horiz-adv-x="371" 
d="M262 176h52l-19 -107h61l-11 -66h-62l-14 -83h-85l15 85h-164l10 54l167 262l64 -33l-144 -219h76l6 31z" />
    <glyph glyph-name="fiveinferior" unicode="&#x2085;" horiz-adv-x="325" 
d="M70 109l63 202h118c16 0 20 3 23 18l5 24l67 2l-19 -112h-147l-25 -78c80 -3 150 -30 150 -111c0 -57 -32 -139 -165 -139c-62 0 -117 26 -127 36l34 62c19 -12 53 -27 93 -27c56 0 76 28 76 63c0 53 -58 60 -146 60z" />
    <glyph glyph-name="sixinferior" unicode="&#x2086;" horiz-adv-x="352" 
d="M301 329l7 -64c-92 -15 -145 -56 -168 -120c31 17 62 29 98 29c64 0 99 -36 99 -97c0 -86 -57 -162 -158 -162c-92 0 -132 51 -132 144c0 110 61 246 254 270zM254 63c0 31 -13 49 -48 49c-23 0 -51 -10 -72 -23c-3 -13 -4 -26 -4 -41c0 -37 11 -66 54 -66
c35 0 70 22 70 81z" />
    <glyph glyph-name="seveninferior" unicode="&#x2087;" horiz-adv-x="312" 
d="M254 248h-109c-19 0 -21 -6 -24 -22l-4 -26l-69 -4l19 115h286l-10 -53c-92 -101 -157 -221 -202 -340l-79 19c40 113 104 215 192 311z" />
    <glyph glyph-name="eightinferior" unicode="&#x2088;" horiz-adv-x="341" 
d="M28 6c0 64 49 97 101 121c-25 13 -57 40 -57 77c0 64 59 112 151 112c84 0 113 -39 113 -77c0 -49 -34 -81 -77 -108c39 -21 63 -49 63 -89c0 -60 -45 -127 -166 -127c-96 0 -128 47 -128 91zM234 31c0 27 -26 48 -53 60c-44 -19 -72 -42 -72 -75c0 -20 15 -40 56 -40
c45 0 69 30 69 55zM212 260c-39 0 -57 -23 -57 -44c0 -19 15 -37 46 -53c28 16 56 41 56 66c0 16 -13 31 -45 31z" />
    <glyph glyph-name="nineinferior" unicode="&#x2089;" horiz-adv-x="355" 
d="M85 -99l-7 65c92 15 149 64 166 117c-31 -17 -64 -26 -97 -26c-64 0 -97 45 -97 105c0 87 63 154 164 154c87 0 125 -50 125 -138c0 -102 -46 -248 -254 -277zM132 169c0 -31 15 -50 50 -50c23 0 51 10 70 23c3 13 4 27 4 40c0 36 -12 67 -51 67c-36 0 -73 -23 -73 -80z
" />
    <glyph glyph-name="zero.num" horiz-adv-x="364" 
d="M298 657c79 0 128 -42 128 -142c0 -17 -1 -35 -4 -56c-21 -140 -90 -203 -194 -203c-84 0 -132 45 -132 141c0 19 3 41 6 62c24 139 96 198 196 198zM239 326c44 0 80 31 96 132c3 23 5 40 5 59c0 53 -20 71 -55 71c-47 0 -81 -34 -98 -135c-4 -20 -6 -40 -6 -59
c0 -51 19 -68 58 -68z" />
    <glyph glyph-name="one.num" horiz-adv-x="331" 
d="M133 329l56 3c15 1 21 5 24 21l38 210c-27 -16 -63 -31 -91 -39l-21 66c52 15 105 36 144 61h70l-56 -317l69 -5l-12 -68h-232z" />
    <glyph glyph-name="two.num" horiz-adv-x="342" 
d="M128 520l18 106c39 19 90 31 139 31c79 0 116 -36 116 -92c0 -47 -24 -81 -77 -130l-109 -102h159l-12 -72h-275l10 58l149 142c35 35 60 61 60 92c0 24 -17 35 -44 35c-15 0 -29 -2 -40 -5c-13 -4 -14 -10 -17 -26l-7 -33z" />
    <glyph glyph-name="three.num" horiz-adv-x="327" 
d="M126 531l18 100c36 15 87 26 127 26c79 0 112 -40 112 -85c0 -47 -31 -80 -74 -107c33 -14 49 -39 49 -75c0 -72 -51 -134 -155 -134c-56 0 -105 18 -128 33l31 60c25 -13 58 -25 93 -25c44 0 76 18 76 61c0 31 -24 46 -71 46h-29l15 59h60c23 15 46 34 46 66
c0 27 -23 33 -42 33c-15 0 -28 -2 -40 -5c-11 -4 -13 -10 -16 -23l-5 -27z" />
    <glyph glyph-name="four.num" horiz-adv-x="371" 
d="M325 517h52l-19 -107h61l-11 -66h-62l-14 -83h-85l15 85h-164l10 54l167 262l64 -33l-144 -219h76l6 31z" />
    <glyph glyph-name="five.num" horiz-adv-x="325" 
d="M128 450l63 202h118c16 0 20 3 23 18l5 24l67 2l-19 -112h-147l-25 -78c80 -3 150 -30 150 -111c0 -57 -32 -139 -165 -139c-62 0 -117 26 -127 36l34 62c19 -12 53 -27 93 -27c56 0 76 28 76 63c0 53 -58 60 -146 60z" />
    <glyph glyph-name="six.num" horiz-adv-x="352" 
d="M362 670l7 -64c-92 -15 -145 -56 -168 -120c31 17 62 29 98 29c64 0 99 -36 99 -97c0 -86 -57 -162 -158 -162c-92 0 -132 51 -132 144c0 110 61 246 254 270zM315 404c0 31 -13 49 -48 49c-23 0 -51 -10 -72 -23c-3 -13 -4 -26 -4 -41c0 -37 11 -66 54 -66
c35 0 70 22 70 81z" />
    <glyph glyph-name="seven.num" horiz-adv-x="312" 
d="M315 589h-109c-19 0 -21 -6 -24 -22l-4 -26l-69 -4l19 115h286l-10 -53c-92 -101 -157 -221 -202 -340l-79 19c40 113 104 215 192 311z" />
    <glyph glyph-name="eight.num" horiz-adv-x="341" 
d="M90 347c0 64 49 97 101 121c-25 13 -57 40 -57 77c0 64 59 112 151 112c84 0 113 -39 113 -77c0 -49 -34 -81 -77 -108c39 -21 63 -49 63 -89c0 -60 -45 -127 -166 -127c-96 0 -128 47 -128 91zM296 372c0 27 -26 48 -53 60c-44 -19 -72 -42 -72 -75c0 -20 15 -40 56 -40
c45 0 69 30 69 55zM274 601c-39 0 -57 -23 -57 -44c0 -19 15 -37 46 -53c28 16 56 41 56 66c0 16 -13 31 -45 31z" />
    <glyph glyph-name="nine.num" horiz-adv-x="355" 
d="M151 242l-7 65c92 15 149 64 166 117c-31 -17 -64 -26 -97 -26c-64 0 -97 45 -97 105c0 87 63 154 164 154c87 0 125 -50 125 -138c0 -102 -46 -248 -254 -277zM198 510c0 -31 15 -50 50 -50c23 0 51 10 70 23c3 13 4 27 4 40c0 36 -12 67 -51 67c-36 0 -73 -23 -73 -80z
" />
    <glyph glyph-name="zero.denom" horiz-adv-x="364" 
d="M248 396c79 0 128 -42 128 -142c0 -17 -1 -35 -4 -56c-21 -140 -90 -203 -194 -203c-84 0 -132 45 -132 141c0 19 3 41 6 62c24 139 96 198 196 198zM189 65c44 0 80 31 96 132c3 23 5 40 5 59c0 53 -20 71 -55 71c-47 0 -81 -34 -98 -135c-4 -20 -6 -40 -6 -59
c0 -51 19 -68 58 -68z" />
    <glyph glyph-name="one.denom" horiz-adv-x="331" 
d="M79 68l56 3c15 1 21 5 24 21l38 210c-27 -16 -63 -31 -91 -39l-21 66c52 15 105 36 144 61h70l-56 -317l69 -5l-12 -68h-232z" />
    <glyph glyph-name="two.denom" horiz-adv-x="342" 
d="M76 259l18 106c39 19 90 31 139 31c79 0 116 -36 116 -92c0 -47 -24 -81 -77 -130l-109 -102h159l-12 -72h-275l10 58l149 142c35 35 60 61 60 92c0 24 -17 35 -44 35c-15 0 -29 -2 -40 -5c-13 -4 -14 -10 -17 -26l-7 -33z" />
    <glyph glyph-name="three.denom" horiz-adv-x="327" 
d="M75 270l18 100c36 15 87 26 127 26c79 0 112 -40 112 -85c0 -47 -31 -80 -74 -107c33 -14 49 -39 49 -75c0 -72 -51 -134 -155 -134c-56 0 -105 18 -128 33l31 60c25 -13 58 -25 93 -25c44 0 76 18 76 61c0 31 -24 46 -71 46h-29l15 59h60c23 15 46 34 46 66
c0 27 -23 33 -42 33c-15 0 -28 -2 -40 -5c-11 -4 -13 -10 -16 -23l-5 -27z" />
    <glyph glyph-name="four.denom" horiz-adv-x="371" 
d="M273 256h52l-19 -107h61l-11 -66h-62l-14 -83h-85l15 85h-164l10 54l167 262l64 -33l-144 -219h76l6 31z" />
    <glyph glyph-name="five.denom" horiz-adv-x="325" 
d="M79 189l63 202h118c16 0 20 3 23 18l5 24l67 2l-19 -112h-147l-25 -78c80 -3 150 -30 150 -111c0 -57 -32 -139 -165 -139c-62 0 -117 26 -127 36l34 62c19 -12 53 -27 93 -27c56 0 76 28 76 63c0 53 -58 60 -146 60z" />
    <glyph glyph-name="six.denom" horiz-adv-x="352" 
d="M311 409l7 -64c-92 -15 -145 -56 -168 -120c31 17 62 29 98 29c64 0 99 -36 99 -97c0 -86 -57 -162 -158 -162c-92 0 -132 51 -132 144c0 110 61 246 254 270zM264 143c0 31 -13 49 -48 49c-23 0 -51 -10 -72 -23c-3 -13 -4 -26 -4 -41c0 -37 11 -66 54 -66
c35 0 70 22 70 81z" />
    <glyph glyph-name="seven.denom" horiz-adv-x="312" 
d="M265 328h-109c-19 0 -21 -6 -24 -22l-4 -26l-69 -4l19 115h286l-10 -53c-92 -101 -157 -221 -202 -340l-79 19c40 113 104 215 192 311z" />
    <glyph glyph-name="eight.denom" horiz-adv-x="341" 
d="M42 86c0 64 49 97 101 121c-25 13 -57 40 -57 77c0 64 59 112 151 112c84 0 113 -39 113 -77c0 -49 -34 -81 -77 -108c39 -21 63 -49 63 -89c0 -60 -45 -127 -166 -127c-96 0 -128 47 -128 91zM248 111c0 27 -26 48 -53 60c-44 -19 -72 -42 -72 -75c0 -20 15 -40 56 -40
c45 0 69 30 69 55zM226 340c-39 0 -57 -23 -57 -44c0 -19 15 -37 46 -53c28 16 56 41 56 66c0 16 -13 31 -45 31z" />
    <glyph glyph-name="nine.denom" horiz-adv-x="355" 
d="M96 -19l-7 65c92 15 149 64 166 117c-31 -17 -64 -26 -97 -26c-64 0 -97 45 -97 105c0 87 63 154 164 154c87 0 125 -50 125 -138c0 -102 -46 -248 -254 -277zM143 249c0 -31 15 -50 50 -50c23 0 51 10 70 23c3 13 4 27 4 40c0 36 -12 67 -51 67c-36 0 -73 -23 -73 -80z
" />
    <glyph glyph-name="onehalf" unicode="&#xbd;" horiz-adv-x="825" 
d="M287 -20l-72 41l419 650l73 -40zM95 329l56 3c15 1 21 5 24 21l38 210c-27 -16 -63 -31 -91 -39l-21 66c52 15 105 36 144 61h70l-56 -317l69 -5l-12 -68h-232zM579 259l18 106c39 19 90 31 139 31c79 0 116 -36 116 -92c0 -47 -24 -81 -77 -130l-109 -102h159l-12 -72
h-275l10 58l149 142c35 35 60 61 60 92c0 24 -17 35 -44 35c-15 0 -29 -2 -40 -5c-13 -4 -14 -10 -17 -26l-7 -33z" />
    <glyph glyph-name="onequarter" unicode="&#xbc;" horiz-adv-x="825" 
d="M314 -20l-72 41l419 650l73 -40zM116 329l56 3c15 1 21 5 24 21l38 210c-27 -16 -63 -31 -91 -39l-21 66c52 15 105 36 144 61h70l-56 -317l69 -5l-12 -68h-232zM761 256h52l-19 -107h61l-11 -66h-62l-14 -83h-85l15 85h-164l10 54l167 262l64 -33l-144 -219h76l6 31z
" />
    <glyph glyph-name="threequarters" unicode="&#xbe;" horiz-adv-x="825" 
d="M316 -20l-72 41l419 650l73 -40zM761 256h52l-19 -107h61l-11 -66h-62l-14 -83h-85l15 85h-164l10 54l167 262l64 -33l-144 -219h76l6 31zM154 531l18 100c36 15 87 26 127 26c79 0 112 -40 112 -85c0 -47 -31 -80 -74 -107c33 -14 49 -39 49 -75
c0 -72 -51 -134 -155 -134c-56 0 -105 18 -128 33l31 60c25 -13 58 -25 93 -25c44 0 76 18 76 61c0 31 -24 46 -71 46h-29l15 59h60c23 15 46 34 46 66c0 27 -23 33 -42 33c-15 0 -28 -2 -40 -5c-11 -4 -13 -10 -16 -23l-5 -27z" />
    <glyph glyph-name="onethird" unicode="&#x2153;" horiz-adv-x="825" 
d="M302 -20l-72 41l419 650l73 -40zM98 329l56 3c15 1 21 5 24 21l38 210c-27 -16 -63 -31 -91 -39l-21 66c52 15 105 36 144 61h70l-56 -317l69 -5l-12 -68h-232zM604 270l18 100c36 15 87 26 127 26c79 0 112 -40 112 -85c0 -47 -31 -80 -74 -107c33 -14 49 -39 49 -75
c0 -72 -51 -134 -155 -134c-56 0 -105 18 -128 33l31 60c25 -13 58 -25 93 -25c44 0 76 18 76 61c0 31 -24 46 -71 46h-29l15 59h60c23 15 46 34 46 66c0 27 -23 33 -42 33c-15 0 -28 -2 -40 -5c-11 -4 -13 -10 -16 -23l-5 -27z" />
    <glyph glyph-name="twothirds" unicode="&#x2154;" horiz-adv-x="825" 
d="M325 -20l-72 41l419 650l73 -40zM129 520l18 106c39 19 90 31 139 31c79 0 116 -36 116 -92c0 -47 -24 -81 -77 -130l-109 -102h159l-12 -72h-275l10 58l149 142c35 35 60 61 60 92c0 24 -17 35 -44 35c-15 0 -29 -2 -40 -5c-13 -4 -14 -10 -17 -26l-7 -33zM614 270
l18 100c36 15 87 26 127 26c79 0 112 -40 112 -85c0 -47 -31 -80 -74 -107c33 -14 49 -39 49 -75c0 -72 -51 -134 -155 -134c-56 0 -105 18 -128 33l31 60c25 -13 58 -25 93 -25c44 0 76 18 76 61c0 31 -24 46 -71 46h-29l15 59h60c23 15 46 34 46 66c0 27 -23 33 -42 33
c-15 0 -28 -2 -40 -5c-11 -4 -13 -10 -16 -23l-5 -27z" />
    <glyph glyph-name="oneeighth" unicode="&#x215b;" horiz-adv-x="825" 
d="M314 -20l-72 41l419 650l73 -40zM107 329l56 3c15 1 21 5 24 21l38 210c-27 -16 -63 -31 -91 -39l-21 66c52 15 105 36 144 61h70l-56 -317l69 -5l-12 -68h-232zM560 86c0 64 49 97 101 121c-25 13 -57 40 -57 77c0 64 59 112 151 112c84 0 113 -39 113 -77
c0 -49 -34 -81 -77 -108c39 -21 63 -49 63 -89c0 -60 -45 -127 -166 -127c-96 0 -128 47 -128 91zM766 111c0 27 -26 48 -53 60c-44 -19 -72 -42 -72 -75c0 -20 15 -40 56 -40c45 0 69 30 69 55zM744 340c-39 0 -57 -23 -57 -44c0 -19 15 -37 46 -53c28 16 56 41 56 66
c0 16 -13 31 -45 31z" />
    <glyph glyph-name="threeeighths" unicode="&#x215c;" horiz-adv-x="825" 
d="M303 -20l-72 41l419 650l73 -40zM537 86c0 64 49 97 101 121c-25 13 -57 40 -57 77c0 64 59 112 151 112c84 0 113 -39 113 -77c0 -49 -34 -81 -77 -108c39 -21 63 -49 63 -89c0 -60 -45 -127 -166 -127c-96 0 -128 47 -128 91zM743 111c0 27 -26 48 -53 60
c-44 -19 -72 -42 -72 -75c0 -20 15 -40 56 -40c45 0 69 30 69 55zM721 340c-39 0 -57 -23 -57 -44c0 -19 15 -37 46 -53c28 16 56 41 56 66c0 16 -13 31 -45 31zM132 531l18 100c36 15 87 26 127 26c79 0 112 -40 112 -85c0 -47 -31 -80 -74 -107c33 -14 49 -39 49 -75
c0 -72 -51 -134 -155 -134c-56 0 -105 18 -128 33l31 60c25 -13 58 -25 93 -25c44 0 76 18 76 61c0 31 -24 46 -71 46h-29l15 59h60c23 15 46 34 46 66c0 27 -23 33 -42 33c-15 0 -28 -2 -40 -5c-11 -4 -13 -10 -16 -23l-5 -27z" />
    <glyph glyph-name="fiveeighths" unicode="&#x215d;" horiz-adv-x="825" 
d="M312 -20l-72 41l419 650l73 -40zM136 450l63 202h118c16 0 20 3 23 18l5 24l67 2l-19 -112h-147l-25 -78c80 -3 150 -30 150 -111c0 -57 -32 -139 -165 -139c-62 0 -117 26 -127 36l34 62c19 -12 53 -27 93 -27c56 0 76 28 76 63c0 53 -58 60 -146 60zM549 86
c0 64 49 97 101 121c-25 13 -57 40 -57 77c0 64 59 112 151 112c84 0 113 -39 113 -77c0 -49 -34 -81 -77 -108c39 -21 63 -49 63 -89c0 -60 -45 -127 -166 -127c-96 0 -128 47 -128 91zM755 111c0 27 -26 48 -53 60c-44 -19 -72 -42 -72 -75c0 -20 15 -40 56 -40
c45 0 69 30 69 55zM733 340c-39 0 -57 -23 -57 -44c0 -19 15 -37 46 -53c28 16 56 41 56 66c0 16 -13 31 -45 31z" />
    <glyph glyph-name="seveneighths" unicode="&#x215e;" horiz-adv-x="825" 
d="M258 -20l-72 41l419 650l73 -40zM521 86c0 64 49 97 101 121c-25 13 -57 40 -57 77c0 64 59 112 151 112c84 0 113 -39 113 -77c0 -49 -34 -81 -77 -108c39 -21 63 -49 63 -89c0 -60 -45 -127 -166 -127c-96 0 -128 47 -128 91zM727 111c0 27 -26 48 -53 60
c-44 -19 -72 -42 -72 -75c0 -20 15 -40 56 -40c45 0 69 30 69 55zM705 340c-39 0 -57 -23 -57 -44c0 -19 15 -37 46 -53c28 16 56 41 56 66c0 16 -13 31 -45 31zM325 589h-109c-19 0 -21 -6 -24 -22l-4 -26l-69 -4l19 115h286l-10 -53c-92 -101 -157 -221 -202 -340l-79 19
c40 113 104 215 192 311z" />
    <glyph glyph-name="minus" unicode="&#x2212;" horiz-adv-x="534" 
d="M533 363l-16 -97h-405l16 97h405z" />
    <glyph glyph-name="uni2215" unicode="&#x2215;" horiz-adv-x="476" 
d="M117 -117l-96 36l434 820l97 -35z" />
    <glyph glyph-name="uni2219" unicode="&#x2219;" horiz-adv-x="314" 
d="M140 313c0 45 34 80 81 80c40 0 60 -22 60 -54c0 -44 -31 -81 -80 -81c-41 0 -61 23 -61 55z" />
    <glyph glyph-name="approxequal" unicode="&#x2248;" horiz-adv-x="619" 
d="M440 140c-89 0 -136 68 -193 68c-37 0 -69 -30 -102 -65l-58 56c48 60 103 105 167 105c78 0 126 -71 193 -71c35 0 64 20 103 63l58 -58c-51 -64 -107 -98 -168 -98zM474 346c-89 0 -136 69 -193 69c-37 0 -70 -30 -102 -65l-58 56c49 59 103 104 167 104
c78 0 126 -70 193 -70c35 0 64 20 103 63l58 -58c-51 -64 -107 -99 -168 -99z" />
    <glyph glyph-name="notequal" unicode="&#x2260;" 
d="M515 259l-16 -96h-200l-47 -106h-100l48 106h-106l16 96h133l44 95h-159l16 96h186l48 104h96l-47 -104h122l-16 -96h-149l-43 -95h174z" />
    <glyph glyph-name="lessequal" unicode="&#x2264;" 
d="M483 117l-17 -96h-390l17 96h390zM553 482l-284 -122l242 -125l-53 -84l-327 172l14 82l378 170z" />
    <glyph glyph-name="greaterequal" unicode="&#x2265;" 
d="M122 243l285 122l-243 125l53 84l327 -172l-14 -82l-378 -169zM506 117l-17 -96h-390l17 96h390z" />
    <glyph glyph-name="less" unicode="&#x3c;" 
d="M525 534l29 -92l-297 -127l246 -129l-52 -86l-333 180l14 81z" />
    <glyph glyph-name="equal" unicode="=" 
d="M549 450l-16 -96h-405l16 96h405zM515 259l-16 -96h-405l16 96h405z" />
    <glyph glyph-name="greater" unicode="&#x3e;" 
d="M134 103l-29 92l296 127l-245 129l51 86l334 -180l-14 -81z" />
    <glyph glyph-name="logicalnot" unicode="&#xac;" 
d="M416 172l25 144h-333l17 96h429l-42 -240h-96z" />
    <glyph glyph-name="plus" unicode="+" 
d="M281 364l28 161h101l-29 -161h155l-17 -98h-155l-28 -160h-101l29 160h-155l17 98h155z" />
    <glyph glyph-name="plusminus" unicode="&#xb1;" 
d="M279 367l28 156h101l-28 -156h154l-16 -98h-154l-24 -134h154l-17 -97h-405l17 97h150l24 134h-150l16 98h150z" />
    <glyph glyph-name="divide" unicode="&#xf7;" horiz-adv-x="534" 
d="M225 114c0 43 32 81 77 81c36 0 56 -22 56 -55c0 -43 -34 -80 -78 -80c-36 0 -55 22 -55 54zM291 492c0 43 34 81 78 81c36 0 56 -23 56 -55c0 -45 -34 -81 -79 -81c-36 0 -55 22 -55 55zM533 363l-16 -97h-405l16 97h405z" />
    <glyph glyph-name="multiply" unicode="&#xd7;" 
d="M257 317l-95 114l81 69l94 -114l132 112l61 -72l-133 -113l91 -110l-82 -69l-89 110l-138 -116l-60 72z" />
    <glyph glyph-name="partialdiff" unicode="&#x2202;" horiz-adv-x="554" 
d="M244 585l37 86c195 -37 268 -158 268 -313c0 -172 -66 -373 -270 -373c-139 0 -193 88 -193 188c0 148 99 249 233 249c49 0 97 -17 130 -44l1 1c-8 115 -94 185 -206 206zM284 71c82 0 125 81 144 185l4 34c-20 24 -62 47 -105 47c-83 0 -128 -75 -128 -167
c0 -64 29 -99 85 -99z" />
    <glyph glyph-name="Omega" unicode="&#x2126;" horiz-adv-x="783" 
d="M247 300c0 -100 50 -183 103 -218l-15 -82h-282l18 103h149c-53 42 -93 129 -93 212c0 220 173 349 373 349c169 0 277 -96 277 -260c0 -137 -70 -233 -175 -301h146l-18 -103h-276l15 83c67 43 184 133 184 307c0 117 -70 173 -163 173c-125 0 -243 -80 -243 -263z" />
    <glyph glyph-name="Delta" unicode="&#x2206;" horiz-adv-x="669" 
d="M661 0h-634l374 659h121zM532 92l-89 449h-2l-248 -449h339z" />
    <glyph glyph-name="product" unicode="&#x220f;" horiz-adv-x="747" 
d="M85 -22l107 604l-52 4l14 79h677l-14 -76l-30 -2c-19 -3 -27 -8 -31 -32l-106 -605l53 -3l-14 -79h-229l13 76l31 3c20 3 26 8 30 31l106 597h-330l-110 -625l53 -3l-13 -79h-229l13 75l30 4c19 3 27 8 31 31z" />
    <glyph glyph-name="summation" unicode="&#x2211;" horiz-adv-x="566" 
d="M512 -132h-531l15 85l316 311l-198 309l15 87h502l-28 -159l-98 -8l9 54c3 17 1 26 -22 26h-243l192 -306l-319 -310h280c19 0 25 6 29 27l9 46l101 5z" />
    <glyph glyph-name="uni0394" unicode="&#x394;" horiz-adv-x="669" 
d="M651 0h-634l374 659h121zM522 92l-89 449h-2l-248 -449h339z" />
    <glyph glyph-name="uni03A9" unicode="&#x3a9;" horiz-adv-x="783" 
d="M247 300c0 -100 50 -183 103 -218l-15 -82h-282l18 103h149c-53 42 -93 129 -93 212c0 220 173 349 373 349c169 0 277 -96 277 -260c0 -137 -70 -233 -175 -301h146l-18 -103h-276l15 83c67 43 184 133 184 307c0 117 -70 173 -163 173c-125 0 -243 -80 -243 -263z" />
    <glyph glyph-name="uni03BC" unicode="&#x3bc;" horiz-adv-x="584" 
d="M594 504l-71 -403c-4 -27 4 -33 21 -33c11 0 24 4 41 11l3 -67c-32 -16 -67 -24 -95 -24c-52 0 -70 30 -63 83c-35 -53 -81 -86 -141 -86c-47 0 -82 20 -101 53l-45 -254h-104l127 720h108l-55 -307c-13 -76 7 -127 79 -127c67 0 120 57 136 145l51 289h109z" />
    <glyph glyph-name="pi" unicode="&#x3c0;" horiz-adv-x="630" 
d="M659 413h-78l-52 -295c-7 -36 -6 -50 21 -50c16 0 33 4 44 7l3 -68c-24 -12 -65 -20 -97 -20c-80 0 -96 46 -85 105l57 321h-175l-72 -413h-109l73 413h-78l16 91h548z" />
    <glyph glyph-name="mu" unicode="&#xb5;" horiz-adv-x="584" 
d="M594 504l-71 -403c-4 -27 4 -33 21 -33c11 0 24 4 41 11l3 -67c-32 -16 -67 -24 -95 -24c-52 0 -70 30 -63 83c-35 -53 -81 -86 -141 -86c-47 0 -82 20 -101 53l-45 -254h-104l127 720h108l-55 -307c-13 -76 7 -127 79 -127c67 0 120 57 136 145l51 289h109z" />
    <glyph glyph-name="radical" unicode="&#x221a;" horiz-adv-x="665" 
d="M807 731l-394 -745h-109l-71 408l-105 -50l-19 79l215 101l62 -388l308 595h113z" />
    <glyph glyph-name="infinity" unicode="&#x221e;" horiz-adv-x="764" 
d="M775 344c0 -101 -66 -164 -155 -164c-78 0 -141 49 -184 97c-51 -60 -110 -99 -179 -99c-104 0 -163 62 -163 154c0 87 66 160 165 160c77 0 126 -35 178 -107c62 68 111 108 189 108c100 0 149 -69 149 -149zM680 336c0 44 -22 74 -69 74c-44 0 -76 -33 -111 -77
c31 -41 72 -73 112 -73c45 0 68 37 68 76zM372 332c-36 56 -68 78 -107 78c-52 0 -78 -35 -78 -76c0 -43 27 -75 76 -75c39 0 75 24 109 73z" />
    <glyph glyph-name="integral" unicode="&#x222b;" horiz-adv-x="390" 
d="M484 669l-25 -72c-17 5 -37 12 -64 12c-55 0 -61 -34 -69 -112l-55 -484c-8 -59 -26 -169 -158 -169c-39 0 -75 6 -106 19l27 75c20 -7 41 -12 64 -12c44 0 56 18 64 97l53 463c11 106 36 201 162 201c43 0 76 -7 107 -18z" />
    <glyph glyph-name="lozenge" unicode="&#x25ca;" horiz-adv-x="580" 
d="M586 331l-249 -331h-99l-132 329l249 328h98zM474 331l-89 224l-166 -225l89 -231z" />
    <glyph glyph-name="commaaccent" horiz-adv-x="500" 
d="M264 -178l-60 -108l-56 22l34 94c7 19 -2 24 -23 24h-18l22 76c101 32 141 -33 101 -108z" />
    <glyph glyph-name="revcommaaccent" horiz-adv-x="500" 
d="M305 682l60 108l56 -22l-34 -94c-7 -19 2 -24 23 -24h18l-22 -76c-101 -32 -144 33 -101 108z" />
    <glyph glyph-name="tilde.cap" horiz-adv-x="500" 
d="M261 730l-41 31c39 63 73 80 112 80c48 0 92 -28 127 -28c20 0 37 10 52 30l47 -29c-31 -59 -68 -82 -113 -82s-89 28 -127 28c-23 0 -36 -9 -57 -30z" />
    <glyph glyph-name="ring.cap" horiz-adv-x="500" 
d="M279 768c0 67 53 120 127 120c60 0 89 -37 89 -84c0 -75 -54 -123 -123 -123c-64 0 -93 36 -93 87zM344 771c0 -23 12 -34 35 -34c35 0 50 26 50 61c0 23 -12 34 -35 34c-41 0 -50 -30 -50 -61z" />
    <glyph glyph-name="circumflex.cap" horiz-adv-x="500" 
d="M261 708l-37 39l121 114c25 23 41 31 60 31c21 0 37 -11 60 -43l74 -105l-39 -36l-105 87z" />
    <glyph glyph-name="acute.cap" horiz-adv-x="500" 
d="M281 751l190 156l33 -31c10 -9 15 -20 15 -31c0 -23 -16 -38 -51 -55l-160 -80z" />
    <glyph glyph-name="grave.cap" horiz-adv-x="500" 
d="M351 908l149 -160l-36 -39l-147 87c-21 13 -31 27 -31 42c0 19 12 34 31 47z" />
    <glyph glyph-name="dieresis.cap" horiz-adv-x="500" 
d="M423 776c0 41 34 75 81 75c35 0 57 -23 57 -55c0 -43 -36 -75 -81 -75c-36 0 -57 22 -57 55zM220 776c0 41 34 75 81 75c35 0 57 -23 57 -55c0 -43 -36 -75 -81 -75c-35 0 -57 22 -57 55z" />
    <glyph glyph-name="caron.cap" horiz-adv-x="500" 
d="M283 892l103 -87l135 87l37 -41l-124 -113c-25 -23 -41 -30 -60 -30s-33 6 -49 29l-85 120z" />
    <glyph glyph-name="macron.cap" horiz-adv-x="500" 
d="M235 736l14 85h286l-14 -85h-286z" />
    <glyph glyph-name="dotaccent.cap" horiz-adv-x="501" 
d="M318 784c0 44 38 79 86 79c39 0 62 -23 62 -56c0 -47 -39 -81 -87 -81c-39 0 -61 23 -61 58z" />
    <glyph glyph-name="cedilla.cap" horiz-adv-x="500" 
d="M212 3h58l-26 -52c43 -4 78 -28 78 -72c0 -76 -71 -100 -132 -100c-33 0 -69 8 -89 19l24 53c15 -5 41 -13 64 -13c44 0 57 19 57 39c0 25 -35 29 -84 29z" />
    <glyph glyph-name="hungarumlaut.cap" horiz-adv-x="500" 
d="M264 743l192 155l32 -31c9 -8 14 -18 14 -31c0 -23 -15 -39 -51 -55l-161 -78zM478 742l187 159l34 -29c10 -8 15 -18 15 -31c0 -23 -18 -40 -49 -55l-159 -83z" />
    <glyph glyph-name="apostrophe" unicode="&#x2bc;" horiz-adv-x="252" 
d="M181 571l68 198h45c20 0 40 -7 40 -30c0 -15 -13 -38 -24 -55l-84 -129z" />
    <glyph glyph-name="commaaccent.cap" horiz-adv-x="500" 
d="M266 -178l-59 -108l-56 22l34 94c7 19 -3 24 -24 24h-17l21 76c102 32 141 -33 101 -108z" />
    <glyph glyph-name="breve.cap" horiz-adv-x="500" 
d="M493 875l73 -25c-33 -85 -90 -130 -181 -130c-97 0 -142 61 -147 128l78 24c7 -56 33 -76 77 -76c41 0 71 19 100 79z" />
    <glyph glyph-name="caron.alt" horiz-adv-x="252" 
d="M167 537l67 201c12 1 34 1 49 1c45 0 53 -33 29 -69l-95 -148z" />
    <glyph glyph-name="ogonek.cap" horiz-adv-x="500" 
d="M223 9h87l2 -8c-52 -29 -115 -73 -115 -114c0 -17 8 -28 35 -28c20 0 39 4 54 11l10 -65c-23 -11 -62 -22 -99 -22c-68 0 -90 41 -90 77c0 76 65 120 116 149z" />
    </font>
</defs>
</svg>
